<svg width="393" height="112" viewBox="0 0 393 112" fill="none" xmlns="http://www.w3.org/2000/svg">
<mask id="mask0" mask-type="alpha" maskUnits="userSpaceOnUse" x="0" y="0" width="393" height="112">
<rect width="393" height="112" fill="#C4C4C4"/>
</mask>
<g mask="url(#mask0)">
<path d="M186.522 84.5584C186.522 82.3598 186.924 80.2952 187.729 78.3648C188.587 76.4343 189.713 74.7451 191.107 73.2972C192.555 71.8494 194.244 70.7232 196.175 69.9189C198.105 69.0609 200.17 68.6319 202.368 68.6319C204.567 68.6319 206.631 69.0609 208.562 69.9189C210.492 70.7232 212.155 71.8494 213.549 73.2972C214.997 74.7451 216.123 76.4343 216.927 78.3648C217.785 80.2952 218.214 82.3598 218.214 84.5584C218.214 86.757 217.785 88.8484 216.927 90.8325C216.123 92.763 214.997 94.4521 213.549 95.9C212.155 97.3479 210.492 98.5008 208.562 99.3588C206.631 100.163 204.567 100.565 202.368 100.565C200.17 100.565 198.105 100.163 196.175 99.3588C194.244 98.5008 192.555 97.3479 191.107 95.9C189.713 94.4521 188.587 92.763 187.729 90.8325C186.924 88.8484 186.522 86.757 186.522 84.5584ZM210.01 84.5584C210.01 82.4134 209.259 80.5902 207.757 79.0887C206.31 77.5872 204.513 76.8364 202.368 76.8364C200.223 76.8364 198.4 77.5872 196.898 79.0887C195.451 80.5902 194.727 82.4134 194.727 84.5584C194.727 86.757 195.451 88.6071 196.898 90.1085C198.4 91.61 200.223 92.3608 202.368 92.3608C204.513 92.3608 206.31 91.61 207.757 90.1085C209.259 88.6071 210.01 86.757 210.01 84.5584ZM146.062 57.612C146.062 55.4134 146.465 53.3489 147.269 51.4184C148.127 49.4879 149.253 47.7987 150.647 46.3509C152.095 44.903 153.784 43.7769 155.715 42.9725C157.645 42.1145 159.71 41.6855 161.908 41.6855C164.107 41.6855 166.172 42.1145 168.102 42.9725C170.033 43.7769 171.695 44.903 173.089 46.3509C174.537 47.7987 175.663 49.4879 176.467 51.4184C177.325 53.3489 177.754 55.4134 177.754 57.612C177.754 59.8106 177.325 61.8752 176.467 63.8057C175.663 65.7362 174.537 67.4253 173.089 68.8732C171.695 70.3211 170.033 71.474 168.102 72.332C166.172 73.1364 164.107 73.5385 161.908 73.5385C159.71 73.5385 157.645 73.1364 155.715 72.332C153.784 71.474 152.095 70.3211 150.647 68.8732C149.253 67.4253 148.127 65.7362 147.269 63.8057C146.465 61.8752 146.062 59.8106 146.062 57.612ZM169.55 57.612C169.55 55.467 168.799 53.6438 167.298 52.1423C165.85 50.6408 164.053 49.8901 161.908 49.8901C159.763 49.8901 157.94 50.6408 156.439 52.1423C154.991 53.6438 154.267 55.467 154.267 57.612C154.267 59.757 154.991 61.5802 156.439 63.0817C157.94 64.5832 159.763 65.334 161.908 65.334C164.053 65.334 165.85 64.5832 167.298 63.0817C168.799 61.5802 169.55 59.757 169.55 57.612ZM195.129 40.0768L201.886 43.8573L168.665 102.174L162.552 98.7153L195.129 40.0768Z" fill="white"/>
<path d="M187.729 78.3648L184.987 77.1463C184.978 77.1677 184.968 77.1893 184.959 77.2109L187.729 78.3648ZM191.107 73.2972L188.986 71.1759C188.972 71.1892 188.959 71.2027 188.946 71.2163L191.107 73.2972ZM196.175 69.9189L197.328 72.6881C197.35 72.6791 197.372 72.6698 197.393 72.6603L196.175 69.9189ZM208.562 69.9189L207.343 72.6603C207.365 72.6698 207.386 72.6791 207.408 72.6881L208.562 69.9189ZM213.549 73.2972L211.388 75.3781C211.401 75.3917 211.414 75.4052 211.428 75.4185L213.549 73.2972ZM216.927 78.3648L214.158 79.5186C214.167 79.5402 214.176 79.5618 214.186 79.5832L216.927 78.3648ZM216.927 90.8325L214.174 89.6417C214.168 89.654 214.163 89.6663 214.158 89.6786L216.927 90.8325ZM213.549 95.9L211.428 93.7787C211.414 93.792 211.401 93.8055 211.388 93.8191L213.549 95.9ZM208.562 99.3588L209.716 102.128C209.737 102.119 209.759 102.11 209.78 102.1L208.562 99.3588ZM196.175 99.3588L194.956 102.1C194.978 102.11 194.999 102.119 195.021 102.128L196.175 99.3588ZM191.107 95.9L188.946 97.9809C188.959 97.9945 188.972 98.008 188.986 98.0213L191.107 95.9ZM187.729 90.8325L184.948 91.9596C184.961 91.9902 184.974 92.0207 184.987 92.0509L187.729 90.8325ZM207.757 79.0887L205.598 81.1711C205.611 81.1842 205.623 81.1971 205.636 81.21L207.757 79.0887ZM196.898 79.0887L194.777 76.9674C194.764 76.9802 194.752 76.9932 194.739 77.0063L196.898 79.0887ZM196.898 90.1085L194.739 92.1909C194.752 92.204 194.764 92.217 194.777 92.2299L196.898 90.1085ZM207.757 90.1085L205.636 87.9872C205.623 88.0001 205.611 88.013 205.598 88.0261L207.757 90.1085ZM147.269 51.4184L144.527 50.2C144.518 50.2214 144.509 50.2429 144.5 50.2645L147.269 51.4184ZM150.647 46.3509L148.526 44.2295C148.513 44.2429 148.499 44.2563 148.486 44.2699L150.647 46.3509ZM155.715 42.9725L156.869 45.7417C156.89 45.7327 156.912 45.7235 156.933 45.7139L155.715 42.9725ZM168.102 42.9725L166.884 45.7139C166.905 45.7235 166.927 45.7327 166.948 45.7417L168.102 42.9725ZM173.089 46.3509L170.928 48.4318C170.941 48.4454 170.954 48.4588 170.968 48.4722L173.089 46.3509ZM176.467 51.4184L173.698 52.5722C173.707 52.5939 173.717 52.6154 173.726 52.6368L176.467 51.4184ZM176.467 63.8057L173.726 62.5873C173.717 62.6087 173.707 62.6302 173.698 62.6518L176.467 63.8057ZM173.089 68.8732L170.968 66.7519C170.954 66.7652 170.941 66.7787 170.928 66.7923L173.089 68.8732ZM168.102 72.332L169.256 75.1012C169.278 75.0922 169.299 75.0829 169.32 75.0734L168.102 72.332ZM155.715 72.332L154.496 75.0734C154.518 75.0829 154.539 75.0922 154.561 75.1012L155.715 72.332ZM150.647 68.8732L148.486 70.9541C148.499 70.9677 148.513 70.9812 148.526 70.9945L150.647 68.8732ZM147.269 63.8057L144.5 64.9595C144.509 64.9811 144.518 65.0027 144.527 65.0241L147.269 63.8057ZM167.298 52.1423L165.138 54.2247C165.151 54.2378 165.164 54.2508 165.176 54.2636L167.298 52.1423ZM156.439 52.1423L154.317 50.021C154.305 50.0338 154.292 50.0468 154.279 50.0599L156.439 52.1423ZM156.439 63.0817L154.279 65.1641C154.292 65.1772 154.305 65.1902 154.317 65.2031L156.439 63.0817ZM167.298 63.0817L165.176 60.9604C165.164 60.9733 165.151 60.9862 165.138 60.9993L167.298 63.0817ZM195.129 40.0768L196.594 37.4587C195.898 37.0695 195.076 36.9731 194.309 37.191C193.542 37.4088 192.894 37.9229 192.506 38.6198L195.129 40.0768ZM201.886 43.8573L204.492 45.3422C204.888 44.6474 204.99 43.8233 204.776 43.053C204.561 42.2826 204.048 41.6297 203.35 41.2393L201.886 43.8573ZM168.665 102.174L167.188 104.785C168.627 105.599 170.453 105.096 171.272 103.659L168.665 102.174ZM162.552 98.7153L159.929 97.2584C159.129 98.6987 159.64 100.515 161.075 101.326L162.552 98.7153ZM189.522 84.5584C189.522 82.7352 189.854 81.0649 190.498 79.5186L184.959 77.2109C183.995 79.5256 183.522 81.9844 183.522 84.5584H189.522ZM190.47 79.5832C191.194 77.9553 192.128 76.5618 193.268 75.3781L188.946 71.2163C187.297 72.9283 185.98 74.9132 184.987 77.1463L190.47 79.5832ZM193.228 75.4185C194.393 74.2538 195.752 73.3451 197.328 72.6881L195.021 67.1496C192.736 68.1014 190.717 69.445 188.986 71.1759L193.228 75.4185ZM197.393 72.6603C198.924 71.9798 200.572 71.6319 202.368 71.6319V65.6319C199.767 65.6319 197.286 66.142 194.956 67.1774L197.393 72.6603ZM202.368 71.6319C204.165 71.6319 205.812 71.9798 207.343 72.6603L209.78 67.1774C207.451 66.142 204.969 65.6319 202.368 65.6319V71.6319ZM207.408 72.6881C208.975 73.341 210.29 74.2383 211.388 75.3781L215.71 71.2163C214.019 69.4605 212.01 68.1055 209.716 67.1496L207.408 72.6881ZM211.428 75.4185C212.592 76.5833 213.501 77.9419 214.158 79.5186L219.697 77.2109C218.745 74.9266 217.401 72.9069 215.67 71.1759L211.428 75.4185ZM214.186 79.5832C214.866 81.1144 215.214 82.762 215.214 84.5584H221.214C221.214 81.9575 220.704 79.4761 219.669 77.1463L214.186 79.5832ZM215.214 84.5584C215.214 86.3546 214.866 88.0401 214.174 89.6417L219.681 92.0232C220.704 89.6566 221.214 87.1594 221.214 84.5584H215.214ZM214.158 89.6786C213.501 91.2553 212.592 92.6139 211.428 93.7787L215.67 98.0213C217.401 96.2904 218.745 94.2706 219.697 91.9863L214.158 89.6786ZM211.388 93.8191C210.276 94.9739 208.938 95.9085 207.343 96.6174L209.78 102.1C212.046 101.093 214.033 99.7218 215.71 97.9809L211.388 93.8191ZM207.408 96.5896C205.862 97.2338 204.191 97.5653 202.368 97.5653V103.565C204.942 103.565 207.401 103.092 209.716 102.128L207.408 96.5896ZM202.368 97.5653C200.545 97.5653 198.875 97.2338 197.328 96.5896L195.021 102.128C197.335 103.092 199.794 103.565 202.368 103.565V97.5653ZM197.393 96.6174C195.788 95.9041 194.408 94.9579 193.228 93.7787L188.986 98.0213C190.702 99.7378 192.7 101.098 194.956 102.1L197.393 96.6174ZM193.268 93.8191C192.128 92.6354 191.194 91.2419 190.47 89.6141L184.987 92.0509C185.98 94.284 187.297 96.2689 188.946 97.9809L193.268 93.8191ZM190.509 89.7054C189.854 88.089 189.522 86.3813 189.522 84.5584H183.522C183.522 87.1327 183.995 89.6077 184.948 91.9596L190.509 89.7054ZM213.01 84.5584C213.01 81.6268 211.949 79.0378 209.879 76.9674L205.636 81.21C206.569 82.1425 207.01 83.2 207.01 84.5584H213.01ZM209.917 77.0063C207.886 74.9 205.302 73.8364 202.368 73.8364V79.8364C203.725 79.8364 204.733 80.2744 205.598 81.1711L209.917 77.0063ZM202.368 73.8364C199.437 73.8364 196.848 74.8969 194.777 76.9674L199.02 81.21C199.952 80.2775 201.01 79.8364 202.368 79.8364V73.8364ZM194.739 77.0063C192.735 79.0843 191.727 81.6611 191.727 84.5584H197.727C197.727 83.1657 198.166 82.096 199.058 81.1711L194.739 77.0063ZM191.727 84.5584C191.727 87.4874 192.721 90.0978 194.739 92.1909L199.058 88.0261C198.181 87.1163 197.727 86.0267 197.727 84.5584H191.727ZM194.777 92.2299C196.848 94.3003 199.437 95.3608 202.368 95.3608V89.3608C201.01 89.3608 199.952 88.9197 199.02 87.9872L194.777 92.2299ZM202.368 95.3608C205.302 95.3608 207.886 94.2972 209.917 92.1909L205.598 88.0261C204.733 88.9228 203.725 89.3608 202.368 89.3608V95.3608ZM209.879 92.2299C211.965 90.1439 213.01 87.5212 213.01 84.5584H207.01C207.01 85.9928 206.553 87.0702 205.636 87.9872L209.879 92.2299ZM149.062 57.612C149.062 55.7888 149.394 54.1185 150.038 52.5722L144.5 50.2645C143.535 52.5792 143.062 55.038 143.062 57.612H149.062ZM150.01 52.6368C150.734 51.009 151.668 49.6155 152.808 48.4318L148.486 44.2699C146.838 45.982 145.52 47.9668 144.527 50.2L150.01 52.6368ZM152.769 48.4722C153.933 47.3074 155.292 46.3987 156.869 45.7417L154.561 40.2033C152.277 41.1551 150.257 42.4986 148.526 44.2295L152.769 48.4722ZM156.933 45.7139C158.464 45.0334 160.112 44.6855 161.908 44.6855V38.6855C159.308 38.6855 156.826 39.1956 154.496 40.2311L156.933 45.7139ZM161.908 44.6855C163.705 44.6855 165.352 45.0334 166.884 45.7139L169.32 40.2311C166.991 39.1956 164.509 38.6855 161.908 38.6855V44.6855ZM166.948 45.7417C168.515 46.3946 169.831 47.2919 170.928 48.4318L175.25 44.2699C173.559 42.5141 171.55 41.1592 169.256 40.2033L166.948 45.7417ZM170.968 48.4722C172.133 49.637 173.041 50.9955 173.698 52.5722L179.237 50.2645C178.285 47.9803 176.941 45.9605 175.21 44.2295L170.968 48.4722ZM173.726 52.6368C174.407 54.168 174.754 55.8157 174.754 57.612H180.754C180.754 55.0112 180.244 52.5297 179.209 50.2L173.726 52.6368ZM174.754 57.612C174.754 59.4084 174.407 61.056 173.726 62.5873L179.209 65.0241C180.244 62.6943 180.754 60.2129 180.754 57.612H174.754ZM173.698 62.6518C173.041 64.2285 172.133 65.5871 170.968 66.7519L175.21 70.9945C176.941 69.2636 178.285 67.2438 179.237 64.9595L173.698 62.6518ZM170.928 66.7923C169.816 67.9471 168.479 68.8817 166.884 69.5905L169.32 75.0734C171.586 74.0663 173.574 72.695 175.25 70.9541L170.928 66.7923ZM166.948 69.5628C165.402 70.207 163.732 70.5385 161.908 70.5385V76.5385C164.482 76.5385 166.941 76.0657 169.256 75.1012L166.948 69.5628ZM161.908 70.5385C160.085 70.5385 158.415 70.207 156.869 69.5627L154.561 75.1012C156.876 76.0657 159.334 76.5385 161.908 76.5385V70.5385ZM156.933 69.5905C155.328 68.8773 153.948 67.9311 152.769 66.7519L148.526 70.9945C150.242 72.711 152.24 74.0707 154.496 75.0734L156.933 69.5905ZM152.808 66.7923C151.668 65.6086 150.734 64.2151 150.01 62.5873L144.527 65.0241C145.52 67.2572 146.838 69.2421 148.486 70.9541L152.808 66.7923ZM150.038 62.6518C149.394 61.1055 149.062 59.4352 149.062 57.612H143.062C143.062 60.1861 143.535 62.6448 144.5 64.9595L150.038 62.6518ZM172.55 57.612C172.55 54.6805 171.489 52.0915 169.419 50.021L165.176 54.2636C166.109 55.1961 166.55 56.2536 166.55 57.612H172.55ZM169.457 50.0599C167.426 47.9536 164.842 46.8901 161.908 46.8901V52.8901C163.265 52.8901 164.274 53.328 165.138 54.2247L169.457 50.0599ZM161.908 46.8901C158.977 46.8901 156.388 47.9505 154.317 50.021L158.56 54.2636C159.493 53.3311 160.55 52.8901 161.908 52.8901V46.8901ZM154.279 50.0599C152.275 52.1379 151.267 54.7148 151.267 57.612H157.267C157.267 56.2193 157.706 55.1497 158.598 54.2247L154.279 50.0599ZM151.267 57.612C151.267 60.5093 152.275 63.0861 154.279 65.1641L158.598 60.9993C157.706 60.0744 157.267 59.0047 157.267 57.612H151.267ZM154.317 65.2031C156.388 67.2735 158.977 68.334 161.908 68.334V62.334C160.55 62.334 159.493 61.8929 158.56 60.9604L154.317 65.2031ZM161.908 68.334C164.842 68.334 167.426 67.2704 169.457 65.1641L165.138 60.9993C164.274 61.896 163.265 62.334 161.908 62.334V68.334ZM169.419 65.2031C171.489 63.1326 172.55 60.5436 172.55 57.612H166.55C166.55 58.9704 166.109 60.0279 165.176 60.9604L169.419 65.2031ZM193.664 42.6948L200.421 46.4754L203.35 41.2393L196.594 37.4587L193.664 42.6948ZM199.279 42.3724L166.058 100.689L171.272 103.659L204.492 45.3422L199.279 42.3724ZM170.142 99.563L164.029 96.1042L161.075 101.326L167.188 104.785L170.142 99.563ZM165.174 100.172L197.751 41.5337L192.506 38.6198L159.929 97.2584L165.174 100.172Z" fill="white"/>
<path d="M227.652 72.0315C227.652 67.371 228.419 63.1491 229.955 59.3659C231.545 55.5826 233.738 52.3751 236.534 49.7433C239.33 47.0566 242.648 45.0005 246.486 43.5749C250.324 42.1494 254.518 41.4366 259.069 41.4366C263.62 41.4366 267.814 42.1494 271.653 43.5749C275.491 45.0005 278.808 47.0566 281.604 49.7433C284.4 52.3751 286.566 55.5826 288.101 59.3659C289.691 63.1491 290.486 67.371 290.486 72.0315C290.486 76.692 289.691 80.9139 288.101 84.6971C286.566 88.4804 284.4 91.7153 281.604 94.402C278.808 97.0338 275.491 99.0625 271.653 100.488C267.814 101.914 263.62 102.626 259.069 102.626C254.518 102.626 250.324 101.914 246.486 100.488C242.648 99.0625 239.33 97.0338 236.534 94.402C233.738 91.7153 231.545 88.4804 229.955 84.6971C228.419 80.9139 227.652 76.692 227.652 72.0315ZM240.975 72.0315C240.975 74.773 241.387 77.2951 242.209 79.598C243.086 81.846 244.32 83.8198 245.91 85.5196C247.5 87.1645 249.392 88.4529 251.585 89.385C253.833 90.3172 256.328 90.7832 259.069 90.7832C261.811 90.7832 264.278 90.3172 266.471 89.385C268.719 88.4529 270.638 87.1645 272.228 85.5196C273.818 83.8198 275.025 81.846 275.847 79.598C276.724 77.2951 277.163 74.773 277.163 72.0315C277.163 69.3448 276.724 66.8501 275.847 64.5472C275.025 62.2444 273.818 60.2705 272.228 58.6257C270.638 56.9259 268.719 55.61 266.471 54.6779C264.278 53.7458 261.811 53.2798 259.069 53.2798C256.328 53.2798 253.833 53.7458 251.585 54.6779C249.392 55.61 247.5 56.9259 245.91 58.6257C244.32 60.2705 243.086 62.2444 242.209 64.5472C241.387 66.8501 240.975 69.3448 240.975 72.0315ZM299.7 42.917H338.767V54.7602H312.531V66.6034H336.793V78.4465H312.531V101.146H299.7V42.917ZM348.453 42.917H387.519V54.7602H361.283V66.6034H385.545V78.4465H361.283V101.146H348.453V42.917Z" fill="white"/>
<path d="M229.955 59.3659L227.189 58.2035C227.184 58.2149 227.179 58.2263 227.175 58.2378L229.955 59.3659ZM236.534 49.7433L238.59 51.9279C238.598 51.9208 238.605 51.9137 238.613 51.9066L236.534 49.7433ZM246.486 43.5749L245.441 40.7627L245.441 40.7627L246.486 43.5749ZM271.653 43.5749L272.697 40.7627L272.697 40.7627L271.653 43.5749ZM281.604 49.7433L279.526 51.9066C279.533 51.9137 279.541 51.9208 279.548 51.9279L281.604 49.7433ZM288.101 59.3659L285.322 60.4939C285.326 60.5054 285.331 60.5168 285.336 60.5282L288.101 59.3659ZM288.101 84.6971L285.336 83.5347C285.331 83.5462 285.326 83.5576 285.322 83.5691L288.101 84.6971ZM281.604 94.402L283.66 96.5866C283.668 96.5795 283.675 96.5724 283.683 96.5653L281.604 94.402ZM271.653 100.488L270.608 97.6758L270.608 97.6758L271.653 100.488ZM246.486 100.488L247.53 97.6758L247.53 97.6758L246.486 100.488ZM236.534 94.402L234.456 96.5653C234.463 96.5724 234.471 96.5795 234.478 96.5866L236.534 94.402ZM229.955 84.6971L227.175 85.8252C227.179 85.8366 227.184 85.8481 227.189 85.8595L229.955 84.6971ZM242.209 79.598L239.384 80.607C239.394 80.6343 239.404 80.6615 239.414 80.6886L242.209 79.598ZM245.91 85.5196L243.719 87.569C243.73 87.581 243.742 87.5929 243.753 87.6046L245.91 85.5196ZM251.585 89.385L250.411 92.146C250.42 92.1495 250.428 92.1529 250.436 92.1563L251.585 89.385ZM266.471 89.385L265.322 86.6138C265.314 86.6172 265.306 86.6206 265.298 86.6241L266.471 89.385ZM272.228 85.5196L274.385 87.6046C274.397 87.5929 274.408 87.581 274.419 87.569L272.228 85.5196ZM275.847 79.598L273.044 78.53C273.039 78.5424 273.034 78.5548 273.03 78.5672L275.847 79.598ZM275.847 64.5472L273.022 65.5563C273.029 65.576 273.036 65.5957 273.044 65.6152L275.847 64.5472ZM272.228 58.6257L270.037 60.6751C270.049 60.6871 270.06 60.6989 270.071 60.7107L272.228 58.6257ZM266.471 54.6779L265.298 57.4389C265.306 57.4424 265.314 57.4458 265.322 57.4492L266.471 54.6779ZM251.585 54.6779L250.436 51.9067C250.428 51.9101 250.42 51.9135 250.411 51.9169L251.585 54.6779ZM245.91 58.6257L248.067 60.7107C248.078 60.6989 248.09 60.6871 248.101 60.6751L245.91 58.6257ZM242.209 64.5472L239.406 63.4793C239.398 63.4988 239.391 63.5185 239.384 63.5382L242.209 64.5472ZM230.652 72.0315C230.652 67.7034 231.364 63.8717 232.734 60.4939L227.175 58.2378C225.475 62.4264 224.652 67.0386 224.652 72.0315H230.652ZM232.72 60.5282C234.159 57.1046 236.12 54.2529 238.59 51.9279L234.478 47.5587C231.356 50.4973 228.93 54.0606 227.189 58.2035L232.72 60.5282ZM238.613 51.9066C241.096 49.5206 244.056 47.6777 247.53 46.3872L245.441 40.7627C241.24 42.3233 237.565 44.5926 234.456 47.5799L238.613 51.9066ZM247.53 46.3872C250.999 45.0989 254.835 44.4366 259.069 44.4366V38.4366C254.201 38.4366 249.649 39.1999 245.441 40.7627L247.53 46.3872ZM259.069 44.4366C263.303 44.4366 267.139 45.0989 270.608 46.3872L272.697 40.7627C268.49 39.1999 263.937 38.4366 259.069 38.4366V44.4366ZM270.608 46.3872C274.082 47.6777 277.042 49.5206 279.526 51.9066L283.683 47.5799C280.573 44.5926 276.899 42.3233 272.697 40.7627L270.608 46.3872ZM279.548 51.9279C282.01 54.2452 283.938 57.085 285.322 60.4939L290.881 58.2378C289.194 54.0802 286.791 50.505 283.66 47.5587L279.548 51.9279ZM285.336 60.5282C286.752 63.8968 287.486 67.7163 287.486 72.0315H293.486C293.486 67.0257 292.631 62.4014 290.867 58.2035L285.336 60.5282ZM287.486 72.0315C287.486 76.3467 286.752 80.1661 285.336 83.5347L290.867 85.8595C292.631 81.6616 293.486 77.0373 293.486 72.0315H287.486ZM285.322 83.5691C283.936 86.9829 282.002 89.8593 279.526 92.2386L283.683 96.5653C286.799 93.5713 289.196 89.9779 290.881 85.8252L285.322 83.5691ZM279.548 92.2174C277.063 94.5566 274.096 96.3804 270.608 97.6758L272.697 103.3C276.886 101.745 280.553 99.5109 283.66 96.5866L279.548 92.2174ZM270.608 97.6758C267.139 98.9641 263.303 99.6264 259.069 99.6264V105.626C263.937 105.626 268.49 104.863 272.697 103.3L270.608 97.6758ZM259.069 99.6264C254.835 99.6264 250.999 98.9641 247.53 97.6758L245.441 103.3C249.649 104.863 254.201 105.626 259.069 105.626V99.6264ZM247.53 97.6758C244.043 96.3804 241.076 94.5566 238.59 92.2174L234.478 96.5866C237.585 99.5109 241.253 101.745 245.441 103.3L247.53 97.6758ZM238.613 92.2386C236.128 89.8516 234.161 86.9633 232.72 83.5347L227.189 85.8595C228.928 89.9974 231.348 93.579 234.456 96.5653L238.613 92.2386ZM232.734 83.5691C231.364 80.1912 230.652 76.3596 230.652 72.0315H224.652C224.652 77.0244 225.475 81.6365 227.175 85.8252L232.734 83.5691ZM237.975 72.0315C237.975 75.0755 238.433 77.9436 239.384 80.607L245.034 78.589C244.341 76.6467 243.975 74.4704 243.975 72.0315H237.975ZM239.414 80.6886C240.425 83.2784 241.859 85.5807 243.719 87.569L248.101 83.4701C246.781 82.059 245.748 80.4136 245.004 78.5073L239.414 80.6886ZM243.753 87.6046C245.634 89.5504 247.864 91.0634 250.411 92.146L252.758 86.6241C250.919 85.8424 249.366 84.7785 248.067 83.4345L243.753 87.6046ZM250.436 92.1563C253.091 93.2574 255.983 93.7832 259.069 93.7832V87.7832C256.672 87.7832 254.574 87.3769 252.734 86.6138L250.436 92.1563ZM259.069 93.7832C262.154 93.7832 265.029 93.2578 267.645 92.146L265.298 86.6241C263.527 87.3765 261.468 87.7832 259.069 87.7832V93.7832ZM267.62 92.1563C270.223 91.077 272.492 89.5634 274.385 87.6046L270.071 83.4345C268.785 84.7655 267.215 85.8288 265.322 86.6138L267.62 92.1563ZM274.419 87.569C276.292 85.5668 277.708 83.2439 278.664 80.6287L273.03 78.5672C272.342 80.4481 271.344 82.0729 270.037 83.4701L274.419 87.569ZM278.65 80.666C279.671 77.9858 280.163 75.097 280.163 72.0315H274.163C274.163 74.4489 273.777 76.6045 273.044 78.53L278.65 80.666ZM280.163 72.0315C280.163 69.0129 279.669 66.1527 278.65 63.4793L273.044 65.6152C273.78 67.5475 274.163 69.6768 274.163 72.0315H280.163ZM278.672 63.5382C277.716 60.8614 276.292 58.5133 274.385 56.5406L270.071 60.7107C271.344 62.0278 272.333 63.6274 273.022 65.5563L278.672 63.5382ZM274.419 56.5762C272.524 54.5502 270.244 52.9948 267.62 51.9067L265.322 57.4492C267.194 58.2252 268.753 59.3017 270.037 60.6751L274.419 56.5762ZM267.645 51.9169C265.029 50.8052 262.154 50.2798 259.069 50.2798V56.2798C261.468 56.2798 263.527 56.6865 265.298 57.4389L267.645 51.9169ZM259.069 50.2798C255.983 50.2798 253.091 50.8056 250.436 51.9067L252.734 57.4491C254.574 56.686 256.672 56.2798 259.069 56.2798V50.2798ZM250.411 51.9169C247.843 53.0087 245.602 54.5635 243.719 56.5762L248.101 60.6751C249.398 59.2883 250.941 58.2114 252.758 57.4389L250.411 51.9169ZM243.753 56.5406C241.86 58.4992 240.416 60.8267 239.406 63.4793L245.012 65.6152C245.757 63.6621 246.78 62.0419 248.067 60.7107L243.753 56.5406ZM239.384 63.5382C238.435 66.1953 237.975 69.0348 237.975 72.0315H243.975C243.975 69.6549 244.338 67.5049 245.034 65.5563L239.384 63.5382ZM299.7 42.917V39.917C298.044 39.917 296.7 41.2601 296.7 42.917H299.7ZM338.767 42.917H341.767C341.767 41.2601 340.423 39.917 338.767 39.917V42.917ZM338.767 54.7602V57.7602C340.423 57.7602 341.767 56.417 341.767 54.7602H338.767ZM312.531 54.7602V51.7602C310.874 51.7602 309.531 53.1033 309.531 54.7602H312.531ZM312.531 66.6034H309.531C309.531 68.2602 310.874 69.6034 312.531 69.6034V66.6034ZM336.793 66.6034H339.793C339.793 64.9465 338.449 63.6034 336.793 63.6034V66.6034ZM336.793 78.4465V81.4465C338.449 81.4465 339.793 80.1034 339.793 78.4465H336.793ZM312.531 78.4465V75.4465C310.874 75.4465 309.531 76.7897 309.531 78.4465H312.531ZM312.531 101.146V104.146C314.187 104.146 315.531 102.803 315.531 101.146H312.531ZM299.7 101.146H296.7C296.7 102.803 298.044 104.146 299.7 104.146V101.146ZM299.7 45.917H338.767V39.917H299.7V45.917ZM335.767 42.917V54.7602H341.767V42.917H335.767ZM338.767 51.7602H312.531V57.7602H338.767V51.7602ZM309.531 54.7602V66.6034H315.531V54.7602H309.531ZM312.531 69.6034H336.793V63.6034H312.531V69.6034ZM333.793 66.6034V78.4465H339.793V66.6034H333.793ZM336.793 75.4465H312.531V81.4465H336.793V75.4465ZM309.531 78.4465V101.146H315.531V78.4465H309.531ZM312.531 98.146H299.7V104.146H312.531V98.146ZM302.7 101.146V42.917H296.7V101.146H302.7ZM348.453 42.917V39.917C346.796 39.917 345.453 41.2601 345.453 42.917H348.453ZM387.519 42.917H390.519C390.519 41.2601 389.176 39.917 387.519 39.917V42.917ZM387.519 54.7602V57.7602C389.176 57.7602 390.519 56.417 390.519 54.7602H387.519ZM361.283 54.7602V51.7602C359.626 51.7602 358.283 53.1033 358.283 54.7602H361.283ZM361.283 66.6034H358.283C358.283 68.2602 359.626 69.6034 361.283 69.6034V66.6034ZM385.545 66.6034H388.545C388.545 64.9465 387.202 63.6034 385.545 63.6034V66.6034ZM385.545 78.4465V81.4465C387.202 81.4465 388.545 80.1034 388.545 78.4465H385.545ZM361.283 78.4465V75.4465C359.626 75.4465 358.283 76.7897 358.283 78.4465H361.283ZM361.283 101.146V104.146C362.94 104.146 364.283 102.803 364.283 101.146H361.283ZM348.453 101.146H345.453C345.453 102.803 346.796 104.146 348.453 104.146V101.146ZM348.453 45.917H387.519V39.917H348.453V45.917ZM384.519 42.917V54.7602H390.519V42.917H384.519ZM387.519 51.7602H361.283V57.7602H387.519V51.7602ZM358.283 54.7602V66.6034H364.283V54.7602H358.283ZM361.283 69.6034H385.545V63.6034H361.283V69.6034ZM382.545 66.6034V78.4465H388.545V66.6034H382.545ZM385.545 75.4465H361.283V81.4465H385.545V75.4465ZM358.283 78.4465V101.146H364.283V78.4465H358.283ZM361.283 98.146H348.453V104.146H361.283V98.146ZM351.453 101.146V42.917H345.453V101.146H351.453Z" fill="white"/>
<path d="M9.94697 8.20456H68.8501L35.557 104H22.129L49.8156 28.6926C49.7694 28.1389 49.6541 27.7697 49.4695 27.5851H22.4059C17.9761 27.5851 14.7229 28.3004 12.6464 29.7309C10.6161 31.1613 8.79336 34.4837 7.17831 39.698H3.71749L9.94697 8.20456ZM94.8782 72.5066C94.9705 84.0426 95.8242 91.841 97.4392 95.9017C99.0543 99.9162 101.5 101.924 104.776 101.924C108.883 101.924 111.652 98.1858 113.082 90.7105C113.867 86.6036 114.259 80.5357 114.259 72.5066V40.0441C114.259 28.5542 113.428 20.8019 111.767 16.7874C110.152 12.7267 107.776 10.6964 104.638 10.6964C101.454 10.6964 99.0312 12.7498 97.37 16.8566C95.7088 20.9173 94.8782 28.6465 94.8782 40.0441V72.5066ZM72.5905 56.9329C72.5905 39.9979 76.3744 26.893 83.942 17.618C89.9408 10.2349 96.8163 6.54337 104.568 6.54337C113.52 6.54337 121.065 11.0886 127.202 20.179C133.432 29.5001 136.546 41.2208 136.546 55.3409C136.546 71.999 133.016 84.9655 125.956 94.2405C120.004 102.039 112.898 105.938 104.638 105.938C98.8235 105.938 93.863 104.231 89.7562 100.816C85.6494 97.4014 82.1424 92.9946 79.2353 87.5957C76.7435 83.0274 74.99 77.7901 73.9749 71.8836C73.375 68.4228 72.9136 63.4392 72.5905 56.9329Z" fill="white"/>
<path d="M9.94697 8.20456V5.20456C8.51454 5.20456 7.28194 6.21723 7.00399 7.62244L9.94697 8.20456ZM68.8501 8.20456L71.6838 9.18941C72.0026 8.27216 71.8577 7.25734 71.2949 6.46596C70.7322 5.67459 69.8212 5.20456 68.8501 5.20456V8.20456ZM35.557 104V107C36.8343 107 37.9715 106.191 38.3908 104.985L35.557 104ZM22.129 104L19.3133 102.965C18.975 103.885 19.1077 104.913 19.6688 105.717C20.2299 106.521 21.1485 107 22.129 107V104ZM49.8156 28.6926L52.6313 29.7278C52.7822 29.3175 52.8415 28.8791 52.8052 28.4435L49.8156 28.6926ZM49.4695 27.5851L51.5908 25.4638C51.0282 24.9012 50.2652 24.5851 49.4695 24.5851V27.5851ZM12.6464 29.7309L10.9445 27.2603C10.9358 27.2663 10.9272 27.2723 10.9185 27.2784L12.6464 29.7309ZM7.17831 39.698V42.698C8.49326 42.698 9.65495 41.8417 10.044 40.5856L7.17831 39.698ZM3.71749 39.698L0.774515 39.1159C0.600329 39.9965 0.829634 40.9088 1.39948 41.6024C1.96933 42.296 2.81983 42.698 3.71749 42.698L3.71749 39.698ZM9.94697 11.2046H68.8501V5.20456H9.94697V11.2046ZM66.0163 7.21972L32.7233 103.015L38.3908 104.985L71.6838 9.18941L66.0163 7.21972ZM35.557 101H22.129V107H35.557V101ZM24.9448 105.035L52.6313 29.7278L46.9999 27.6574L19.3133 102.965L24.9448 105.035ZM52.8052 28.4435C52.7711 28.0338 52.7028 27.5693 52.5579 27.1056C52.4199 26.664 52.1514 26.0244 51.5908 25.4638L47.3482 29.7065C47.1526 29.5109 47.0301 29.3218 46.9571 29.187C46.8843 29.0526 46.8474 28.9477 46.831 28.8953C46.8015 28.8008 46.8139 28.7977 46.8259 28.9417L52.8052 28.4435ZM49.4695 24.5851H22.4059V30.5851H49.4695V24.5851ZM22.4059 24.5851C17.7735 24.5851 13.7749 25.3105 10.9445 27.2603L14.3483 32.2014C15.6709 31.2903 18.1786 30.5851 22.4059 30.5851V24.5851ZM10.9185 27.2784C9.38475 28.359 8.15269 29.9819 7.12643 31.8525C6.08605 33.7489 5.15614 36.087 4.31263 38.8104L10.044 40.5856C10.8155 38.0947 11.6045 36.1644 12.3868 34.7384C13.1833 33.2867 13.8777 32.5331 14.3743 32.1833L10.9185 27.2784ZM7.17831 36.698H3.71749V42.698H7.17831V36.698ZM6.66047 40.2801L12.8899 8.78669L7.00399 7.62244L0.774515 39.1159L6.66047 40.2801ZM94.8782 72.5066H91.8782C91.8782 72.5146 91.8782 72.5226 91.8783 72.5306L94.8782 72.5066ZM97.4392 95.9017L94.6516 97.0104L94.656 97.0214L97.4392 95.9017ZM113.082 90.7105L116.029 91.2743L116.029 91.2733L113.082 90.7105ZM111.767 16.7874L108.979 17.8961C108.984 17.9089 108.99 17.9217 108.995 17.9344L111.767 16.7874ZM97.37 16.8566L100.147 17.9925L100.151 17.9815L97.37 16.8566ZM72.5905 56.9329H69.5905C69.5905 56.9825 69.5918 57.0321 69.5942 57.0816L72.5905 56.9329ZM83.942 17.618L86.2665 19.5146L86.2704 19.5098L83.942 17.618ZM127.202 20.179L129.697 18.512L129.689 18.5004L127.202 20.179ZM125.956 94.2405L128.341 96.0608L128.343 96.0575L125.956 94.2405ZM79.2353 87.5957L81.8767 86.1734C81.8742 86.1687 81.8716 86.1639 81.869 86.1592L79.2353 87.5957ZM73.9749 71.8836L76.9315 71.3754L76.9308 71.3713L73.9749 71.8836ZM91.8783 72.5306C91.9702 84.0188 92.8011 92.3578 94.6516 97.0104L100.227 94.793C98.8472 91.3242 97.9708 84.0664 97.8781 72.4826L91.8783 72.5306ZM94.656 97.0214C95.5856 99.332 96.8524 101.318 98.5814 102.737C100.361 104.198 102.471 104.924 104.776 104.924V98.9235C103.805 98.9235 103.054 98.6457 102.388 98.0991C101.671 97.511 100.908 96.4859 100.222 94.782L94.656 97.0214ZM104.776 104.924C107.916 104.924 110.479 103.422 112.343 100.906C114.114 98.5158 115.276 95.2061 116.029 91.2743L110.136 90.1466C109.457 93.6901 108.52 95.987 107.522 97.3346C106.618 98.5558 105.743 98.9235 104.776 98.9235V104.924ZM116.029 91.2733C116.868 86.8818 117.259 80.5859 117.259 72.5066H111.259C111.259 80.4854 110.865 86.3254 110.135 90.1476L116.029 91.2733ZM117.259 72.5066V40.0441H111.259V72.5066H117.259ZM117.259 40.0441C117.259 34.2373 117.049 29.312 116.619 25.2929C116.193 21.3197 115.533 18.0428 114.539 15.6403L108.995 17.9344C109.662 19.5465 110.248 22.153 110.653 25.9321C111.053 29.6652 111.259 34.361 111.259 40.0441H117.259ZM114.555 15.6787C113.635 13.3655 112.399 11.3709 110.722 9.93822C108.988 8.45696 106.918 7.69635 104.638 7.69635V13.6964C105.495 13.6964 106.182 13.9509 106.825 14.5C107.524 15.0977 108.284 16.1486 108.979 17.8961L114.555 15.6787ZM104.638 7.69635C102.337 7.69635 100.248 8.46053 98.493 9.94791C96.7941 11.3879 95.5337 13.3959 94.5889 15.7317L100.151 17.9815C100.867 16.2105 101.649 15.1383 102.373 14.5249C103.04 13.9589 103.754 13.6964 104.638 13.6964V7.69635ZM94.5934 15.7207C93.6042 18.1386 92.9444 21.414 92.5183 25.3785C92.0877 29.386 91.8782 34.2826 91.8782 40.0441H97.8782C97.8782 34.408 98.084 29.7411 98.484 26.0195C98.8885 22.2548 99.4746 19.6353 100.147 17.9925L94.5934 15.7207ZM91.8782 40.0441V72.5066H97.8782V40.0441H91.8782ZM75.5905 56.9329C75.5905 40.4076 79.2856 28.0704 86.2665 19.5146L81.6176 15.7214C73.4631 25.7156 69.5905 39.5883 69.5905 56.9329H75.5905ZM86.2704 19.5098C91.8418 12.6526 97.9235 9.54337 104.568 9.54337V3.54337C95.7091 3.54337 88.0398 7.81718 81.6137 15.7262L86.2704 19.5098ZM104.568 9.54337C112.293 9.54337 118.993 13.3816 124.716 21.8576L129.689 18.5004C123.137 8.79559 114.748 3.54337 104.568 3.54337V9.54337ZM124.708 21.8459C130.531 30.5596 133.546 41.6603 133.546 55.3409H139.546C139.546 40.7812 136.332 28.4406 129.696 18.512L124.708 21.8459ZM133.546 55.3409C133.546 71.6158 130.093 83.8529 123.569 92.4234L128.343 96.0575C135.94 86.0781 139.546 72.3822 139.546 55.3409H133.546ZM123.572 92.4202C118.067 99.6321 111.781 102.938 104.638 102.938V108.938C114.014 108.938 121.941 104.446 128.341 96.0607L123.572 92.4202ZM104.638 102.938C99.4576 102.938 95.1932 101.435 91.6742 98.5093L87.8382 103.123C92.5329 107.026 98.1895 108.938 104.638 108.938V102.938ZM91.6742 98.5093C87.9034 95.374 84.6283 91.2835 81.8767 86.1734L76.5939 89.018C79.6565 94.7057 83.3953 99.4288 87.8382 103.123L91.6742 98.5093ZM81.869 86.1592C79.5571 81.9207 77.8991 77.0052 76.9315 71.3754L71.0182 72.3918C72.0809 78.5749 73.9299 84.1342 76.6016 89.0323L81.869 86.1592ZM76.9308 71.3713C76.3624 68.0921 75.908 63.2527 75.5869 56.7841L69.5942 57.0816C69.9191 63.6257 70.3876 68.7535 71.0189 72.396L76.9308 71.3713Z" fill="white"/>
<path d="M186.522 84.5584C186.522 82.3598 186.924 80.2952 187.729 78.3648C188.587 76.4343 189.713 74.7451 191.107 73.2972C192.555 71.8494 194.244 70.7232 196.175 69.9189C198.105 69.0609 200.17 68.6319 202.368 68.6319C204.567 68.6319 206.631 69.0609 208.562 69.9189C210.492 70.7232 212.155 71.8494 213.549 73.2972C214.997 74.7451 216.123 76.4343 216.927 78.3648C217.785 80.2952 218.214 82.3598 218.214 84.5584C218.214 86.757 217.785 88.8484 216.927 90.8325C216.123 92.763 214.997 94.4521 213.549 95.9C212.155 97.3479 210.492 98.5008 208.562 99.3588C206.631 100.163 204.567 100.565 202.368 100.565C200.17 100.565 198.105 100.163 196.175 99.3588C194.244 98.5008 192.555 97.3479 191.107 95.9C189.713 94.4521 188.587 92.763 187.729 90.8325C186.924 88.8484 186.522 86.757 186.522 84.5584ZM210.01 84.5584C210.01 82.4134 209.259 80.5902 207.757 79.0887C206.31 77.5872 204.513 76.8364 202.368 76.8364C200.223 76.8364 198.4 77.5872 196.898 79.0887C195.451 80.5902 194.727 82.4134 194.727 84.5584C194.727 86.757 195.451 88.6071 196.898 90.1085C198.4 91.61 200.223 92.3608 202.368 92.3608C204.513 92.3608 206.31 91.61 207.757 90.1085C209.259 88.6071 210.01 86.757 210.01 84.5584ZM146.062 57.612C146.062 55.4134 146.465 53.3489 147.269 51.4184C148.127 49.4879 149.253 47.7987 150.647 46.3509C152.095 44.903 153.784 43.7769 155.715 42.9725C157.645 42.1145 159.71 41.6855 161.908 41.6855C164.107 41.6855 166.172 42.1145 168.102 42.9725C170.033 43.7769 171.695 44.903 173.089 46.3509C174.537 47.7987 175.663 49.4879 176.467 51.4184C177.325 53.3489 177.754 55.4134 177.754 57.612C177.754 59.8106 177.325 61.8752 176.467 63.8057C175.663 65.7362 174.537 67.4253 173.089 68.8732C171.695 70.3211 170.033 71.474 168.102 72.332C166.172 73.1364 164.107 73.5385 161.908 73.5385C159.71 73.5385 157.645 73.1364 155.715 72.332C153.784 71.474 152.095 70.3211 150.647 68.8732C149.253 67.4253 148.127 65.7362 147.269 63.8057C146.465 61.8752 146.062 59.8106 146.062 57.612ZM169.55 57.612C169.55 55.467 168.799 53.6438 167.298 52.1423C165.85 50.6408 164.053 49.8901 161.908 49.8901C159.763 49.8901 157.94 50.6408 156.439 52.1423C154.991 53.6438 154.267 55.467 154.267 57.612C154.267 59.757 154.991 61.5802 156.439 63.0817C157.94 64.5832 159.763 65.334 161.908 65.334C164.053 65.334 165.85 64.5832 167.298 63.0817C168.799 61.5802 169.55 59.757 169.55 57.612ZM195.129 40.0768L201.886 43.8573L168.665 102.174L162.552 98.7153L195.129 40.0768Z" fill="#11376B"/>
<path d="M227.652 72.0315C227.652 67.371 228.419 63.1491 229.955 59.3659C231.545 55.5826 233.738 52.3751 236.534 49.7433C239.33 47.0566 242.648 45.0005 246.486 43.5749C250.324 42.1494 254.518 41.4366 259.069 41.4366C263.62 41.4366 267.814 42.1494 271.653 43.5749C275.491 45.0005 278.808 47.0566 281.604 49.7433C284.4 52.3751 286.566 55.5826 288.101 59.3659C289.691 63.1491 290.486 67.371 290.486 72.0315C290.486 76.692 289.691 80.9139 288.101 84.6971C286.566 88.4804 284.4 91.7153 281.604 94.402C278.808 97.0338 275.491 99.0625 271.653 100.488C267.814 101.914 263.62 102.626 259.069 102.626C254.518 102.626 250.324 101.914 246.486 100.488C242.648 99.0625 239.33 97.0338 236.534 94.402C233.738 91.7153 231.545 88.4804 229.955 84.6971C228.419 80.9139 227.652 76.692 227.652 72.0315ZM240.975 72.0315C240.975 74.773 241.387 77.2951 242.209 79.598C243.086 81.846 244.32 83.8198 245.91 85.5196C247.5 87.1645 249.392 88.4529 251.585 89.385C253.833 90.3172 256.328 90.7832 259.069 90.7832C261.811 90.7832 264.278 90.3172 266.471 89.385C268.719 88.4529 270.638 87.1645 272.228 85.5196C273.818 83.8198 275.025 81.846 275.847 79.598C276.724 77.2951 277.163 74.773 277.163 72.0315C277.163 69.3448 276.724 66.8501 275.847 64.5472C275.025 62.2444 273.818 60.2705 272.228 58.6257C270.638 56.9259 268.719 55.61 266.471 54.6779C264.278 53.7458 261.811 53.2798 259.069 53.2798C256.328 53.2798 253.833 53.7458 251.585 54.6779C249.392 55.61 247.5 56.9259 245.91 58.6257C244.32 60.2705 243.086 62.2444 242.209 64.5472C241.387 66.8501 240.975 69.3448 240.975 72.0315ZM299.7 42.917H338.767V54.7602H312.531V66.6034H336.793V78.4465H312.531V101.146H299.7V42.917ZM348.453 42.917H387.519V54.7602H361.283V66.6034H385.545V78.4465H361.283V101.146H348.453V42.917Z" fill="#11376B"/>
<path d="M9.94697 8.20456H68.8501L35.557 104H22.129L49.8156 28.6926C49.7694 28.1389 49.6541 27.7697 49.4695 27.5851H22.4059C17.9761 27.5851 14.7229 28.3004 12.6464 29.7309C10.6161 31.1613 8.79336 34.4837 7.17831 39.698H3.71749L9.94697 8.20456ZM94.8782 72.5066C94.9705 84.0426 95.8242 91.841 97.4392 95.9017C99.0543 99.9162 101.5 101.924 104.776 101.924C108.883 101.924 111.652 98.1858 113.082 90.7105C113.867 86.6036 114.259 80.5357 114.259 72.5066V40.0441C114.259 28.5542 113.428 20.8019 111.767 16.7874C110.152 12.7267 107.776 10.6964 104.638 10.6964C101.454 10.6964 99.0312 12.7498 97.37 16.8566C95.7088 20.9173 94.8782 28.6465 94.8782 40.0441V72.5066ZM72.5905 56.9329C72.5905 39.9979 76.3744 26.893 83.942 17.618C89.9408 10.2349 96.8163 6.54337 104.568 6.54337C113.52 6.54337 121.065 11.0886 127.202 20.179C133.432 29.5001 136.546 41.2208 136.546 55.3409C136.546 71.999 133.016 84.9655 125.956 94.2405C120.004 102.039 112.898 105.938 104.638 105.938C98.8235 105.938 93.863 104.231 89.7562 100.816C85.6494 97.4014 82.1424 92.9946 79.2353 87.5957C76.7435 83.0274 74.99 77.7901 73.9749 71.8836C73.375 68.4228 72.9136 63.4392 72.5905 56.9329Z" fill="#11376B"/>
</g>
</svg>
