<svg width="1463" height="210" viewBox="0 0 1463 210" fill="none" xmlns="http://www.w3.org/2000/svg">
<path opacity="0.6" d="M105.708 49.0047C102.489 45.0862 98.5008 42.0775 93.7427 39.9783C89.1246 37.8792 83.7368 36.8296 77.5793 36.8296C71.4218 36.8296 65.6841 38.0191 60.3663 40.3982C55.1884 42.7772 50.6402 46.1358 46.7218 50.4741C42.9433 54.6724 39.9346 59.7103 37.6955 65.5879C35.5963 71.4655 34.5467 77.833 34.5467 84.6902C34.5467 91.6873 35.5963 98.1247 37.6955 104.002C39.9346 109.74 42.9433 114.778 46.7218 119.116C50.5003 123.314 54.9085 126.603 59.9464 128.982C65.1243 131.361 70.6521 132.551 76.5297 132.551C83.247 132.551 89.1946 131.151 94.3725 128.352C99.5503 125.554 103.819 121.635 107.177 116.597L134.466 136.959C128.169 145.775 120.192 152.283 110.536 156.481C100.88 160.679 90.9438 162.778 80.728 162.778C69.1127 162.778 58.407 160.959 48.611 157.321C38.815 153.682 30.3484 148.504 23.2113 141.787C16.0742 134.93 10.4765 126.673 6.41816 117.017C2.49975 107.361 0.540545 96.5853 0.540545 84.6902C0.540545 72.795 2.49975 62.0194 6.41816 52.3633C10.4765 42.7072 16.0742 34.5205 23.2113 27.8033C30.3484 20.9461 38.815 15.6982 48.611 12.0597C58.407 8.42114 69.1127 6.60188 80.728 6.60188C84.9263 6.60188 89.2645 7.02171 93.7427 7.86136C98.3608 8.56108 102.839 9.7506 107.177 11.4299C111.655 13.1092 115.924 15.3483 119.982 18.1472C124.04 20.9461 127.679 24.3747 130.898 28.433L105.708 49.0047ZM212.254 146.195H211.835C208.336 151.653 203.648 155.571 197.77 157.95C192.033 160.329 185.945 161.519 179.508 161.519C174.75 161.519 170.131 160.819 165.653 159.42C161.315 158.16 157.467 156.201 154.108 153.542C150.749 150.883 148.09 147.595 146.131 143.676C144.172 139.758 143.192 135.21 143.192 130.032C143.192 124.154 144.242 119.186 146.341 115.128C148.58 111.069 151.519 107.711 155.158 105.052C158.936 102.393 163.204 100.364 167.962 98.9644C172.72 97.425 177.618 96.3055 182.656 95.6057C187.834 94.906 192.942 94.4862 197.98 94.3462C203.158 94.2063 207.916 94.1363 212.254 94.1363C212.254 88.5386 210.225 84.1304 206.167 80.9117C202.248 77.5531 197.56 75.8737 192.103 75.8737C186.925 75.8737 182.167 76.9933 177.828 79.2324C173.63 81.3315 169.852 84.2703 166.493 88.0488L149.7 70.8358C155.577 65.378 162.435 61.3197 170.271 58.6607C178.108 55.8619 186.225 54.4624 194.622 54.4624C203.858 54.4624 211.415 55.652 217.292 58.031C223.31 60.2701 228.068 63.6287 231.567 68.1069C235.205 72.5851 237.724 78.1128 239.123 84.6902C240.523 91.1276 241.223 98.6145 241.223 107.151V159H212.254V146.195ZM204.487 114.288C202.108 114.288 199.1 114.428 195.461 114.708C191.963 114.848 188.534 115.408 185.175 116.387C181.957 117.367 179.158 118.836 176.779 120.796C174.54 122.755 173.42 125.484 173.42 128.982C173.42 132.761 175.029 135.56 178.248 137.379C181.467 139.198 184.825 140.108 188.324 140.108C191.403 140.108 194.342 139.688 197.14 138.848C200.079 138.009 202.668 136.819 204.907 135.28C207.146 133.74 208.896 131.781 210.155 129.402C211.555 127.023 212.254 124.224 212.254 121.005V114.288H204.487ZM260.978 56.9814H292.465V73.3548H292.885C296.243 67.0573 300.232 62.3692 304.85 59.2905C309.468 56.0718 315.275 54.4624 322.273 54.4624C324.092 54.4624 325.911 54.5324 327.73 54.6724C329.55 54.8123 331.229 55.0922 332.768 55.512V84.2703C330.529 83.5706 328.29 83.0808 326.051 82.8009C323.952 82.3811 321.713 82.1712 319.334 82.1712C313.316 82.1712 308.558 83.0109 305.06 84.6902C301.561 86.3695 298.832 88.7485 296.873 91.8273C295.054 94.7661 293.864 98.3346 293.304 102.533C292.745 106.731 292.465 111.349 292.465 116.387V159H260.978V56.9814ZM439.331 141.367C434.293 147.805 427.926 152.773 420.229 156.271C412.532 159.77 404.555 161.519 396.299 161.519C388.462 161.519 381.045 160.259 374.048 157.741C367.191 155.222 361.173 151.653 355.995 147.035C350.957 142.277 346.969 136.609 344.03 130.032C341.091 123.454 339.622 116.107 339.622 107.991C339.622 99.874 341.091 92.527 344.03 85.9497C346.969 79.3723 350.957 73.7746 355.995 69.1565C361.173 64.3984 367.191 60.7599 374.048 58.2409C381.045 55.7219 388.462 54.4624 396.299 54.4624C403.576 54.4624 410.153 55.7219 416.031 58.2409C422.048 60.7599 427.086 64.3984 431.145 69.1565C435.343 73.7746 438.562 79.3723 440.801 85.9497C443.04 92.527 444.159 99.874 444.159 107.991V117.857H371.109C372.368 123.874 375.097 128.702 379.296 132.341C383.494 135.839 388.672 137.589 394.829 137.589C400.007 137.589 404.346 136.469 407.844 134.23C411.483 131.851 414.631 128.842 417.29 125.204L439.331 141.367ZM412.672 96.4454C412.812 91.1276 411.063 86.5794 407.424 82.8009C403.786 79.0225 399.098 77.1332 393.36 77.1332C389.861 77.1332 386.783 77.693 384.124 78.8126C381.465 79.9321 379.156 81.4015 377.197 83.2208C375.377 84.9001 373.908 86.9293 372.788 89.3083C371.809 91.5474 371.249 93.9264 371.109 96.4454H412.672ZM559.868 141.367C554.83 147.805 548.463 152.773 540.766 156.271C533.069 159.77 525.092 161.519 516.836 161.519C508.999 161.519 501.582 160.259 494.585 157.741C487.728 155.222 481.71 151.653 476.532 147.035C471.494 142.277 467.506 136.609 464.567 130.032C461.628 123.454 460.159 116.107 460.159 107.991C460.159 99.874 461.628 92.527 464.567 85.9497C467.506 79.3723 471.494 73.7746 476.532 69.1565C481.71 64.3984 487.728 60.7599 494.585 58.2409C501.582 55.7219 508.999 54.4624 516.836 54.4624C524.113 54.4624 530.69 55.7219 536.568 58.2409C542.585 60.7599 547.623 64.3984 551.682 69.1565C555.88 73.7746 559.099 79.3723 561.338 85.9497C563.577 92.527 564.696 99.874 564.696 107.991V117.857H491.646C492.905 123.874 495.634 128.702 499.833 132.341C504.031 135.839 509.209 137.589 515.366 137.589C520.544 137.589 524.882 136.469 528.381 134.23C532.02 131.851 535.168 128.842 537.827 125.204L559.868 141.367ZM533.209 96.4454C533.349 91.1276 531.6 86.5794 527.961 82.8009C524.323 79.0225 519.635 77.1332 513.897 77.1332C510.398 77.1332 507.32 77.693 504.661 78.8126C502.002 79.9321 499.693 81.4015 497.734 83.2208C495.914 84.9001 494.445 86.9293 493.325 89.3083C492.346 91.5474 491.786 93.9264 491.646 96.4454H533.209ZM583.844 56.9814H615.332V73.3548H615.752C619.11 67.0573 623.099 62.3692 627.717 59.2905C632.335 56.0718 638.142 54.4624 645.14 54.4624C646.959 54.4624 648.778 54.5324 650.597 54.6724C652.417 54.8123 654.096 55.0922 655.635 55.512V84.2703C653.396 83.5706 651.157 83.0808 648.918 82.8009C646.819 82.3811 644.58 82.1712 642.201 82.1712C636.183 82.1712 631.425 83.0109 627.927 84.6902C624.428 86.3695 621.699 88.7485 619.74 91.8273C617.921 94.7661 616.731 98.3346 616.171 102.533C615.612 106.731 615.332 111.349 615.332 116.387V159H583.844V56.9814ZM832.62 49.0047C829.401 45.0862 825.413 42.0775 820.655 39.9783C816.036 37.8792 810.649 36.8296 804.491 36.8296C798.334 36.8296 792.596 38.0191 787.278 40.3982C782.1 42.7772 777.552 46.1358 773.634 50.4741C769.855 54.6724 766.846 59.7103 764.607 65.5879C762.508 71.4655 761.459 77.833 761.459 84.6902C761.459 91.6873 762.508 98.1247 764.607 104.002C766.846 109.74 769.855 114.778 773.634 119.116C777.412 123.314 781.82 126.603 786.858 128.982C792.036 131.361 797.564 132.551 803.442 132.551C810.159 132.551 816.106 131.151 821.284 128.352C826.462 125.554 830.73 121.635 834.089 116.597L861.378 136.959C855.081 145.775 847.104 152.283 837.448 156.481C827.792 160.679 817.856 162.778 807.64 162.778C796.025 162.778 785.319 160.959 775.523 157.321C765.727 153.682 757.26 148.504 750.123 141.787C742.986 134.93 737.388 126.673 733.33 117.017C729.412 107.361 727.452 96.5853 727.452 84.6902C727.452 72.795 729.412 62.0194 733.33 52.3633C737.388 42.7072 742.986 34.5205 750.123 27.8033C757.26 20.9461 765.727 15.6982 775.523 12.0597C785.319 8.42114 796.025 6.60188 807.64 6.60188C811.838 6.60188 816.176 7.02171 820.655 7.86136C825.273 8.56108 829.751 9.7506 834.089 11.4299C838.567 13.1092 842.836 15.3483 846.894 18.1472C850.952 20.9461 854.591 24.3747 857.809 28.433L832.62 49.0047ZM906.629 0.304429V70.8358H907.049C907.749 68.8766 908.938 66.9174 910.618 64.9582C912.297 62.999 914.326 61.2497 916.705 59.7103C919.084 58.1709 921.883 56.9114 925.102 55.9318C928.321 54.9522 931.819 54.4624 935.598 54.4624C943.574 54.4624 950.012 55.7219 954.91 58.2409C959.808 60.6199 963.586 63.9786 966.245 68.3168C969.044 72.6551 970.933 77.763 971.913 83.6406C972.893 89.5182 973.382 95.8856 973.382 102.743V159H941.895V109.04C941.895 106.101 941.755 103.093 941.475 100.014C941.335 96.7953 940.706 93.8564 939.586 91.1975C938.606 88.5386 936.997 86.3695 934.758 84.6902C932.659 83.0109 929.58 82.1712 925.522 82.1712C921.463 82.1712 918.175 82.9409 915.656 84.4803C913.137 85.8797 911.178 87.8389 909.778 90.3579C908.519 92.7369 907.679 95.4658 907.259 98.5445C906.839 101.623 906.629 104.842 906.629 108.201V159H875.142V0.304429H906.629ZM1059.7 146.195H1059.28C1055.78 151.653 1051.1 155.571 1045.22 157.95C1039.48 160.329 1033.39 161.519 1026.96 161.519C1022.2 161.519 1017.58 160.819 1013.1 159.42C1008.76 158.16 1004.92 156.201 1001.56 153.542C998.198 150.883 995.539 147.595 993.58 143.676C991.621 139.758 990.641 135.21 990.641 130.032C990.641 124.154 991.691 119.186 993.79 115.128C996.029 111.069 998.968 107.711 1002.61 105.052C1006.38 102.393 1010.65 100.364 1015.41 98.9644C1020.17 97.425 1025.07 96.3055 1030.11 95.6057C1035.28 94.906 1040.39 94.4862 1045.43 94.3462C1050.61 94.2063 1055.36 94.1363 1059.7 94.1363C1059.7 88.5386 1057.67 84.1304 1053.62 80.9117C1049.7 77.5531 1045.01 75.8737 1039.55 75.8737C1034.37 75.8737 1029.62 76.9933 1025.28 79.2324C1021.08 81.3315 1017.3 84.2703 1013.94 88.0488L997.149 70.8358C1003.03 65.378 1009.88 61.3197 1017.72 58.6607C1025.56 55.8619 1033.67 54.4624 1042.07 54.4624C1051.31 54.4624 1058.86 55.652 1064.74 58.031C1070.76 60.2701 1075.52 63.6287 1079.02 68.1069C1082.65 72.5851 1085.17 78.1128 1086.57 84.6902C1087.97 91.1276 1088.67 98.6145 1088.67 107.151V159H1059.7V146.195ZM1051.94 114.288C1049.56 114.288 1046.55 114.428 1042.91 114.708C1039.41 114.848 1035.98 115.408 1032.62 116.387C1029.41 117.367 1026.61 118.836 1024.23 120.796C1021.99 122.755 1020.87 125.484 1020.87 128.982C1020.87 132.761 1022.48 135.56 1025.7 137.379C1028.92 139.198 1032.27 140.108 1035.77 140.108C1038.85 140.108 1041.79 139.688 1044.59 138.848C1047.53 138.009 1050.12 136.819 1052.36 135.28C1054.6 133.74 1056.34 131.781 1057.6 129.402C1059 127.023 1059.7 124.224 1059.7 121.005V114.288H1051.94ZM1108.43 56.9814H1138.65V70.8358H1139.07C1140.05 68.8766 1141.45 66.9174 1143.27 64.9582C1145.09 62.999 1147.26 61.2497 1149.78 59.7103C1152.3 58.1709 1155.17 56.9114 1158.39 55.9318C1161.6 54.9522 1165.1 54.4624 1168.88 54.4624C1176.86 54.4624 1183.3 55.7219 1188.19 58.2409C1193.09 60.6199 1196.87 63.9786 1199.53 68.3168C1202.33 72.6551 1204.22 77.763 1205.2 83.6406C1206.18 89.5182 1206.67 95.8856 1206.67 102.743V159H1175.18V109.04C1175.18 106.101 1175.04 103.093 1174.76 100.014C1174.62 96.7953 1173.99 93.8564 1172.87 91.1975C1171.89 88.5386 1170.28 86.3695 1168.04 84.6902C1165.94 83.0109 1162.86 82.1712 1158.81 82.1712C1154.75 82.1712 1151.46 82.9409 1148.94 84.4803C1146.42 85.8797 1144.46 87.8389 1143.06 90.3579C1141.8 92.7369 1140.96 95.4658 1140.54 98.5445C1140.12 101.623 1139.91 104.842 1139.91 108.201V159H1108.43V56.9814ZM1336.02 150.393C1336.02 169.706 1331.12 184.33 1321.33 194.266C1311.67 204.342 1296.91 209.38 1277.03 209.38C1267.94 209.38 1258.98 208.33 1250.16 206.231C1241.35 204.272 1233.23 200.353 1225.81 194.476L1243.24 168.446C1248.14 172.505 1253.24 175.723 1258.56 178.102C1264.02 180.481 1269.97 181.671 1276.4 181.671C1286.06 181.671 1293.13 179.292 1297.61 174.534C1302.22 169.916 1304.53 163.968 1304.53 156.691V146.825H1304.11C1300.47 151.723 1295.93 155.222 1290.47 157.321C1285.15 159.28 1280.11 160.259 1275.35 160.259C1267.8 160.259 1260.94 159 1254.78 156.481C1248.63 153.822 1243.31 150.184 1238.83 145.565C1234.49 140.807 1231.13 135.21 1228.75 128.772C1226.37 122.335 1225.18 115.268 1225.18 107.571C1225.18 100.854 1226.23 94.2763 1228.33 87.8389C1230.57 81.4015 1233.65 75.7338 1237.57 70.8358C1241.63 65.9378 1246.53 62.0194 1252.26 59.0806C1258 56.0018 1264.51 54.4624 1271.79 54.4624C1276.26 54.4624 1280.32 54.9522 1283.96 55.9318C1287.74 56.9114 1291.1 58.1709 1294.04 59.7103C1296.98 61.2497 1299.49 62.999 1301.59 64.9582C1303.69 66.7774 1305.37 68.5967 1306.63 70.416H1307.05V56.9814H1336.02V150.393ZM1256.67 107.361C1256.67 110.72 1257.3 113.938 1258.56 117.017C1259.82 119.956 1261.57 122.615 1263.81 124.994C1266.19 127.233 1268.85 129.052 1271.79 130.452C1274.86 131.851 1278.22 132.551 1281.86 132.551C1285.36 132.551 1288.65 131.851 1291.73 130.452C1294.81 129.052 1297.47 127.233 1299.7 124.994C1302.08 122.615 1303.9 119.956 1305.16 117.017C1306.42 113.938 1307.05 110.72 1307.05 107.361C1307.05 104.002 1306.42 100.854 1305.16 97.9148C1303.9 94.836 1302.08 92.1771 1299.7 89.938C1297.47 87.559 1294.81 85.6698 1291.73 84.2703C1288.65 82.8709 1285.36 82.1712 1281.86 82.1712C1278.22 82.1712 1274.86 82.8709 1271.79 84.2703C1268.85 85.6698 1266.19 87.559 1263.81 89.938C1261.57 92.1771 1259.82 94.836 1258.56 97.9148C1257.3 100.854 1256.67 104.002 1256.67 107.361ZM1457.75 141.367C1452.71 147.805 1446.34 152.773 1438.64 156.271C1430.95 159.77 1422.97 161.519 1414.71 161.519C1406.88 161.519 1399.46 160.259 1392.46 157.741C1385.61 155.222 1379.59 151.653 1374.41 147.035C1369.37 142.277 1365.38 136.609 1362.44 130.032C1359.51 123.454 1358.04 116.107 1358.04 107.991C1358.04 99.874 1359.51 92.527 1362.44 85.9497C1365.38 79.3723 1369.37 73.7746 1374.41 69.1565C1379.59 64.3984 1385.61 60.7599 1392.46 58.2409C1399.46 55.7219 1406.88 54.4624 1414.71 54.4624C1421.99 54.4624 1428.57 55.7219 1434.45 58.2409C1440.46 60.7599 1445.5 64.3984 1449.56 69.1565C1453.76 73.7746 1456.98 79.3723 1459.22 85.9497C1461.45 92.527 1462.57 99.874 1462.57 107.991V117.857H1389.52C1390.78 123.874 1393.51 128.702 1397.71 132.341C1401.91 135.839 1407.09 137.589 1413.24 137.589C1418.42 137.589 1422.76 136.469 1426.26 134.23C1429.9 131.851 1433.05 128.842 1435.7 125.204L1457.75 141.367ZM1431.09 96.4454C1431.23 91.1276 1429.48 86.5794 1425.84 82.8009C1422.2 79.0225 1417.51 77.1332 1411.77 77.1332C1408.28 77.1332 1405.2 77.693 1402.54 78.8126C1399.88 79.9321 1397.57 81.4015 1395.61 83.2208C1393.79 84.9001 1392.32 86.9293 1391.2 89.3083C1390.22 91.5474 1389.66 93.9264 1389.52 96.4454H1431.09Z" fill="#E9EEF6"/>
</svg>
