<svg width="56" height="384" viewBox="0 0 56 384" fill="none" xmlns="http://www.w3.org/2000/svg">
<path opacity="0.6" d="M42.8477 27.7465C43.8754 26.9024 44.6645 25.8564 45.215 24.6085C45.7656 23.3973 46.0408 21.9843 46.0408 20.3694C46.0408 18.7545 45.7289 17.2497 45.1049 15.8551C44.481 14.4971 43.6001 13.3043 42.4624 12.2766C41.3613 11.2857 40.04 10.4966 38.4986 9.90935C36.9571 9.35882 35.2871 9.08356 33.4887 9.08356C31.6536 9.08356 29.9654 9.35882 28.4239 9.90935C26.9191 10.4966 25.5978 11.2857 24.4601 12.2766C23.359 13.2676 22.4965 14.4237 21.8726 15.745C21.2486 17.1029 20.9367 18.5527 20.9367 20.0942C20.9367 21.8558 21.3037 23.4157 22.0377 24.7737C22.7718 26.1316 23.7994 27.251 25.1207 28.1319L19.7806 35.2888C17.4683 33.6372 15.7617 31.5452 14.6606 29.0127C13.5596 26.4803 13.009 23.8745 13.009 21.1952C13.009 18.1489 13.4862 15.3412 14.4404 12.7721C15.3947 10.203 16.7526 7.9825 18.5143 6.1107C20.3127 4.2389 22.4782 2.77082 25.0106 1.70646C27.543 0.678809 30.3691 0.164981 33.4887 0.164981C36.6084 0.164982 39.4345 0.678809 41.9669 1.70646C44.4993 2.77082 46.6464 4.2389 48.4081 6.1107C50.2065 7.9825 51.5828 10.203 52.5371 12.7721C53.4913 15.3412 53.9684 18.1489 53.9684 21.1952C53.9684 22.2963 53.8583 23.434 53.6381 24.6085C53.4546 25.8197 53.1426 26.9941 52.7022 28.1319C52.2618 29.3063 51.6746 30.4258 50.9405 31.4901C50.2065 32.5545 49.3073 33.5087 48.2429 34.3529L42.8477 27.7465ZM17.3582 55.6898L17.3582 55.5796C15.9269 54.6621 14.8992 53.4326 14.2753 51.8911C13.6513 50.3863 13.3394 48.7898 13.3394 47.1015C13.3394 45.8536 13.5229 44.6425 13.8899 43.468C14.2202 42.3302 14.734 41.3209 15.4314 40.4401C16.1287 39.5592 16.9912 38.8619 18.0189 38.3481C19.0465 37.8342 20.2393 37.5773 21.5973 37.5773C23.1388 37.5773 24.4417 37.8526 25.5061 38.4031C26.5704 38.9904 27.4513 39.7611 28.1486 40.7154C28.8459 41.7063 29.3781 42.8257 29.7451 44.0736C30.1489 45.3215 30.4425 46.606 30.626 47.9273C30.8095 49.2853 30.9196 50.6249 30.9563 51.9462C30.993 53.3041 31.0114 54.552 31.0114 55.6898C32.4794 55.6898 33.6356 55.1576 34.4797 54.0932C35.3605 53.0656 35.801 51.8361 35.801 50.4047C35.801 49.0467 35.5074 47.7988 34.9201 46.6611C34.3696 45.56 33.5988 44.5691 32.6079 43.6882L37.1222 39.284C38.5536 40.8255 39.618 42.6239 40.3153 44.6792C41.0493 46.7345 41.4164 48.8632 41.4164 51.0653C41.4164 53.4876 41.1044 55.4695 40.4805 57.011C39.8932 58.5892 39.0124 59.8371 37.8379 60.7546C36.6635 61.7089 35.2137 62.3695 33.4887 62.7365C31.8005 63.1036 29.8369 63.2871 27.5981 63.2871L14 63.2871L14 55.6898L17.3582 55.6898ZM25.7263 53.6528C25.7263 53.0289 25.6896 52.2398 25.6162 51.2855C25.5795 50.368 25.4327 49.4688 25.1757 48.5879C24.9188 47.7438 24.5335 47.0097 24.0196 46.3858C23.5058 45.7986 22.7901 45.505 21.8726 45.505C20.8816 45.505 20.1476 45.927 19.6705 46.7712C19.1933 47.6153 18.9548 48.4962 18.9548 49.4137C18.9548 50.2212 19.0649 50.9919 19.2851 51.7259C19.5053 52.4967 19.8173 53.1757 20.221 53.7629C20.6247 54.3501 21.1385 54.8089 21.7625 55.1392C22.3864 55.5062 23.1204 55.6898 23.9646 55.6898L25.7263 55.6898L25.7263 53.6528ZM40.7557 68.4681L40.7557 76.726L36.4616 76.726L36.4616 76.8361C38.1132 77.717 39.3427 78.763 40.1501 79.9741C40.9943 81.1853 41.4164 82.7084 41.4164 84.5435C41.4164 85.0206 41.398 85.4978 41.3613 85.9749C41.3246 86.452 41.2512 86.8924 41.1411 87.2962L33.5988 87.2962C33.7824 86.7089 33.9108 86.1217 33.9842 85.5345C34.0943 84.9839 34.1494 84.3967 34.1494 83.7728C34.1494 82.1946 33.9292 80.9467 33.4887 80.0292C33.0483 79.1116 32.4244 78.3959 31.6169 77.8821C30.8462 77.405 29.9103 77.093 28.8092 76.9462C27.7082 76.7994 26.497 76.726 25.1757 76.726L14 76.726L14 68.4681L40.7557 68.4681ZM18.6244 115.244C16.9362 113.922 15.6332 112.253 14.7157 110.234C13.7981 108.215 13.3394 106.123 13.3394 103.958C13.3394 101.903 13.6697 99.9573 14.3303 98.1223C14.9909 96.3239 15.9268 94.7457 17.138 93.3877C18.3859 92.0664 19.8723 91.0204 21.5973 90.2497C23.3223 89.4789 25.2491 89.0936 27.3779 89.0936C29.5066 89.0936 31.4334 89.4789 33.1584 90.2497C34.8834 91.0204 36.3515 92.0664 37.5627 93.3877C38.8105 94.7457 39.7648 96.3239 40.4254 98.1223C41.086 99.9574 41.4164 101.903 41.4164 103.958C41.4164 105.866 41.086 107.591 40.4254 109.133C39.7648 110.711 38.8105 112.032 37.5627 113.097C36.3515 114.198 34.8834 115.042 33.1584 115.629C31.4334 116.216 29.5066 116.51 27.3779 116.51L24.7904 116.51L24.7904 97.3515C23.2122 97.6818 21.946 98.3975 20.9917 99.4986C20.0742 100.6 19.6154 101.958 19.6154 103.572C19.6154 104.93 19.909 106.068 20.4962 106.986C21.1202 107.94 21.9093 108.766 22.8635 109.463L18.6244 115.244ZM30.4058 108.252C31.8005 108.289 32.9933 107.83 33.9842 106.876C34.9752 105.921 35.4706 104.692 35.4706 103.187C35.4706 102.27 35.3238 101.462 35.0302 100.765C34.7366 100.067 34.3512 99.4619 33.8741 98.948C33.4337 98.4709 32.9015 98.0855 32.2776 97.7919C31.6903 97.535 31.0664 97.3882 30.4058 97.3515L30.4058 108.252ZM18.6244 146.856C16.9362 145.535 15.6332 143.865 14.7157 141.846C13.7981 139.828 13.3394 137.736 13.3394 135.57C13.3394 133.515 13.6697 131.57 14.3303 129.735C14.9909 127.936 15.9268 126.358 17.138 125C18.3859 123.679 19.8723 122.633 21.5973 121.862C23.3223 121.091 25.2491 120.706 27.3779 120.706C29.5066 120.706 31.4334 121.091 33.1584 121.862C34.8834 122.633 36.3515 123.679 37.5627 125C38.8105 126.358 39.7648 127.936 40.4254 129.735C41.086 131.57 41.4164 133.515 41.4164 135.57C41.4164 137.479 41.086 139.204 40.4254 140.745C39.7648 142.323 38.8105 143.645 37.5627 144.709C36.3515 145.81 34.8834 146.654 33.1584 147.242C31.4334 147.829 29.5066 148.122 27.3779 148.122L24.7904 148.122L24.7904 128.964C23.2122 129.294 21.946 130.01 20.9917 131.111C20.0742 132.212 19.6154 133.57 19.6154 135.185C19.6154 136.543 19.909 137.681 20.4962 138.598C21.1202 139.552 21.9093 140.378 22.8635 141.076L18.6244 146.856ZM30.4058 139.864C31.8004 139.901 32.9933 139.442 33.9842 138.488C34.9752 137.534 35.4706 136.304 35.4706 134.8C35.4706 133.882 35.3238 133.075 35.0302 132.377C34.7366 131.68 34.3512 131.074 33.8741 130.56C33.4337 130.083 32.9015 129.698 32.2776 129.404C31.6903 129.147 31.0664 129.001 30.4058 128.964L30.4058 139.864ZM40.7557 153.144L40.7557 161.402L36.4616 161.402L36.4616 161.512C38.1132 162.393 39.3427 163.439 40.1501 164.65C40.9943 165.861 41.4164 167.385 41.4164 169.22C41.4164 169.697 41.398 170.174 41.3613 170.651C41.3246 171.128 41.2512 171.569 41.1411 171.972L33.5988 171.972C33.7824 171.385 33.9108 170.798 33.9842 170.211C34.0943 169.66 34.1494 169.073 34.1494 168.449C34.1494 166.871 33.9292 165.623 33.4887 164.705C33.0483 163.788 32.4244 163.072 31.6169 162.558C30.8462 162.081 29.9103 161.769 28.8092 161.622C27.7082 161.476 26.497 161.402 25.1757 161.402L14 161.402L14 153.144L40.7557 153.144ZM42.8477 218.389C43.8754 217.545 44.6645 216.499 45.215 215.251C45.7655 214.04 46.0408 212.627 46.0408 211.012C46.0408 209.397 45.7288 207.892 45.1049 206.497C44.481 205.139 43.6001 203.947 42.4624 202.919C41.3613 201.928 40.04 201.139 38.4986 200.552C36.9571 200.001 35.2871 199.726 33.4887 199.726C31.6536 199.726 29.9653 200.001 28.4239 200.552C26.9191 201.139 25.5978 201.928 24.4601 202.919C23.359 203.91 22.4965 205.066 21.8726 206.387C21.2486 207.745 20.9367 209.195 20.9367 210.737C20.9367 212.498 21.3037 214.058 22.0377 215.416C22.7718 216.774 23.7994 217.893 25.1207 218.774L19.7806 225.931C17.4683 224.28 15.7617 222.188 14.6606 219.655C13.5596 217.123 13.009 214.517 13.009 211.838C13.009 208.791 13.4862 205.984 14.4404 203.414C15.3947 200.845 16.7526 198.625 18.5143 196.753C20.3127 194.881 22.4781 193.413 25.0106 192.349C27.543 191.321 30.3691 190.807 33.4887 190.807C36.6084 190.807 39.4345 191.321 41.9669 192.349C44.4993 193.413 46.6464 194.881 48.4081 196.753C50.2065 198.625 51.5828 200.845 52.5371 203.414C53.4913 205.984 53.9684 208.791 53.9684 211.838C53.9684 212.939 53.8583 214.076 53.6381 215.251C53.4546 216.462 53.1426 217.636 52.7022 218.774C52.2618 219.949 51.6746 221.068 50.9405 222.132C50.2065 223.197 49.3073 224.151 48.2429 224.995L42.8477 218.389ZM55.62 237.799L37.1222 237.799L37.1222 237.909C37.6361 238.093 38.1499 238.404 38.6637 238.845C39.1775 239.285 39.6363 239.818 40.04 240.441C40.4438 241.065 40.7741 241.799 41.031 242.644C41.2879 243.488 41.4164 244.405 41.4164 245.396C41.4164 247.488 41.086 249.177 40.4254 250.461C39.8015 251.746 38.9206 252.737 37.7829 253.434C36.6451 254.168 35.3055 254.663 33.764 254.92C32.2225 255.177 30.5526 255.306 28.7542 255.306L14 255.306L14 247.048L27.1026 247.048C27.8733 247.048 28.6624 247.011 29.4699 246.938C30.314 246.901 31.0848 246.736 31.7821 246.442C32.4794 246.185 33.0483 245.763 33.4887 245.176C33.9292 244.625 34.1494 243.818 34.1494 242.754C34.1494 241.689 33.9475 240.827 33.5438 240.166C33.1768 239.506 32.6629 238.992 32.0023 238.625C31.3784 238.294 30.6627 238.074 29.8552 237.964C29.0478 237.854 28.2037 237.799 27.3228 237.799L14 237.799L14 229.541L55.62 229.541L55.62 237.799ZM17.3582 277.945L17.3582 277.834C15.9268 276.917 14.8992 275.687 14.2753 274.146C13.6513 272.641 13.3394 271.045 13.3394 269.356C13.3394 268.108 13.5229 266.897 13.8899 265.723C14.2202 264.585 14.734 263.576 15.4314 262.695C16.1287 261.814 16.9912 261.117 18.0189 260.603C19.0465 260.089 20.2393 259.832 21.5973 259.832C23.1388 259.832 24.4417 260.107 25.5061 260.658C26.5704 261.245 27.4513 262.016 28.1486 262.97C28.8459 263.961 29.3781 265.081 29.7451 266.328C30.1489 267.576 30.4425 268.861 30.626 270.182C30.8095 271.54 30.9196 272.88 30.9563 274.201C30.993 275.559 31.0114 276.807 31.0114 277.945C32.4794 277.945 33.6355 277.412 34.4797 276.348C35.3605 275.32 35.801 274.091 35.801 272.659C35.801 271.301 35.5073 270.054 34.9201 268.916C34.3696 267.815 33.5988 266.824 32.6079 265.943L37.1222 261.539C38.5536 263.08 39.618 264.879 40.3153 266.934C41.0493 268.989 41.4164 271.118 41.4164 273.32C41.4164 275.742 41.1044 277.724 40.4805 279.266C39.8932 280.844 39.0124 282.092 37.8379 283.009C36.6635 283.964 35.2137 284.624 33.4887 284.991C31.8004 285.358 29.8369 285.542 27.5981 285.542L14 285.542L14 277.945L17.3582 277.945ZM25.7263 275.908C25.7263 275.284 25.6896 274.495 25.6162 273.54C25.5795 272.623 25.4327 271.724 25.1757 270.843C24.9188 269.999 24.5335 269.265 24.0196 268.641C23.5058 268.053 22.7901 267.76 21.8726 267.76C20.8816 267.76 20.1476 268.182 19.6704 269.026C19.1933 269.87 18.9548 270.751 18.9548 271.669C18.9548 272.476 19.0649 273.247 19.2851 273.981C19.5053 274.751 19.8173 275.43 20.221 276.018C20.6247 276.605 21.1385 277.064 21.7625 277.394C22.3864 277.761 23.1204 277.945 23.9646 277.945L25.7263 277.945L25.7263 275.908ZM40.7557 290.723L40.7557 298.65L37.1222 298.65L37.1222 298.761C37.6361 299.018 38.1499 299.385 38.6637 299.862C39.1775 300.339 39.6363 300.908 40.04 301.568C40.4438 302.229 40.7741 302.981 41.031 303.825C41.2879 304.67 41.4164 305.587 41.4164 306.578C41.4164 308.67 41.086 310.358 40.4254 311.643C39.8015 312.928 38.9206 313.919 37.7829 314.616C36.6451 315.35 35.3055 315.845 33.764 316.102C32.2225 316.359 30.5526 316.488 28.7542 316.488L14 316.488L14 308.23L27.1026 308.23C27.8733 308.23 28.6624 308.193 29.4699 308.12C30.314 308.083 31.0848 307.918 31.7821 307.624C32.4794 307.367 33.0483 306.945 33.4887 306.358C33.9292 305.807 34.1494 305 34.1494 303.936C34.1494 302.871 33.9475 302.009 33.5438 301.348C33.1768 300.687 32.6629 300.174 32.0023 299.807C31.3784 299.476 30.6627 299.256 29.8552 299.146C29.0478 299.036 28.2036 298.981 27.3228 298.981L14 298.981L14 290.723L40.7557 290.723ZM16.2572 350.412C11.1923 350.412 7.35693 349.128 4.75109 346.559C2.10855 344.026 0.787276 340.154 0.787276 334.942C0.787276 332.557 1.06254 330.208 1.61307 327.896C2.1269 325.583 3.15455 323.455 4.69604 321.509L11.5226 326.079C10.4582 327.363 9.6141 328.703 8.99017 330.098C8.36623 331.529 8.05427 333.089 8.05427 334.777C8.05427 337.31 8.6782 339.163 9.92607 340.338C11.1372 341.549 12.6971 342.154 14.6056 342.154L17.1931 342.154L17.1931 342.044C15.9085 341.09 14.9909 339.897 14.4404 338.466C13.9266 337.071 13.6697 335.75 13.6697 334.502C13.6697 332.52 14 330.722 14.6606 329.107C15.358 327.492 16.3122 326.097 17.5234 324.923C18.7712 323.785 20.2393 322.904 21.9276 322.28C23.6159 321.656 25.4694 321.344 27.488 321.344C29.2497 321.344 30.9746 321.62 32.6629 322.17C34.3512 322.757 35.8377 323.565 37.1222 324.592C38.4068 325.657 39.4345 326.941 40.2052 328.446C41.0126 329.951 41.4164 331.658 41.4164 333.566C41.4164 334.741 41.2879 335.805 41.031 336.759C40.7741 337.75 40.4438 338.631 40.04 339.402C39.6363 340.172 39.1775 340.833 38.6637 341.384C38.1866 341.934 37.7095 342.375 37.2323 342.705L37.2323 342.815L40.7557 342.815L40.7557 350.412L16.2572 350.412ZM27.543 329.602C26.6622 329.602 25.818 329.767 25.0106 330.098C24.2398 330.428 23.5425 330.887 22.9186 331.474C22.3313 332.098 21.8542 332.795 21.4872 333.566C21.1202 334.374 20.9367 335.254 20.9367 336.209C20.9367 337.126 21.1202 337.989 21.4872 338.796C21.8542 339.604 22.3313 340.301 22.9186 340.888C23.5425 341.512 24.2398 341.989 25.0106 342.32C25.818 342.65 26.6622 342.815 27.543 342.815C28.4239 342.815 29.2497 342.65 30.0204 342.32C30.8278 341.989 31.5252 341.512 32.1124 340.888C32.7363 340.301 33.2318 339.604 33.5988 338.796C33.9659 337.989 34.1494 337.126 34.1494 336.209C34.1494 335.254 33.9659 334.374 33.5988 333.566C33.2318 332.795 32.7363 332.098 32.1124 331.474C31.5252 330.887 30.8278 330.428 30.0204 330.098C29.2497 329.767 28.4239 329.602 27.543 329.602ZM18.6244 382.337C16.9361 381.015 15.6332 379.345 14.7157 377.327C13.7981 375.308 13.3393 373.216 13.3393 371.051C13.3393 368.995 13.6697 367.05 14.3303 365.215C14.9909 363.417 15.9268 361.839 17.138 360.481C18.3859 359.159 19.8723 358.113 21.5973 357.343C23.3223 356.572 25.2491 356.186 27.3779 356.186C29.5066 356.186 31.4334 356.572 33.1584 357.343C34.8834 358.113 36.3515 359.159 37.5626 360.481C38.8105 361.839 39.7648 363.417 40.4254 365.215C41.086 367.05 41.4164 368.995 41.4164 371.051C41.4164 372.959 41.086 374.684 40.4254 376.226C39.7648 377.804 38.8105 379.125 37.5626 380.189C36.3515 381.291 34.8834 382.135 33.1584 382.722C31.4334 383.309 29.5066 383.603 27.3779 383.603L24.7904 383.603L24.7904 364.444C23.2122 364.775 21.946 365.49 20.9917 366.591C20.0742 367.692 19.6154 369.05 19.6154 370.665C19.6154 372.023 19.909 373.161 20.4962 374.079C21.1202 375.033 21.9093 375.859 22.8635 376.556L18.6244 382.337ZM30.4058 375.345C31.8004 375.382 32.9933 374.923 33.9842 373.969C34.9752 373.014 35.4706 371.785 35.4706 370.28C35.4706 369.362 35.3238 368.555 35.0302 367.858C34.7366 367.16 34.3512 366.555 33.8741 366.041C33.4337 365.564 32.9015 365.178 32.2776 364.885C31.6903 364.628 31.0664 364.481 30.4058 364.444L30.4058 375.345Z" fill="#E9EEF6"/>
</svg>
