<svg width="1503" height="197" viewBox="0 0 1503 197" fill="none" xmlns="http://www.w3.org/2000/svg">
<path d="M97.9862 47.8407C94.9968 44.2015 91.2925 41.4071 86.8734 39.4575C82.5843 37.5079 77.5803 36.5331 71.8615 36.5331C66.1427 36.5331 60.8137 37.6378 55.8747 39.8474C51.0657 42.0569 46.8416 45.1763 43.2023 49.2055C39.693 53.1047 36.8986 57.7837 34.819 63.2426C32.8694 68.7015 31.8946 74.6153 31.8946 80.984C31.8946 87.4827 32.8694 93.4615 34.819 98.9204C36.8986 104.249 39.693 108.928 43.2023 112.958C46.7116 116.857 50.8058 119.911 55.4848 122.121C60.2938 124.33 65.4278 125.435 70.8867 125.435C77.1254 125.435 82.6493 124.135 87.4583 121.536C92.2673 118.936 96.2315 115.297 99.3509 110.618L124.696 129.529C118.847 137.717 111.438 143.761 102.47 147.66C93.5021 151.56 84.274 153.509 74.7859 153.509C63.9981 153.509 54.0551 151.82 44.957 148.44C35.8588 145.061 27.9954 140.252 21.3667 134.013C14.7381 127.645 9.53915 119.976 5.76992 111.008C2.13066 102.04 0.311027 92.0318 0.311027 80.984C0.311027 69.9363 2.13066 59.9283 5.76992 50.9601C9.53915 41.9919 14.7381 34.3885 21.3667 28.1498C27.9954 21.781 35.8588 16.907 44.957 13.5277C54.0551 10.1484 63.9981 8.45876 74.7859 8.45876C78.6851 8.45876 82.7143 8.84868 86.8734 9.62851C91.1626 10.2784 95.3217 11.3832 99.3509 12.9428C103.51 14.5025 107.474 16.5821 111.243 19.1816C115.013 21.781 118.392 24.9654 121.381 28.7346L97.9862 47.8407ZM166.723 2.60994V68.1166H167.113C167.763 66.297 168.868 64.4774 170.428 62.6577C171.987 60.8381 173.872 59.2134 176.082 57.7837C178.291 56.354 180.891 55.1843 183.88 54.2744C186.869 53.3646 190.119 52.9097 193.628 52.9097C201.036 52.9097 207.015 54.0795 211.564 56.419C216.113 58.6286 219.623 61.7479 222.092 65.7771C224.692 69.8063 226.446 74.5503 227.356 80.0092C228.266 85.4681 228.721 91.3819 228.721 97.7506V150H199.477V103.599C199.477 100.87 199.347 98.0755 199.087 95.2161C198.957 92.2267 198.372 89.4973 197.332 87.0278C196.422 84.5583 194.928 82.5437 192.848 80.984C190.899 79.4243 188.039 78.6445 184.27 78.6445C180.501 78.6445 177.446 79.3593 175.107 80.7891C172.767 82.0888 170.948 83.9084 169.648 86.2479C168.478 88.4575 167.698 90.992 167.308 93.8514C166.918 96.7108 166.723 99.7002 166.723 102.82V150H137.479V2.60994H166.723ZM308.892 138.107H308.502C305.253 143.176 300.899 146.816 295.44 149.025C290.111 151.235 284.457 152.34 278.478 152.34C274.059 152.34 269.77 151.69 265.611 150.39C261.582 149.22 258.008 147.401 254.888 144.931C251.769 142.462 249.299 139.407 247.48 135.768C245.66 132.129 244.75 127.904 244.75 123.095C244.75 117.637 245.725 113.023 247.675 109.253C249.754 105.484 252.484 102.365 255.863 99.8952C259.372 97.4257 263.336 95.5411 267.756 94.2413C272.175 92.8116 276.724 91.7718 281.403 91.122C286.212 90.4721 290.956 90.0822 295.635 89.9522C300.444 89.8222 304.863 89.7572 308.892 89.7572C308.892 84.5583 307.008 80.4641 303.238 77.4747C299.599 74.3554 295.245 72.7957 290.176 72.7957C285.367 72.7957 280.948 73.8355 276.919 75.915C273.019 77.8647 269.51 80.5941 266.391 84.1034L250.794 68.1166C256.253 63.0477 262.622 59.2784 269.9 56.8089C277.179 54.2095 284.717 52.9097 292.516 52.9097C301.094 52.9097 308.112 54.0145 313.571 56.224C319.16 58.3036 323.579 61.423 326.829 65.5821C330.208 69.7413 332.547 74.8753 333.847 80.984C335.147 86.9628 335.797 93.9164 335.797 101.845V150H308.892V138.107ZM301.679 108.473C299.469 108.473 296.675 108.603 293.295 108.863C290.046 108.993 286.862 109.513 283.742 110.423C280.753 111.333 278.153 112.698 275.944 114.517C273.864 116.337 272.825 118.871 272.825 122.121C272.825 125.63 274.319 128.229 277.309 129.919C280.298 131.609 283.417 132.454 286.667 132.454C289.526 132.454 292.256 132.064 294.855 131.284C297.584 130.504 299.989 129.399 302.069 127.969C304.148 126.54 305.773 124.72 306.943 122.511C308.242 120.301 308.892 117.702 308.892 114.712V108.473H301.679ZM354.144 55.2492H382.219V68.1166H382.609C383.518 66.297 384.818 64.4774 386.508 62.6577C388.197 60.8381 390.212 59.2134 392.552 57.7837C394.891 56.354 397.556 55.1843 400.545 54.2744C403.534 53.3646 406.784 52.9097 410.293 52.9097C417.701 52.9097 423.68 54.0795 428.229 56.419C432.778 58.6286 436.288 61.7479 438.757 65.7771C441.357 69.8063 443.111 74.5503 444.021 80.0092C444.931 85.4681 445.386 91.3819 445.386 97.7506V150H416.142V103.599C416.142 100.87 416.012 98.0755 415.752 95.2161C415.622 92.2267 415.037 89.4973 413.997 87.0278C413.087 84.5583 411.593 82.5437 409.513 80.984C407.563 79.4243 404.704 78.6445 400.935 78.6445C397.166 78.6445 394.111 79.3593 391.772 80.7891C389.432 82.0888 387.613 83.9084 386.313 86.2479C385.143 88.4575 384.363 90.992 383.973 93.8514C383.583 96.7108 383.388 99.7002 383.388 102.82V150H354.144V55.2492ZM565.524 142.007C565.524 159.943 560.975 173.525 551.877 182.753C542.909 192.111 529.196 196.79 510.74 196.79C502.292 196.79 493.974 195.816 485.785 193.866C477.597 192.046 470.058 188.407 463.17 182.948L479.352 158.773C483.901 162.542 488.645 165.532 493.584 167.741C498.653 169.951 504.177 171.056 510.155 171.056C519.123 171.056 525.687 168.846 529.846 164.427C534.135 160.138 536.28 154.614 536.28 147.855V138.692H535.89C532.511 143.241 528.287 146.491 523.218 148.44C518.279 150.26 513.6 151.17 509.181 151.17C502.162 151.17 495.793 150 490.074 147.66C484.356 145.191 479.417 141.812 475.257 137.523C471.228 133.103 468.109 127.904 465.899 121.926C463.69 115.947 462.585 109.383 462.585 102.235C462.585 95.996 463.56 89.8872 465.509 83.9084C467.589 77.9296 470.448 72.6657 474.088 68.1166C477.857 63.5676 482.406 59.9283 487.735 57.1989C493.064 54.3394 499.108 52.9097 505.866 52.9097C510.025 52.9097 513.795 53.3646 517.174 54.2744C520.683 55.1843 523.803 56.354 526.532 57.7837C529.261 59.2134 531.601 60.8381 533.551 62.6577C535.5 64.3474 537.06 66.0371 538.23 67.7267H538.62V55.2492H565.524V142.007ZM491.829 102.04C491.829 105.159 492.414 108.149 493.584 111.008C494.753 113.737 496.378 116.207 498.458 118.416C500.667 120.496 503.137 122.186 505.866 123.485C508.726 124.785 511.845 125.435 515.224 125.435C518.474 125.435 521.528 124.785 524.387 123.485C527.247 122.186 529.716 120.496 531.796 118.416C534.005 116.207 535.695 113.737 536.865 111.008C538.035 108.149 538.62 105.159 538.62 102.04C538.62 98.9204 538.035 95.996 536.865 93.2665C535.695 90.4071 534.005 87.9376 531.796 85.858C529.716 83.6485 527.247 81.8938 524.387 80.5941C521.528 79.2944 518.474 78.6445 515.224 78.6445C511.845 78.6445 508.726 79.2944 505.866 80.5941C503.137 81.8938 500.667 83.6485 498.458 85.858C496.378 87.9376 494.753 90.4071 493.584 93.2665C492.414 95.996 491.829 98.9204 491.829 102.04ZM678.578 133.623C673.899 139.602 667.985 144.216 660.837 147.466C653.688 150.715 646.28 152.34 638.611 152.34C631.333 152.34 624.444 151.17 617.946 148.83C611.577 146.491 605.988 143.176 601.179 138.887C596.5 134.468 592.796 129.204 590.066 123.095C587.337 116.987 585.972 110.163 585.972 102.625C585.972 95.0862 587.337 88.2625 590.066 82.1538C592.796 76.045 596.5 70.8461 601.179 66.5569C605.988 62.1378 611.577 58.7585 617.946 56.419C624.444 54.0795 631.333 52.9097 638.611 52.9097C645.37 52.9097 651.479 54.0795 656.938 56.419C662.526 58.7585 667.206 62.1378 670.975 66.5569C674.874 70.8461 677.863 76.045 679.943 82.1538C682.023 88.2625 683.062 95.0862 683.062 102.625V111.788H615.216C616.386 117.377 618.92 121.861 622.82 125.24C626.719 128.489 631.528 130.114 637.247 130.114C642.056 130.114 646.085 129.074 649.334 126.995C652.713 124.785 655.638 121.991 658.107 118.611L678.578 133.623ZM653.818 91.9018C653.948 86.9628 652.324 82.7387 648.944 79.2294C645.565 75.7201 641.211 73.9654 635.882 73.9654C632.633 73.9654 629.773 74.4853 627.304 75.5251C624.834 76.5649 622.69 77.9296 620.87 79.6193C619.18 81.179 617.816 83.0636 616.776 85.2731C615.866 87.3527 615.346 89.5623 615.216 91.9018H653.818ZM813.124 165.402C811.174 170.471 809.289 174.955 807.47 178.854C805.65 182.753 803.311 186.003 800.451 188.602C797.722 191.332 794.213 193.346 789.923 194.646C785.634 196.076 779.98 196.79 772.962 196.79C765.423 196.79 758.145 195.621 751.126 193.281L755.026 169.301C759.445 171.251 763.994 172.225 768.673 172.225C771.922 172.225 774.587 171.836 776.666 171.056C778.746 170.406 780.435 169.366 781.735 167.936C783.165 166.637 784.335 165.012 785.244 163.062C786.154 161.113 787.129 158.838 788.169 156.239L790.313 150.78L748.787 55.2492H780.37L804.74 117.832H805.13L825.991 55.2492H856.015L813.124 165.402ZM863.358 102.625C863.358 95.0862 864.723 88.2625 867.452 82.1538C870.182 76.045 873.886 70.8461 878.565 66.5569C883.374 62.1378 888.963 58.7585 895.332 56.419C901.83 54.0795 908.719 52.9097 915.997 52.9097C923.276 52.9097 930.099 54.0795 936.468 56.419C942.967 58.7585 948.556 62.1378 953.235 66.5569C958.044 70.8461 961.813 76.045 964.542 82.1538C967.272 88.2625 968.637 95.0862 968.637 102.625C968.637 110.163 967.272 116.987 964.542 123.095C961.813 129.204 958.044 134.468 953.235 138.887C948.556 143.176 942.967 146.491 936.468 148.83C930.099 151.17 923.276 152.34 915.997 152.34C908.719 152.34 901.83 151.17 895.332 148.83C888.963 146.491 883.374 143.176 878.565 138.887C873.886 134.468 870.182 129.204 867.452 123.095C864.723 116.987 863.358 110.163 863.358 102.625ZM892.602 102.625C892.602 109.773 894.617 115.557 898.646 119.976C902.805 124.395 908.589 126.605 915.997 126.605C923.406 126.605 929.125 124.395 933.154 119.976C937.313 115.557 939.393 109.773 939.393 102.625C939.393 95.4761 937.313 89.6923 933.154 85.2731C929.125 80.854 923.406 78.6445 915.997 78.6445C908.589 78.6445 902.805 80.854 898.646 85.2731C894.617 89.6923 892.602 95.4761 892.602 102.625ZM1077.1 150H1049.03V137.133H1048.64C1047.6 138.952 1046.23 140.772 1044.54 142.592C1042.99 144.411 1041.04 146.036 1038.7 147.466C1036.36 148.895 1033.69 150.065 1030.7 150.975C1027.71 151.885 1024.46 152.34 1020.95 152.34C1013.55 152.34 1007.5 151.235 1002.82 149.025C998.274 146.686 994.7 143.501 992.1 139.472C989.631 135.443 987.941 130.699 987.031 125.24C986.252 119.781 985.862 113.867 985.862 107.499V55.2492H1015.11V101.65C1015.11 104.379 1015.17 107.239 1015.3 110.228C1015.56 113.087 1016.15 115.752 1017.06 118.221C1018.1 120.691 1019.59 122.706 1021.54 124.265C1023.62 125.825 1026.54 126.605 1030.31 126.605C1034.08 126.605 1037.14 125.955 1039.48 124.655C1041.82 123.225 1043.57 121.406 1044.74 119.196C1046.04 116.857 1046.88 114.257 1047.27 111.398C1047.66 108.538 1047.86 105.549 1047.86 102.43V55.2492H1077.1V150ZM1097.81 55.2492H1127.06V70.4562H1127.45C1130.57 64.6073 1134.27 60.2532 1138.56 57.3938C1142.85 54.4044 1148.24 52.9097 1154.74 52.9097C1156.43 52.9097 1158.12 52.9747 1159.81 53.1047C1161.5 53.2347 1163.06 53.4946 1164.49 53.8845V80.5941C1162.41 79.9442 1160.33 79.4893 1158.25 79.2294C1156.3 78.8395 1154.22 78.6445 1152.01 78.6445C1146.42 78.6445 1142 79.4243 1138.75 80.984C1135.5 82.5437 1132.97 84.7533 1131.15 87.6127C1129.46 90.3421 1128.36 93.6564 1127.84 97.5557C1127.32 101.455 1127.06 105.744 1127.06 110.423V150H1097.81V55.2492ZM1235.28 2.60994H1264.53V150H1235.28V2.60994ZM1285.93 55.2492H1315.17V150H1285.93V55.2492ZM1283.59 25.4203C1283.59 20.7413 1285.21 16.7771 1288.46 13.5277C1291.84 10.1484 1295.87 8.45876 1300.55 8.45876C1305.23 8.45876 1309.19 10.1484 1312.44 13.5277C1315.82 16.7771 1317.51 20.7413 1317.51 25.4203C1317.51 30.0994 1315.82 34.1285 1312.44 37.5079C1309.19 40.7572 1305.23 42.3819 1300.55 42.3819C1295.87 42.3819 1291.84 40.7572 1288.46 37.5079C1285.21 34.1285 1283.59 30.0994 1283.59 25.4203ZM1346.32 78.6445H1327.02V55.2492H1346.32V38.4827C1346.32 33.2837 1346.77 28.4097 1347.68 23.8606C1348.59 19.1816 1350.35 15.0874 1352.95 11.5781C1355.55 8.06883 1359.25 5.33938 1364.06 3.38978C1369 1.31021 1375.43 0.270421 1383.36 0.270421C1386.35 0.270421 1389.28 0.400392 1392.13 0.660336C1394.99 0.92028 1397.79 1.37519 1400.52 2.02505L1399.15 26.785C1397.46 26.1352 1395.9 25.6803 1394.47 25.4203C1393.04 25.0304 1391.42 24.8354 1389.6 24.8354C1384.92 24.8354 1381.41 25.8752 1379.07 27.9548C1376.73 29.9044 1375.56 33.9986 1375.56 40.2373V55.2492H1397.2V78.6445H1375.56V150H1346.32V78.6445ZM1498.02 133.623C1493.34 139.602 1487.43 144.216 1480.28 147.466C1473.13 150.715 1465.72 152.34 1458.05 152.34C1450.78 152.34 1443.89 151.17 1437.39 148.83C1431.02 146.491 1425.43 143.176 1420.62 138.887C1415.94 134.468 1412.24 129.204 1409.51 123.095C1406.78 116.987 1405.41 110.163 1405.41 102.625C1405.41 95.0862 1406.78 88.2625 1409.51 82.1538C1412.24 76.045 1415.94 70.8461 1420.62 66.5569C1425.43 62.1378 1431.02 58.7585 1437.39 56.419C1443.89 54.0795 1450.78 52.9097 1458.05 52.9097C1464.81 52.9097 1470.92 54.0795 1476.38 56.419C1481.97 58.7585 1486.65 62.1378 1490.42 66.5569C1494.32 70.8461 1497.31 76.045 1499.39 82.1538C1501.47 88.2625 1502.51 95.0862 1502.51 102.625V111.788H1434.66C1435.83 117.377 1438.36 121.861 1442.26 125.24C1446.16 128.489 1450.97 130.114 1456.69 130.114C1461.5 130.114 1465.53 129.074 1468.78 126.995C1472.16 124.785 1475.08 121.991 1477.55 118.611L1498.02 133.623ZM1473.26 91.9018C1473.39 86.9628 1471.77 82.7387 1468.39 79.2294C1465.01 75.7201 1460.65 73.9654 1455.32 73.9654C1452.08 73.9654 1449.22 74.4853 1446.75 75.5251C1444.28 76.5649 1442.13 77.9296 1440.31 79.6193C1438.62 81.179 1437.26 83.0636 1436.22 85.2731C1435.31 87.3527 1434.79 89.5623 1434.66 91.9018H1473.26Z" fill="white" fill-opacity="0.58"/>
</svg>
