<svg width="78" height="592" viewBox="0 0 78 592" fill="none" xmlns="http://www.w3.org/2000/svg">
<path d="M59.1815 39.3326C60.6129 38.1568 61.7121 36.6999 62.4789 34.9617C63.2457 33.2747 63.6291 31.3065 63.6291 29.0572C63.6291 26.8079 63.1946 24.7119 62.3255 22.7692C61.4564 20.8778 60.2295 19.2163 58.6448 17.7849C57.1111 16.4046 55.2707 15.3055 53.1236 14.4876C50.9765 13.7207 48.6505 13.3373 46.1455 13.3373C43.5895 13.3373 41.2379 13.7207 39.0908 14.4876C36.9948 15.3055 35.1544 16.4046 33.5696 17.7849C32.036 19.1652 30.8346 20.7755 29.9656 22.6159C29.0965 24.5074 28.662 26.5267 28.662 28.6738C28.662 31.1276 29.1732 33.3003 30.1956 35.1918C31.218 37.0833 32.6495 38.6425 34.4898 39.8694L27.0516 49.8381C23.831 47.5376 21.4538 44.6237 19.9202 41.0963C18.3865 37.5689 17.6197 33.9393 17.6197 30.2074C17.6197 25.9643 18.2843 22.0535 19.6135 18.475C20.9426 14.8965 22.8341 11.8037 25.288 9.19647C27.7929 6.58928 30.8091 4.54441 34.3365 3.06189C37.8639 1.63049 41.8002 0.914784 46.1455 0.914784C50.4909 0.914784 54.4272 1.63049 57.9546 3.06189C61.482 4.54441 64.4726 6.58928 66.9265 9.19648C69.4314 11.8037 71.3485 14.8965 72.6776 18.475C74.0068 22.0535 74.6714 25.9643 74.6714 30.2074C74.6714 31.7411 74.518 33.3258 74.2113 34.9617C73.9557 36.6488 73.5211 38.2846 72.9077 39.8694C72.2942 41.5053 71.4763 43.0645 70.4538 44.547C69.4314 46.0296 68.1789 47.3587 66.6964 48.5345L59.1815 39.3326ZM76.9718 66.3685L51.2066 66.3685L51.2066 66.5219C51.9223 66.7775 52.638 67.212 53.3537 67.8255C54.0694 68.439 54.7084 69.1802 55.2707 70.0493C55.8331 70.9184 56.2932 71.9408 56.651 73.1166C57.0089 74.2924 57.1878 75.5704 57.1878 76.9507C57.1878 79.8646 56.7277 82.2162 55.8075 84.0055C54.9384 85.7947 53.7115 87.175 52.1268 88.1463C50.542 89.1688 48.6761 89.8589 46.529 90.2167C44.3818 90.5746 42.0558 90.7535 39.5509 90.7535L19 90.7535L19 79.2512L37.2504 79.2512C38.3239 79.2512 39.4231 79.2001 40.5477 79.0978C41.7235 79.0467 42.7971 78.8166 43.7684 78.4077C44.7397 78.0498 45.5321 77.4619 46.1455 76.644C46.759 75.8772 47.0657 74.7525 47.0657 73.27C47.0657 71.7874 46.7846 70.5861 46.2222 69.6659C45.711 68.7457 44.9953 68.03 44.0751 67.5188C43.2061 67.0587 42.2092 66.752 41.0845 66.5986C39.9598 66.4452 38.784 66.3685 37.5571 66.3685L19 66.3685L19 54.8662L76.9718 54.8662L76.9718 66.3685ZM23.6776 122.287L23.6776 122.133C21.6839 120.855 20.2525 119.143 19.3834 116.996C18.5143 114.9 18.0798 112.676 18.0798 110.324C18.0798 108.586 18.3354 106.899 18.8466 105.263C19.3067 103.678 20.0224 102.273 20.9937 101.046C21.965 99.8188 23.1664 98.8475 24.5978 98.1318C26.0292 97.4161 27.6907 97.0582 29.5822 97.0582C31.7293 97.0582 33.5441 97.4417 35.0266 98.2085C36.5091 99.0264 37.736 100.1 38.7074 101.429C39.6787 102.809 40.4199 104.369 40.9311 106.107C41.4935 107.845 41.9025 109.634 42.1581 111.475C42.4137 113.366 42.567 115.232 42.6182 117.072C42.6693 118.964 42.6948 120.702 42.6948 122.287C44.7397 122.287 46.35 121.545 47.5258 120.063C48.7527 118.632 49.3662 116.919 49.3662 114.925C49.3662 113.034 48.9572 111.296 48.1393 109.711C47.3725 108.177 46.2989 106.797 44.9186 105.57L51.2066 99.4354C53.2003 101.583 54.6828 104.087 55.6541 106.95C56.6766 109.813 57.1878 112.778 57.1878 115.845C57.1878 119.219 56.7533 121.98 55.8842 124.127C55.0663 126.325 53.8393 128.063 52.2034 129.342C50.5676 130.671 48.5483 131.591 46.1455 132.102C43.7939 132.613 41.0589 132.869 37.9405 132.869L19 132.869L19 122.287L23.6776 122.287ZM35.3333 119.449C35.3333 118.58 35.2822 117.481 35.18 116.152C35.1288 114.874 34.9244 113.622 34.5665 112.395C34.2087 111.219 33.6719 110.196 32.9562 109.327C32.2405 108.509 31.2436 108.1 29.9656 108.1C28.5853 108.1 27.5629 108.688 26.8983 109.864C26.2337 111.04 25.9014 112.267 25.9014 113.545C25.9014 114.67 26.0548 115.743 26.3615 116.766C26.6682 117.839 27.1028 118.785 27.6651 119.603C28.2274 120.421 28.9431 121.06 29.8122 121.52C30.6813 122.031 31.7037 122.287 32.8795 122.287L35.3333 122.287L35.3333 119.449ZM56.2676 140.085L56.2676 151.128L51.2066 151.128L51.2066 151.281C51.9223 151.639 52.638 152.15 53.3537 152.815C54.0694 153.479 54.7084 154.272 55.2707 155.192C55.8331 156.112 56.2932 157.16 56.651 158.336C57.0089 159.512 57.1878 160.79 57.1878 162.17C57.1878 165.084 56.7277 167.435 55.8075 169.225C54.9384 171.014 53.7115 172.394 52.1268 173.366C50.542 174.388 48.6761 175.078 46.5289 175.436C44.3818 175.794 42.0558 175.973 39.5509 175.973L19 175.973L19 164.47L37.2504 164.47C38.3239 164.47 39.4231 164.419 40.5477 164.317C41.7235 164.266 42.7971 164.036 43.7684 163.627C44.7397 163.269 45.5321 162.681 46.1455 161.863C46.759 161.096 47.0657 159.972 47.0657 158.489C47.0657 157.007 46.7846 155.805 46.2222 154.885C45.711 153.965 44.9953 153.249 44.0751 152.738C43.206 152.278 42.2092 151.971 41.0845 151.818C39.9598 151.664 38.784 151.588 37.5571 151.588L19 151.588L19 140.085L56.2676 140.085ZM22.144 223.226C15.0892 223.226 9.74699 221.437 6.11736 217.858C2.43661 214.331 0.596232 208.937 0.596232 201.678C0.596232 198.355 0.979644 195.083 1.74647 191.863C2.46217 188.642 3.89357 185.677 6.04068 182.968L15.5493 189.332C14.0668 191.121 12.891 192.987 12.0219 194.93C11.1528 196.924 10.7183 199.096 10.7183 201.448C10.7183 204.975 11.5874 207.557 13.3255 209.193C15.0125 210.88 17.1852 211.723 19.8435 211.723L23.4476 211.723L23.4476 211.57C21.6583 210.241 20.3803 208.58 19.6134 206.586C18.8977 204.643 18.5399 202.803 18.5399 201.065C18.5399 198.304 19 195.799 19.9202 193.55C20.8915 191.3 22.2206 189.358 23.9077 187.722C25.6458 186.137 27.6907 184.91 30.0422 184.041C32.3938 183.172 34.9755 182.738 37.7872 182.738C40.241 182.738 42.6437 183.121 44.9953 183.888C47.3469 184.706 49.4173 185.83 51.2066 187.262C52.9958 188.744 54.4272 190.534 55.5008 192.63C56.6255 194.726 57.1878 197.103 57.1878 199.761C57.1878 201.397 57.0089 202.879 56.651 204.209C56.2932 205.589 55.8331 206.816 55.2707 207.889C54.7084 208.963 54.0694 209.883 53.3537 210.65C52.6891 211.417 52.0245 212.03 51.3599 212.49L51.3599 212.644L56.2676 212.644L56.2676 223.226L22.144 223.226ZM37.8638 194.24C36.6369 194.24 35.4611 194.47 34.3365 194.93C33.2629 195.39 32.2916 196.029 31.4225 196.847C30.6046 197.716 29.94 198.687 29.4288 199.761C28.9176 200.886 28.662 202.113 28.662 203.442C28.662 204.72 28.9176 205.921 29.4288 207.046C29.94 208.171 30.6046 209.142 31.4225 209.96C32.2916 210.829 33.2629 211.493 34.3365 211.954C35.4611 212.414 36.6369 212.644 37.8638 212.644C39.0908 212.644 40.241 212.414 41.3145 211.954C42.4392 211.493 43.4105 210.829 44.2285 209.96C45.0975 209.142 45.7877 208.171 46.2989 207.046C46.8101 205.921 47.0657 204.72 47.0657 203.442C47.0657 202.113 46.8101 200.886 46.2989 199.761C45.7877 198.687 45.0975 197.716 44.2285 196.847C43.4105 196.029 42.4392 195.39 41.3145 194.93C40.241 194.47 39.0908 194.24 37.8638 194.24ZM25.4413 267.693C23.0897 265.852 21.2749 263.526 19.9969 260.715C18.7188 257.903 18.0798 254.989 18.0798 251.973C18.0798 249.11 18.5399 246.4 19.4601 243.844C20.3803 241.339 21.6839 239.141 23.3709 237.25C25.109 235.409 27.1794 233.952 29.5822 232.879C31.9849 231.805 34.6687 231.268 37.6338 231.268C40.5988 231.268 43.2827 231.805 45.6854 232.879C48.0882 233.952 50.133 235.409 51.82 237.25C53.5582 239.141 54.8873 241.339 55.8075 243.844C56.7277 246.4 57.1878 249.11 57.1878 251.973C57.1878 254.631 56.7277 257.034 55.8075 259.181C54.8873 261.379 53.5582 263.219 51.82 264.702C50.133 266.236 48.0882 267.411 45.6854 268.229C43.2827 269.047 40.5988 269.456 37.6338 269.456L34.0297 269.456L34.0297 242.771C31.8315 243.231 30.0678 244.228 28.7386 245.761C27.4606 247.295 26.8216 249.187 26.8216 251.436C26.8216 253.327 27.2306 254.912 28.0485 256.19C28.9176 257.519 30.0167 258.67 31.3458 259.641L25.4413 267.693ZM41.8513 257.954C43.7939 258.005 45.4554 257.366 46.8357 256.037C48.216 254.708 48.9061 252.995 48.9061 250.899C48.9061 249.621 48.7016 248.496 48.2926 247.525C47.8837 246.554 47.3469 245.71 46.6823 244.995C46.0689 244.33 45.3276 243.793 44.4585 243.384C43.6406 243.026 42.7715 242.822 41.8513 242.771L41.8513 257.954ZM12.9421 320.612C10.9483 319.846 9.18465 319.104 7.651 318.389C6.11735 317.673 4.83932 316.753 3.81688 315.628C2.74333 314.554 1.95095 313.174 1.43973 311.487C0.877395 309.8 0.596227 307.576 0.596227 304.816C0.596227 301.851 1.05632 298.988 1.97651 296.227L11.4084 297.761C10.6416 299.499 10.2582 301.288 10.2582 303.129C10.2582 304.407 10.4116 305.455 10.7183 306.273C10.9739 307.091 11.3829 307.755 11.9452 308.267C12.4564 308.829 13.0954 309.289 13.8623 309.647C14.6291 310.005 15.5237 310.388 16.5462 310.797L18.6933 311.641L56.2676 295.307L56.2676 307.73L31.6526 317.315L31.6526 317.468L56.2676 325.673L56.2676 337.483L12.9421 320.612ZM37.6338 340.371C40.5988 340.371 43.2827 340.907 45.6854 341.981C48.0881 343.055 50.133 344.512 51.82 346.352C53.5582 348.243 54.8873 350.442 55.8075 352.947C56.7277 355.503 57.1878 358.212 57.1878 361.075C57.1878 363.938 56.7277 366.622 55.8075 369.127C54.8873 371.683 53.5582 373.881 51.82 375.721C50.133 377.613 48.0881 379.095 45.6854 380.169C43.2827 381.242 40.5988 381.779 37.6338 381.779C34.6687 381.779 31.9849 381.242 29.5821 380.169C27.1794 379.095 25.109 377.613 23.3709 375.721C21.6839 373.881 20.3803 371.683 19.4601 369.127C18.5399 366.622 18.0798 363.938 18.0798 361.075C18.0798 358.212 18.5399 355.503 19.4601 352.947C20.3803 350.442 21.6839 348.243 23.3709 346.352C25.109 344.512 27.1794 343.055 29.5821 341.981C31.9849 340.907 34.6687 340.371 37.6338 340.371ZM37.6338 351.873C34.8221 351.873 32.5472 352.665 30.8091 354.25C29.0709 355.886 28.2019 358.161 28.2019 361.075C28.2019 363.989 29.0709 366.238 30.8091 367.823C32.5472 369.459 34.8221 370.277 37.6338 370.277C40.4455 370.277 42.7204 369.459 44.4585 367.823C46.1967 366.238 47.0657 363.989 47.0657 361.075C47.0657 358.161 46.1967 355.886 44.4585 354.25C42.7204 352.665 40.4455 351.873 37.6338 351.873ZM19 424.441L19 413.399L24.061 413.399L24.061 413.246C23.3453 412.837 22.6296 412.3 21.9139 411.636C21.1982 411.022 20.5592 410.255 19.9969 409.335C19.4345 408.415 18.9744 407.367 18.6166 406.191C18.2587 405.015 18.0798 403.737 18.0798 402.357C18.0798 399.443 18.5143 397.066 19.3834 395.225C20.3036 393.436 21.5561 392.03 23.1408 391.008C24.7256 390.037 26.5915 389.372 28.7386 389.014C30.8857 388.707 33.2118 388.554 35.7167 388.554L56.2676 388.554L56.2676 400.056L38.0172 400.056C36.9436 400.056 35.819 400.082 34.6432 400.133C33.5185 400.235 32.4705 400.465 31.4992 400.823C30.5279 401.232 29.7355 401.82 29.122 402.587C28.5086 403.405 28.2019 404.555 28.2019 406.038C28.2019 407.52 28.4575 408.722 28.9687 409.642C29.531 410.562 30.2467 411.252 31.1158 411.712C32.036 412.223 33.0584 412.556 34.1831 412.709C35.3078 412.862 36.4836 412.939 37.7105 412.939L56.2676 412.939L56.2676 424.441L19 424.441ZM56.2676 432.587L56.2676 444.089L50.2864 444.089L50.2864 444.242C52.5868 445.469 54.2994 446.926 55.4241 448.613C56.5999 450.3 57.1878 452.422 57.1878 454.978C57.1878 455.642 57.1622 456.307 57.1111 456.972C57.06 457.636 56.9577 458.25 56.8044 458.812L46.2989 458.812C46.5545 457.994 46.7334 457.176 46.8357 456.358C46.989 455.591 47.0657 454.773 47.0657 453.904C47.0657 451.706 46.759 449.968 46.1455 448.69C45.5321 447.412 44.663 446.415 43.5383 445.699C42.4648 445.035 41.1612 444.6 39.6275 444.396C38.0939 444.191 36.4069 444.089 34.5665 444.089L19 444.089L19 432.587L56.2676 432.587ZM76.9718 486.657L76.9718 498.16L19 498.16L19 486.657L76.9718 486.657ZM56.2676 506.577L56.2676 518.079L19 518.079L19 506.577L56.2676 506.577ZM68 505.656C69.8404 505.656 71.3996 506.295 72.6776 507.573C74.0068 508.903 74.6713 510.487 74.6713 512.328C74.6713 514.168 74.0068 515.727 72.6776 517.005C71.3996 518.335 69.8404 518.999 68 518.999C66.1596 518.999 64.5748 518.335 63.2457 517.005C61.9676 515.727 61.3286 514.168 61.3286 512.328C61.3286 510.487 61.9676 508.903 63.2457 507.573C64.5748 506.295 66.1596 505.656 68 505.656ZM47.0657 530.33L47.0657 522.739L56.2676 522.739L56.2676 530.33L62.8623 530.33C64.9071 530.33 66.8242 530.509 68.6134 530.867C70.4538 531.225 72.0641 531.915 73.4444 532.937C74.8247 533.96 75.8983 535.417 76.6651 537.308C77.483 539.251 77.892 541.781 77.892 544.9C77.892 546.076 77.8409 547.226 77.7386 548.351C77.6364 549.475 77.4575 550.574 77.2019 551.648L67.4632 551.111C67.7188 550.447 67.8977 549.833 68 549.271C68.1534 548.708 68.23 548.069 68.23 547.354C68.23 545.513 67.8211 544.133 67.0031 543.213C66.2363 542.293 64.626 541.833 62.1721 541.833L56.2676 541.833L56.2676 550.344L47.0657 550.344L47.0657 541.833L19 541.833L19 530.33L47.0657 530.33ZM25.4413 589.998C23.0897 588.158 21.2749 585.832 19.9968 583.02C18.7188 580.208 18.0798 577.294 18.0798 574.278C18.0798 571.415 18.5399 568.706 19.4601 566.15C20.3803 563.645 21.6839 561.447 23.3709 559.555C25.109 557.715 27.1794 556.258 29.5821 555.184C31.9849 554.111 34.6687 553.574 37.6338 553.574C40.5988 553.574 43.2827 554.111 45.6854 555.184C48.0881 556.258 50.133 557.715 51.82 559.555C53.5581 561.447 54.8873 563.645 55.8075 566.15C56.7277 568.706 57.1878 571.415 57.1878 574.278C57.1878 576.937 56.7277 579.339 55.8075 581.486C54.8873 583.685 53.5581 585.525 51.82 587.007C50.133 588.541 48.0881 589.717 45.6854 590.535C43.2827 591.353 40.5988 591.762 37.6338 591.762L34.0297 591.762L34.0297 565.076C31.8315 565.536 30.0678 566.533 28.7386 568.067C27.4606 569.601 26.8216 571.492 26.8216 573.741C26.8216 575.633 27.2305 577.218 28.0485 578.496C28.9176 579.825 30.0167 580.975 31.3458 581.946L25.4413 589.998ZM41.8513 580.259C43.7939 580.311 45.4554 579.672 46.8357 578.342C48.2159 577.013 48.9061 575.301 48.9061 573.205C48.9061 571.927 48.7016 570.802 48.2926 569.831C47.8837 568.859 47.3469 568.016 46.6823 567.3C46.0688 566.636 45.3276 566.099 44.4585 565.69C43.6406 565.332 42.7715 565.127 41.8513 565.076L41.8513 580.259Z" fill="white" fill-opacity="0.58"/>
</svg>
