<svg width="51" height="31" viewBox="0 0 51 31" fill="none" xmlns="http://www.w3.org/2000/svg">
<g clip-path="url(#clip0)">
<path d="M48.3803 6.57953C48.3803 4.86953 48.3803 3.76953 48.3803 3.76953L44.3203 6.57953H48.3803Z" fill="#F4ECED"/>
<path d="M39.731 6.57812L45.511 2.57812H5.48096L11.271 6.57812H39.731Z" fill="#F4ECED"/>
<path d="M2.62114 3.76953C2.62114 3.76953 2.60114 25.9195 2.65114 26.9295C2.71114 28.1395 4.21114 28.2995 5.17114 28.2795C5.30114 28.2795 5.82114 28.2795 6.63114 28.2795C6.61114 22.1795 6.62114 6.57953 6.62114 6.57953" fill="#F4ECED"/>
<path d="M2.5598 27.0202L15.3998 17.0702C15.9698 16.6302 16.7898 16.7302 17.2298 17.3002C17.6698 17.8702 17.5698 18.6902 16.9998 19.1302L5.1398 28.3302L2.5498 28.3402L2.5598 27.0202Z" fill="#121212"/>
<path d="M48.4399 27.0202L35.5999 17.0702C35.0299 16.6302 34.2099 16.7302 33.7699 17.3002C33.3299 17.8702 33.4299 18.6902 33.9999 19.1302L45.8499 28.3202L48.4399 28.3302V27.0202Z" fill="#121212"/>
<path d="M50.23 0.77C49.74 0.27 49.08 0 48.39 0H2.61C1.91 0 1.26 0.27 0.76 0.77C0.27 1.26 0 1.92 0 2.62L0.04 28.32C0.04 29.02 0.31 29.67 0.81 30.17C1.3 30.66 1.96 30.93 2.65 30.93H48.34C49.04 30.93 49.69 30.66 50.18 30.17C50.67 29.68 50.95 29.02 50.95 28.32L50.99 2.62C51 1.92 50.72 1.26 50.23 0.77ZM45.51 2.61L25.5 16.44L5.48 2.61H45.51ZM48.35 26.96C48.29 28.17 46.79 28.33 45.83 28.31C44.56 28.31 6.43 28.31 5.16 28.31C4.2 28.33 2.7 28.16 2.64 26.96C2.6 25.95 2.61 3.8 2.61 3.8L24.76 19.11C24.98 19.26 25.24 19.34 25.49 19.34C25.75 19.34 26 19.26 26.22 19.11L48.38 3.8C48.38 3.8 48.4 25.95 48.35 26.96Z" fill="#121212"/>
</g>
<defs>
<clipPath id="clip0">
<rect width="50.99" height="30.93" fill="white"/>
</clipPath>
</defs>
</svg>
