<svg width="28" height="29" viewBox="0 0 28 29" fill="none" xmlns="http://www.w3.org/2000/svg">
<g clip-path="url(#clip0)">
<path d="M21.5641 3.32911V20.3421C21.5641 20.5186 21.4948 20.688 21.3711 20.8139L14.2297 28.0836C13.9659 28.3521 13.5331 28.3521 13.2693 28.0836L6.12782 20.8139C6.00416 20.688 5.93488 20.5186 5.93488 20.3421V3.32911C5.93488 2.77242 6.57217 2.45635 7.01535 2.79324L12.8533 7.23098C13.3829 7.63357 14.116 7.63357 14.6456 7.23098L20.4836 2.79324C20.9268 2.45635 21.5641 2.77242 21.5641 3.32911Z" fill="white" stroke="white" stroke-width="0.807748"/>
<mask id="mask0" mask-type="alpha" maskUnits="userSpaceOnUse" x="13" y="0" width="11" height="30">
<rect x="14.1536" y="1.24897" width="8.78046" height="27.6525" rx="0.673123" fill="#C4C4C4" stroke="white" stroke-width="0.807748"/>
</mask>
<g mask="url(#mask0)">
<path d="M21.5641 3.32911V20.3421C21.5641 20.5186 21.4948 20.688 21.3711 20.8139L14.2297 28.0836C13.9659 28.3521 13.5331 28.3521 13.2693 28.0836L6.12782 20.8139C6.00416 20.688 5.93488 20.5186 5.93488 20.3421V3.32911C5.93488 2.77242 6.57217 2.45635 7.01535 2.79324L12.8533 7.23098C13.3829 7.63357 14.116 7.63357 14.6456 7.23098L20.4836 2.79324C20.9268 2.45635 21.5641 2.77242 21.5641 3.32911Z" fill="#11376B" stroke="white" stroke-width="0.807748"/>
</g>
<path d="M21.5641 3.32911V20.3421C21.5641 20.5186 21.4948 20.688 21.3711 20.8139L14.2297 28.0836C13.9659 28.3521 13.5331 28.3521 13.2693 28.0836L6.12782 20.8139C6.00416 20.688 5.93488 20.5186 5.93488 20.3421V3.32911C5.93488 2.77242 6.57217 2.45635 7.01535 2.79324L12.8533 7.23098C13.3829 7.63357 14.116 7.63357 14.6456 7.23098L20.4836 2.79324C20.9268 2.45635 21.5641 2.77242 21.5641 3.32911Z" stroke="white" stroke-width="0.807748"/>
</g>
<defs>
<clipPath id="clip0">
<rect width="28" height="28" fill="white" transform="translate(0 0.723877)"/>
</clipPath>
</defs>
</svg>
