<svg width="29" height="28" viewBox="0 0 29 28" fill="none" xmlns="http://www.w3.org/2000/svg">
<path d="M3.17774 6.38989V5.90546C2.91019 5.90546 2.6933 6.12235 2.6933 6.38989H3.17774ZM9.95979 6.38989H10.4442C10.4442 6.12235 10.2273 5.90546 9.95979 5.90546V6.38989ZM3.17774 12.6759V13.1604C3.44528 13.1604 3.66217 12.9435 3.66217 12.6759H3.17774ZM3.177 12.6759V12.1915C2.90946 12.1915 2.69257 12.4084 2.69257 12.6759H3.177ZM3.177 25.7437H2.69257C2.69257 26.0113 2.90946 26.2282 3.177 26.2282V25.7437ZM22.5325 25.7437V26.2282C22.8 26.2282 23.0169 26.0113 23.0169 25.7437H22.5325ZM22.5325 18.9617H23.0169C23.0169 18.6941 22.8 18.4773 22.5325 18.4773V18.9617ZM16.7162 18.9617H16.2318C16.2318 19.2292 16.4487 19.4461 16.7162 19.4461V18.9617ZM16.7162 12.1805H17.2007C17.2007 11.9129 16.9838 11.696 16.7162 11.696V12.1805ZM9.95979 12.1805H9.47536C9.47536 12.448 9.69225 12.6649 9.95979 12.6649V12.1805ZM3.17774 6.87433H9.95979V5.90546H3.17774V6.87433ZM3.66217 12.6759V6.38989H2.6933V12.6759H3.66217ZM3.17774 12.1915H3.177V13.1604H3.17774V12.1915ZM2.69257 12.6759V18.9617H3.66143V12.6759H2.69257ZM2.69257 18.9617V19.458H3.66143V18.9617H2.69257ZM2.69257 19.458V25.7437H3.66143V19.458H2.69257ZM3.177 26.2282H9.93417V25.2593H3.177V26.2282ZM9.93417 26.2282H9.95906V25.2593H9.93417V26.2282ZM9.95906 26.2282H15.7504V25.2593H9.95906V26.2282ZM15.7504 26.2282H16.7162V25.2593H15.7504V26.2282ZM16.7162 26.2282H22.5325V25.2593H16.7162V26.2282ZM23.0169 25.7437V18.9617H22.048V25.7437H23.0169ZM22.5325 18.4773H16.7162V19.4461H22.5325V18.4773ZM17.2007 18.9617V12.1805H16.2318V18.9617H17.2007ZM16.7162 11.696H9.95979V12.6649H16.7162V11.696ZM9.47536 6.38989V12.1805H10.4442V6.38989H9.47536Z" fill="white"/>
<path d="M23.0275 13.2861L18.3395 12.0581L23.2848 8.44675L23.0275 13.2861Z" fill="white"/>
<path d="M5.78955 2.38344C8.8038 1.8392 16.1636 2.76022 21.4888 10.7982" stroke="white" stroke-width="1.00475" stroke-linecap="round"/>
</svg>
