<svg width="29" height="28" viewBox="0 0 29 28" fill="none" xmlns="http://www.w3.org/2000/svg">
<g clip-path="url(#clip0)">
<path d="M18.1634 16.5077C18.1482 16.5077 16.0124 16.5688 15.691 14.2554C16.0426 14.0073 16.3715 13.6828 16.655 13.2896C17.2145 12.5261 17.5736 11.5718 17.7022 10.5372C17.7475 10.4952 17.7815 10.4456 17.808 10.3884C18.0386 9.83101 18.1558 9.23549 18.1558 8.62088C18.1558 6.25407 16.3904 4.33008 14.2167 4.33008C13.6496 4.33008 13.0977 4.46369 12.576 4.72327C12.3757 4.73854 12.1829 4.7729 11.9976 4.83016C11.1055 5.08975 10.3797 5.7578 9.95248 6.70834C9.54042 7.63216 9.45725 8.72395 9.72188 9.77375C9.77858 9.99516 9.85041 10.2128 9.93358 10.4227C9.95626 10.48 9.99028 10.5258 10.0319 10.5678C10.2398 12.1826 10.9996 13.5225 12.0392 14.2516C11.7217 16.5688 9.582 16.5039 9.56688 16.5077C8.03207 16.5612 6.7959 17.84 6.7959 19.4052V22.6614C6.7959 22.8943 6.98492 23.0852 7.21552 23.0852H10.8862H16.844H20.5147C20.7453 23.0852 20.9343 22.8943 20.9343 22.6614V19.4052C20.9343 17.84 19.6982 16.5612 18.1634 16.5077ZM12.2282 5.63946C12.3795 5.59365 12.542 5.56693 12.7083 5.55929C12.7688 5.55548 12.8293 5.54021 12.8822 5.50967C13.3056 5.28444 13.7555 5.16992 14.2167 5.16992C15.9292 5.16992 17.3203 6.71598 17.3203 8.61706C17.3203 8.67433 17.3203 8.73159 17.3166 8.78885C16.9839 8.4491 16.5227 8.23532 16.0124 8.23532H13.162C12.9919 8.23532 12.8331 8.18188 12.697 8.0788C12.5836 7.991 12.4929 7.87648 12.4399 7.74287C12.3568 7.53673 12.1526 7.40694 11.9334 7.41839C11.7103 7.43748 11.5251 7.59399 11.4684 7.81158C11.3021 8.45291 10.9732 9.04462 10.5233 9.5218C10.0999 7.77341 10.8598 6.04029 12.2282 5.63946ZM10.8522 10.3731C11.3814 9.89972 11.7973 9.30802 12.0695 8.65142C12.111 8.6896 12.1526 8.72777 12.198 8.75831C12.4777 8.96827 12.8142 9.08279 13.162 9.08279H16.0124C16.4168 9.08279 16.7646 9.32711 16.9196 9.67831C16.9196 9.68213 16.9196 9.68595 16.9196 9.68595C16.9196 12.068 15.5512 14.0111 13.8651 14.0111C13.1317 14.0111 12.421 13.6332 11.8653 12.946C11.321 12.2704 10.9656 11.3656 10.8522 10.3731ZM12.8255 14.6677C13.1582 14.7899 13.506 14.8548 13.8651 14.8548C14.2205 14.8548 14.572 14.7937 14.9047 14.6715C15.0559 15.477 15.502 16.1794 16.122 16.6642L13.9256 19.8213C13.9105 19.8403 13.8916 19.8518 13.8651 19.8518C13.8387 19.8518 13.8198 19.8403 13.8046 19.8213L11.6083 16.6642C12.2282 16.1756 12.6743 15.4732 12.8255 14.6677ZM20.0989 22.2415H16.844H10.8862H7.63135V19.4052C7.63135 18.2714 8.54241 17.3514 9.66517 17.3514C9.68029 17.3514 10.3532 17.3361 10.8862 17.0918L13.1204 20.3061C13.2905 20.5504 13.5665 20.6954 13.8651 20.6954C14.16 20.6954 14.4397 20.5504 14.6098 20.3061L16.844 17.0918C17.4489 17.3514 18.0462 17.3514 18.0613 17.3514C19.1841 17.3514 20.0951 18.2714 20.0951 19.4052V22.2415H20.0989Z" fill="white"/>
<path d="M10.8862 17.0917L13.1204 20.306C13.2905 20.5503 13.5665 20.6954 13.8651 20.6954C14.16 20.6954 14.4397 20.5503 14.6099 20.306L16.844 17.0917L16.122 16.6642L13.9256 19.8212C13.9105 19.8403 13.8916 19.8517 13.8651 19.8517C13.8387 19.8517 13.8198 19.8403 13.8046 19.8212L11.6083 16.6642L10.8862 17.0917Z" fill="white"/>
</g>
<path d="M23.6245 19.8922L27.4008 21.5561C27.8385 21.749 28.2916 21.3181 28.121 20.8713L27.0224 17.9941C26.9118 17.7043 26.5797 17.5676 26.2971 17.6957L23.6194 18.9089C23.1953 19.1011 23.1985 19.7045 23.6245 19.8922Z" fill="white"/>
<path d="M5.26023 7.3806L1.48397 5.7167C1.04629 5.52385 0.593162 5.95474 0.763769 6.40157L1.86232 9.27872C1.97298 9.56856 2.30504 9.70518 2.58763 9.57714L5.26535 8.36388C5.68943 8.17173 5.68629 7.56833 5.26023 7.3806Z" fill="white"/>
<path d="M2.90076 7.36076C3.93469 5.10053 7.74823 0.580078 14.7309 0.580078C23.4592 0.580078 26.8496 8.00998 27.7873 10.679" stroke="white" stroke-width="0.807748" stroke-linecap="round"/>
<path d="M0.951782 16.8104C1.84145 20.1527 5.55399 26.8372 13.2869 26.8372C21.0197 26.8372 24.6842 22.5572 25.5498 20.4172" stroke="white" stroke-width="0.807748" stroke-linecap="round"/>
<defs>
<clipPath id="clip0">
<path d="M6.7959 5.40708C6.7959 4.81227 7.27809 4.33008 7.8729 4.33008H19.8574C20.4522 4.33008 20.9343 4.81227 20.9343 5.40708V22.0082C20.9343 22.603 20.4522 23.0852 19.8574 23.0852H7.8729C7.27809 23.0852 6.7959 22.603 6.7959 22.0082V5.40708Z" fill="white"/>
</clipPath>
</defs>
</svg>
