<svg width="321" height="91" viewBox="0 0 321 91" fill="none" xmlns="http://www.w3.org/2000/svg">
<rect x="0.0917969" width="320" height="90.2275" fill="#007972"/>
<path d="M320.092 73.9861V16.2417L0.0918579 16.2417V73.9861L320.092 73.9861Z" fill="#007972"/>
<path d="M56.3008 37.7336H60.4828V55.293H63.6193V37.7336H67.8013V35.0288H56.3008V37.7336Z" fill="white"/>
<path d="M71.7656 55.293H81.088V52.3736H74.9021V45.9337H80.3039V43.186H74.9021V37.7336H81.088V35.0288H71.7656V55.293Z" fill="white"/>
<path d="M90.3234 34.8569C87.274 34.8569 85.2266 36.8748 85.2266 39.5366V50.6991C85.2266 54.3913 87.971 55.4646 90.3669 55.4646C93.1549 55.4646 95.3331 53.275 95.3331 50.7849V49.497H92.1966V50.4844C92.1966 52.0729 91.1075 52.5452 90.2362 52.5452C88.8422 52.5452 88.3195 51.6436 88.3195 50.4844V40.0947C88.3195 38.7209 88.668 37.7334 90.2362 37.7334C91.4124 37.7334 92.153 38.7209 92.153 39.8371V40.8246H95.2895V39.7083C95.3331 36.8748 93.1985 34.8569 90.3234 34.8569Z" fill="white"/>
<path d="M106.441 43.186H102.564V35.0288H99.4712V55.293H102.564V45.762H106.441V55.293H109.578V35.0288H106.441V43.186Z" fill="white"/>
<path d="M123.039 34.8569C119.989 34.8569 117.942 36.8748 117.942 39.5366V50.6991C117.942 54.3913 120.686 55.4646 123.082 55.4646C125.87 55.4646 128.048 53.275 128.048 50.7849V49.497H124.912V50.4844C124.912 52.0729 123.823 52.5452 122.952 52.5452C121.558 52.5452 121.035 51.6436 121.035 50.4844V40.0947C121.035 38.7209 121.383 37.7334 122.952 37.7334C124.128 37.7334 124.868 38.7209 124.868 39.8371V40.8246H128.005V39.7083C128.092 36.8748 125.914 34.8569 123.039 34.8569Z" fill="white"/>
<path d="M135.498 35.0288L130.619 55.293H133.755L134.801 50.4845H138.765L139.854 55.293H142.99L138.111 35.0288H135.498ZM135.323 47.8227L136.717 41.1252H136.761L138.155 47.8227H135.323V47.8227Z" fill="white"/>
<path d="M153.401 45.719L149.002 35.0288H146.344V55.293H149.394V44.1735L153.576 53.8333L157.366 44.1735V55.293H160.459V35.0288H157.758L153.401 45.719Z" fill="white"/>
<path d="M169.302 35.0288H166.253H164.685V55.293H167.821V46.5347H169.302C172.744 46.5347 175.488 43.9588 175.488 40.7818C175.488 37.6048 172.7 35.0288 169.302 35.0288ZM169.302 43.7871H167.821V37.7765H169.302C171.088 37.7765 172.526 39.1074 172.526 40.7818C172.526 42.4132 171.088 43.7871 169.302 43.7871Z" fill="white"/>
<g opacity="0.8">
<path opacity="0.8" d="M22.627 55.2931H52.1188L47.2397 47.0929C47.1091 46.8783 46.8477 46.7495 46.5863 46.7924C44.4953 47.0929 30.7731 48.6814 22.627 55.2931Z" fill="white"/>
</g>
<path d="M22.6274 55.2931C22.6274 55.2931 36.4368 47.2218 45.4106 45.0322C45.672 44.9893 45.7591 44.6888 45.672 44.4741L37.3951 30.521L22.6274 55.2931Z" fill="white"/>
<path d="M194.96 50.0126C194.568 50.5278 194.002 51.4294 193.697 51.9875C191.301 50.6566 189.166 48.5958 188.077 45.1612C187.38 47.866 185.376 50.3561 182.501 51.9875C182.153 51.4294 181.543 50.5278 181.194 50.0126C185.376 48.0377 186.857 44.7319 186.857 39.9664C186.857 39.6659 186.857 39.1936 186.814 38.8931C187.467 38.8931 188.513 38.936 188.992 38.9789C188.992 39.0648 188.948 39.3224 188.948 39.4941C188.948 39.7947 188.948 40.0522 188.948 40.3528C189.166 45.8911 192.041 48.7676 194.96 50.0126Z" fill="white"/>
<path d="M199.883 51.0424C199.883 51.3429 199.883 51.6434 199.926 51.901H197.923C197.923 51.6434 197.966 51.3429 197.966 51.0424C197.966 50.4842 198.01 47.9941 198.053 45.8905C197.574 47.3502 196.964 48.5952 196.311 49.368C196.18 48.8528 195.744 47.9512 195.439 47.3931C196.18 46.5774 197.182 44.903 197.705 43.1428H196.572C196.267 43.1428 196.006 43.1428 195.744 43.1428V41.4255C195.962 41.4255 196.267 41.4255 196.572 41.4255H197.966V39.15C197.966 39.0642 197.966 38.8495 197.923 38.7207C198.358 38.7207 199.491 38.7636 199.926 38.8066C199.926 38.9354 199.883 39.0642 199.883 39.193V41.4684H200.798C201.103 41.4684 201.364 41.4684 201.625 41.4684V43.2286C201.408 43.2286 201.103 43.2286 200.798 43.2286H200.057C200.536 44.3019 201.32 45.2465 201.887 45.7617C201.625 46.2768 201.277 47.1355 201.19 47.6078C200.711 47.1355 200.231 46.4056 199.796 45.547C199.839 47.6507 199.883 50.4413 199.883 51.0424ZM209.031 41.4255V43.1857C208.77 43.1857 208.465 43.1857 208.116 43.1857H207.463V48.8957C207.463 49.1104 207.506 49.9261 207.506 50.1408C207.506 51.1712 206.548 51.8581 204.152 51.8581C203.978 51.4288 203.542 50.5272 203.237 49.9261C203.237 49.9261 203.934 50.0549 204.631 50.0549C205.285 50.0549 205.546 49.9261 205.546 49.5827V48.8957C205.546 48.7669 205.59 46.7062 205.633 45.3323C204.631 47.0496 203.368 48.6381 201.974 49.6685C201.712 49.2821 201.103 48.5523 200.754 48.1229C202.279 47.1784 203.978 45.1606 204.936 43.1428H203.019C202.671 43.1428 202.366 43.1428 202.105 43.1428V41.4255C202.366 41.4255 202.671 41.4255 203.019 41.4255H205.502V39.2788C205.502 39.15 205.502 38.8924 205.459 38.7636C205.894 38.7636 207.071 38.8066 207.463 38.8495C207.463 38.9783 207.419 39.15 207.419 39.2788V41.4255H208.073C208.465 41.4255 208.77 41.4255 209.031 41.4255Z" fill="white"/>
<path d="M214.912 43.229C215.217 43.9159 215.609 45.2039 215.827 46.3201C215.391 46.4489 214.868 46.5777 214.476 46.7065C214.433 46.4489 214.389 46.1913 214.346 45.9337L213.605 46.0196V51.2144C213.605 51.4291 213.605 51.6867 213.605 51.8584H211.95C211.993 51.6867 211.993 51.4291 211.993 51.2144V46.1913C211.471 46.2343 210.948 46.2772 210.643 46.3201C210.469 46.3631 210.164 46.406 209.946 46.4489L209.728 44.8175C209.946 44.8175 210.294 44.8604 210.599 44.8175C210.686 44.8175 210.774 44.8175 210.861 44.8175C211.122 44.5169 211.383 44.1306 211.688 43.7871C211.078 43.0572 210.425 42.3703 209.815 41.7693L210.686 40.3954L211.078 40.8247C211.558 40.009 212.037 39.0645 212.211 38.5493L213.649 39.365C213.605 39.408 213.518 39.5368 213.474 39.5797C213.126 40.2666 212.603 41.2111 212.124 41.9839L212.56 42.4991C213.169 41.5117 213.736 40.5671 213.954 40.009L215.348 40.8247C215.304 40.9106 215.217 40.9965 215.173 41.0823C214.651 42.0269 213.692 43.4866 212.734 44.6457C213.213 44.6028 213.649 44.5599 214.041 44.517C213.954 44.1306 213.823 43.7871 213.692 43.4866L214.912 43.229ZM210.381 46.9212C210.817 47.007 211.383 47.0929 211.688 47.1358C211.688 47.1788 211.645 47.3076 211.645 47.4364C211.601 49.0249 211.471 50.1411 211.166 51.2144C210.948 51.1286 210.294 50.871 209.815 50.6992C210.164 49.7118 210.338 48.4238 210.381 46.9212ZM215.13 46.7924C215.304 47.4793 215.565 48.7243 215.696 49.9694C215.478 50.0123 214.825 50.227 214.302 50.3558C214.302 49.3254 214.084 47.9086 213.91 47.0929L215.13 46.7924ZM223.015 39.8802C223.015 42.3703 222.928 43.3578 222.623 44.0018C222.23 44.8175 221.229 45.2897 219.355 45.2897C219.268 44.9463 219.007 44.1306 218.789 43.5295C218.223 44.3882 217.395 45.0321 216.35 45.5044C216.132 45.118 215.609 44.3882 215.304 43.9159C216.916 43.2719 217.656 42.2845 217.874 40.9106H216.742C216.437 40.9106 216.175 40.9106 215.914 40.9106V39.3221C216.175 39.3221 216.437 39.3221 216.742 39.3221H223.058C223.058 39.4938 223.015 39.7514 223.015 39.8802ZM222.753 46.406V51.2574V51.8584H220.88V51.2144H218.005V51.9014H216.132C216.132 51.7296 216.175 51.515 216.175 51.3003V46.3631C216.175 46.1484 216.175 45.9337 216.132 45.762H222.71C222.753 45.9767 222.753 46.1484 222.753 46.406ZM220.88 49.5401V47.3934H218.005V49.5401H220.88ZM220.924 43.0143C221.054 42.7138 221.098 42.2415 221.141 40.9535H219.617C219.53 41.8981 219.268 42.7138 218.833 43.4436C219.094 43.5295 219.399 43.5295 219.704 43.5295C220.401 43.5295 220.749 43.3578 220.924 43.0143Z" fill="white"/>
<path d="M237.913 43.5724C237.565 44.0446 237.042 44.8603 236.824 45.3755C234.733 44.3451 232.511 42.499 230.9 40.5671C229.288 42.5849 226.979 44.431 224.844 45.4614C224.627 44.9462 224.104 44.1305 223.755 43.6153C225.933 42.6708 228.809 40.61 229.941 38.4634C230.682 38.5922 231.335 38.721 232.119 38.8498C232.076 38.8927 232.032 38.9356 231.989 39.0215C233.165 40.8247 235.822 42.6278 237.913 43.5724ZM227.807 43.7012C228.417 43.7012 229.331 43.7441 229.854 43.787C229.854 43.83 229.811 44.0446 229.811 44.2163C229.811 48.896 228.46 50.8709 225.672 52.0301C225.28 51.6437 224.452 50.9138 223.973 50.4845C226.805 49.5829 227.85 48.0373 227.85 44.3881C227.85 44.1734 227.807 43.8729 227.807 43.7012ZM234.036 44.2593V51.0426C234.036 51.3002 234.036 51.6008 234.08 51.8584H231.945C231.989 51.6437 231.989 51.3432 231.989 51.0426V44.2593C231.989 44.0446 231.989 43.787 231.945 43.6153C232.381 43.6153 233.644 43.6582 234.08 43.7012C234.036 43.8729 234.036 44.0876 234.036 44.2593Z" fill="white"/>
<path d="M251.373 42.1126V44.2163C251.199 44.2163 250.807 44.1734 250.459 44.1734H248.847V44.4739C248.847 47.7368 247.235 50.0551 243.968 51.3431C243.532 50.8709 242.879 50.2269 242.269 49.7976C245.449 48.8101 246.712 47.1787 246.712 44.5168V44.1734H243.968V46.0624C243.968 46.4488 244.011 46.9211 244.011 47.0069H241.833C241.833 46.964 241.877 46.4917 241.877 46.0624V44.1734H240.047C239.742 44.1734 239.307 44.1734 239.132 44.2163V42.1126C239.307 42.1126 239.699 42.1555 240.047 42.1555H241.877V40.9105C241.877 40.2665 241.877 39.8801 241.833 39.5796L244.098 39.7513C244.055 39.966 244.011 40.4382 244.011 40.7817V42.1126H246.799V40.61C246.799 40.2236 246.756 40.0089 246.712 39.5796L248.977 39.7513C248.934 40.0948 248.89 40.6958 248.89 41.1252V42.1985H250.502C250.763 42.1555 251.199 42.1555 251.373 42.1126Z" fill="white"/>
<path d="M265.052 46.7491C265.009 46.7491 264.399 46.7062 263.876 46.7062H254.815C254.292 46.7062 253.639 46.7491 253.639 46.7491V44.5596C253.682 44.5596 254.292 44.6025 254.815 44.6025H263.876C264.442 44.6025 265.052 44.5596 265.052 44.5596V46.7491Z" fill="white"/>
<path d="M278.382 48.5094L278.469 50.6561C276.901 50.7849 275.071 50.8707 273.416 50.8707C270.584 50.8707 269.234 50.4414 269.234 48.166V40.9962C269.234 40.6528 269.19 40.1805 269.19 39.9229L271.499 40.0946C271.456 40.3093 271.412 40.9962 271.412 41.168V44.0444C273.503 43.5722 276.291 42.6706 277.249 41.9407L278.382 43.9586C278.077 44.0015 277.99 44.0444 277.598 44.1732C275.986 44.7743 273.764 45.4612 271.412 45.9335V47.6937C271.412 48.6812 271.804 48.8958 273.416 48.8958C274.854 48.8958 277.511 48.6812 278.382 48.5094ZM279.34 40.7816L278.295 41.3826C277.99 40.8674 277.38 40.0946 276.901 39.6224L277.859 39.0643C278.339 39.4936 279.036 40.3522 279.34 40.7816ZM280.865 39.9229L279.907 40.524C279.602 40.0088 279.036 39.2789 278.469 38.8067L279.428 38.2485C279.907 38.6349 280.604 39.4506 280.865 39.9229Z" fill="white"/>
<path d="M294.065 49.2392L292.453 50.9565C291.364 49.7114 290.101 48.5093 288.532 47.5219C287.182 48.9386 285.527 50.1837 283.523 51.1711C283.087 50.6989 282.521 49.969 281.824 49.4538C285.004 48.2517 288.315 45.0747 289.36 42.7134H284.263C283.958 42.7134 283.436 42.7134 283.087 42.7563V40.5239C283.392 40.5239 283.915 40.5668 284.263 40.5668H290.493L290.667 40.438L292.366 41.683L292.148 41.8977C291.582 43.2286 290.798 44.6025 289.796 45.9334C291.407 46.8779 292.801 48.0371 294.065 49.2392Z" fill="white"/>
</svg>
