<svg width="321" height="91" viewBox="0 0 321 91" fill="none" xmlns="http://www.w3.org/2000/svg">
<rect x="0.0917969" width="320" height="90.2275" fill="#007972"/>
<path d="M320.092 73.9861V16.2417L0.0917969 16.2417V73.9861L320.092 73.9861Z" fill="#007972"/>
<path d="M56.3008 37.7765H60.4828V55.293H63.6193V37.7765H67.8013V35.0288H56.3008V37.7765Z" fill="white"/>
<path d="M71.7656 55.293H81.088V52.4165H74.9021V45.9337H80.3039V43.186H74.9021V37.7765H81.088V35.0288H71.7656V55.293Z" fill="white"/>
<path d="M90.3229 34.8569C87.2735 34.8569 85.2261 36.8748 85.2261 39.5366V50.6991C85.2261 54.3913 87.9705 55.4646 90.3665 55.4646C93.1545 55.4646 95.3326 53.275 95.3326 50.7849V49.5399H92.1961V50.5273C92.1961 52.1158 91.107 52.5881 90.2358 52.5881C88.8418 52.5881 88.319 51.6865 88.319 50.5273V40.1376C88.319 38.7638 88.6675 37.7763 90.2358 37.7763C91.412 37.7763 92.1525 38.7638 92.1525 39.88V40.8675H95.289V39.7083C95.3326 36.8748 93.198 34.8569 90.3229 34.8569Z" fill="white"/>
<path d="M106.441 43.186H102.564V35.0288H99.4712V55.293H102.564V45.762H106.441V55.293H109.578V35.0288H106.441V43.186Z" fill="white"/>
<path d="M123.039 34.8569C119.989 34.8569 117.942 36.8748 117.942 39.5366V50.6991C117.942 54.3913 120.686 55.4646 123.082 55.4646C125.87 55.4646 128.048 53.275 128.048 50.7849V49.5399H124.912V50.5273C124.912 52.1158 123.823 52.5881 122.952 52.5881C121.558 52.5881 121.035 51.6865 121.035 50.5273V40.1376C121.035 38.7638 121.383 37.7763 122.952 37.7763C124.128 37.7763 124.868 38.7638 124.868 39.88V40.8675H128.005V39.7083C128.092 36.8748 125.914 34.8569 123.039 34.8569Z" fill="white"/>
<path d="M135.497 35.0288L130.618 55.293H133.755L134.8 50.4845H138.764L139.853 55.293H142.99L138.111 35.0288H135.497ZM135.323 47.8227L136.717 41.1252H136.76L138.154 47.8227H135.323V47.8227Z" fill="white"/>
<path d="M153.401 45.719L149.002 35.0288H146.344V55.293H149.394V44.1735L153.576 53.8333L157.366 44.1735V55.293H160.458V35.0288H157.758L153.401 45.719Z" fill="white"/>
<path d="M169.302 35.0288H166.252H164.684V55.293H167.821V46.5347H169.302C172.743 46.5347 175.488 43.9588 175.488 40.7818C175.488 37.6048 172.7 35.0288 169.302 35.0288ZM169.302 43.7871H167.821V37.7765H169.302C171.088 37.7765 172.525 39.1074 172.525 40.7818C172.525 42.4561 171.088 43.7871 169.302 43.7871Z" fill="white"/>
<g opacity="0.8">
<path opacity="0.8" d="M22.627 55.2931H52.1188L47.2397 47.0929C47.1091 46.8783 46.8477 46.7495 46.5863 46.7924C44.4953 47.0929 30.7731 48.6814 22.627 55.2931Z" fill="white"/>
</g>
<path d="M22.627 55.2931C22.627 55.2931 36.4363 47.2218 45.4101 45.0322C45.6715 44.9893 45.7586 44.6888 45.6715 44.4741L37.3946 30.521L22.627 55.2931Z" fill="white"/>
<path d="M185.115 47.4365C184.636 48.4669 183.765 50.2701 183.111 51.2575C183.024 51.4292 182.85 51.7298 182.763 51.9444L181.151 50.5277C181.282 50.3989 181.499 50.1413 181.63 49.9266C182.371 48.8104 183.416 46.7496 183.895 45.7192C184.374 46.3632 184.984 47.2648 185.115 47.4365ZM183.677 45.3757C182.98 44.8176 181.891 44.0878 181.238 43.7014C181.369 43.4867 181.848 42.7139 182.24 42.0699C182.806 42.3705 184.026 43.1433 184.679 43.6584C184.374 44.2166 183.982 44.8606 183.677 45.3757ZM184.244 42.0699C183.503 41.4689 182.458 40.739 181.761 40.3956C181.891 40.2238 182.371 39.451 182.763 38.8071C183.373 39.1076 184.549 39.8804 185.246 40.4385C184.941 40.9108 184.549 41.5977 184.244 42.0699ZM193.131 51.9444C192.956 51.5151 192.738 51.0858 192.521 50.6135C190.865 50.8711 187.38 51.3434 185.943 51.4722C185.681 51.5151 185.289 51.558 185.071 51.601L184.592 49.5831C184.897 49.5831 185.42 49.5402 185.768 49.5402C185.986 49.5402 186.248 49.4973 186.553 49.4973C186.988 48.5098 187.467 47.2648 187.772 46.2344H185.943C185.464 46.2344 185.028 46.2344 184.723 46.2773V44.3454C185.028 44.3883 185.464 44.3883 185.943 44.3883H188.6V42.5422H186.509C186.073 42.5422 185.725 42.5422 185.464 42.5422V40.6961C185.725 40.739 186.117 40.739 186.509 40.739H188.6V39.2793C188.6 39.1505 188.6 38.85 188.556 38.7212C188.992 38.7212 190.168 38.7641 190.604 38.8071C190.56 38.9359 190.56 39.1505 190.56 39.2793V40.739H192.782C193.218 40.739 193.566 40.739 193.828 40.6961V42.5422C193.523 42.5422 193.174 42.5422 192.782 42.5422H190.56V44.3883H193.435C193.915 44.3883 194.307 44.3883 194.655 44.3454V46.2344C194.35 46.1915 193.958 46.1915 193.435 46.1915H189.82C189.515 47.0501 189.123 48.1664 188.687 49.1967C189.689 49.068 190.735 48.9392 191.519 48.8104C191.257 48.2522 190.909 47.737 190.647 47.3936C191.04 47.2219 191.954 46.9213 192.216 46.8355C192.913 47.6941 194.132 49.5402 194.96 51.2146C194.612 51.3434 193.784 51.6868 193.131 51.9444Z" fill="white"/>
<path d="M209.205 50.0121C208.813 50.5273 208.247 51.4289 207.942 51.987C205.546 50.6561 203.411 48.5953 202.322 45.1607C201.625 47.8655 199.621 50.3556 196.746 51.987C196.398 51.4289 195.788 50.5273 195.439 50.0121C199.621 48.0372 201.103 44.7314 201.103 39.9659C201.103 39.6654 201.103 39.1931 201.059 38.8926C201.712 38.8926 202.758 38.9355 203.237 38.9784C203.237 39.0643 203.194 39.3219 203.194 39.4936C203.194 39.7942 203.194 40.0518 203.194 40.3523C203.455 45.8906 206.33 48.7671 209.205 50.0121Z" fill="white"/>
<path d="M215.304 49.8402H212.603V50.9135H211.035C211.035 50.7418 211.078 50.4842 211.078 50.2695V46.5773C210.817 46.9637 210.556 47.2642 210.251 47.5218C210.12 47.0496 209.815 46.148 209.554 45.5899C210.338 44.7741 211.253 42.971 211.645 41.039H210.773C210.469 41.039 210.207 41.039 209.989 41.039V39.2788C210.207 39.2788 210.512 39.2788 210.773 39.2788H214.781C215.086 39.2788 215.348 39.2788 215.565 39.2788V41.0819C215.348 41.0819 215.043 41.0819 214.781 41.0819H213.257C213.082 41.8547 212.908 42.5846 212.647 43.3144H215.26C215.26 43.5291 215.26 43.7008 215.26 43.9155V49.2821L215.304 49.8402ZM213.692 48.2517V44.8171H212.603V48.2517H213.692ZM223.319 43.8296V45.7187C223.058 45.7187 222.71 45.7187 222.318 45.7187H222.143V50.8276C222.143 51.1711 222.143 51.5575 222.187 51.8151H220.227C220.227 51.5146 220.27 51.1711 220.27 50.8276V45.7187H219.007C219.007 48.3805 217.918 50.9135 216.175 52.0298C215.783 51.6434 215.043 51.0852 214.563 50.7418C216.088 49.8402 217.134 48.2088 217.134 45.7187V45.7187H216.698C216.306 45.7187 215.957 45.7187 215.696 45.7187V43.8296C215.957 43.8296 216.306 43.8296 216.698 43.8296H217.134V40.9961H217.09C216.742 40.9961 216.437 40.9961 216.175 40.9961V39.2358C216.437 39.2358 216.742 39.2358 217.09 39.2358H222.143C222.492 39.2358 222.797 39.2358 223.058 39.2358V40.9961C222.797 40.9961 222.535 40.9961 222.187 40.9961V43.8726H222.361C222.71 43.8726 223.015 43.8726 223.319 43.8296ZM220.227 43.8726V40.9961H218.963V43.8726H220.227V43.8726Z" fill="white"/>
<path d="M227.109 50.871C227.109 51.2144 227.109 51.5579 227.153 51.8155H225.236C225.236 51.5579 225.28 51.2144 225.28 50.871C225.28 49.3683 225.367 46.8782 225.498 44.7316C225.193 45.2897 224.888 45.762 224.583 46.1055C224.452 45.5473 224.104 44.6028 223.886 44.0876C224.801 42.9714 225.977 40.3525 226.282 38.6781L228.068 39.1504L227.981 39.3221C227.763 40.0949 227.501 40.9106 227.196 41.6405V50.871H227.109ZM227.676 49.0678V41.2541C227.676 41.0823 227.676 40.8247 227.676 40.6959C227.981 40.6959 228.939 40.7389 229.244 40.7389C229.2 40.9106 229.2 41.1253 229.2 41.2541V41.6405C230.028 40.9535 230.856 39.7944 231.204 38.5493L232.947 38.9786C232.903 39.0216 232.86 39.1074 232.86 39.1504C232.772 39.408 232.642 39.6656 232.555 39.8802H236.693C236.998 39.8802 237.259 39.8802 237.521 39.8802V41.4258C237.259 41.4258 236.998 41.4258 236.693 41.4258H236.475C236.127 42.1127 235.604 42.7567 234.994 43.3148C235.822 43.6154 236.824 43.83 237.826 43.9588C237.564 44.474 237.172 45.2897 237.042 45.5903C235.735 45.3327 234.559 44.9033 233.557 44.3023C232.598 44.8604 231.422 45.2897 230.159 45.5473C229.984 45.2468 229.549 44.6458 229.244 44.2164V49.0678C229.244 49.3254 229.244 49.583 229.287 49.7977H227.676C227.676 49.583 227.676 49.2825 227.676 49.0678ZM237.956 47.9516L237.826 47.9945C235.648 50.0123 233.6 51.1715 229.68 51.7726C229.549 51.472 229.157 50.7422 228.852 50.3129C232.511 50.0123 235.038 48.6385 236.867 46.8782L237.956 47.9516ZM229.2 42.2845V44.0018C230.246 43.873 231.248 43.6583 232.119 43.3148C231.727 42.9714 231.378 42.585 231.074 42.1986C230.725 42.585 230.377 42.9714 229.941 43.3578C229.81 43.0572 229.505 42.6709 229.2 42.2845ZM234.559 45.6761C233.426 46.5777 232.163 47.2646 230.028 47.651C229.897 47.3934 229.505 46.7495 229.244 46.3631C231.248 46.0625 232.642 45.4615 233.687 44.6887L234.733 45.5903C234.689 45.5903 234.602 45.6332 234.559 45.6761ZM230.115 49.6259C229.984 49.3683 229.549 48.6814 229.287 48.2521C231.901 47.9516 234.079 46.7924 235.256 45.6332L236.345 46.6207C236.301 46.6636 236.257 46.7065 236.214 46.7065C234.471 48.295 232.075 49.4113 230.115 49.6259ZM234.646 41.3829H232.293C232.642 41.8551 233.034 42.2415 233.513 42.5421C233.992 42.2415 234.341 41.8551 234.646 41.3829Z" fill="white"/>
<path d="M251.373 42.1126V44.2163C251.199 44.2163 250.807 44.1734 250.459 44.1734H248.847V44.4739C248.847 47.7368 247.235 50.0552 243.968 51.3431C243.532 50.8709 242.879 50.2269 242.269 49.7976C245.449 48.8101 246.712 47.1787 246.712 44.5168V44.1734H243.968V46.0624C243.968 46.4488 244.011 46.9211 244.011 47.0069H241.833C241.833 46.964 241.877 46.4917 241.877 46.0624V44.1734H240.047C239.742 44.1734 239.307 44.1734 239.132 44.2163V42.1126C239.307 42.1126 239.699 42.1555 240.047 42.1555H241.877V40.9534C241.877 40.3094 241.877 39.923 241.833 39.6225L244.098 39.7943C244.055 40.0089 244.011 40.4812 244.011 40.8246V42.1555H246.799V40.61C246.799 40.2236 246.756 40.0089 246.712 39.5796L248.977 39.7513C248.934 40.0948 248.89 40.6958 248.89 41.1252V42.1985H250.502C250.764 42.1555 251.199 42.1555 251.373 42.1126Z" fill="white"/>
<path d="M265.052 46.7921C265.008 46.7921 264.399 46.7491 263.876 46.7491H254.815C254.292 46.7491 253.639 46.7921 253.639 46.7921V44.5596C253.682 44.5596 254.292 44.6025 254.815 44.6025H263.876C264.442 44.6025 265.052 44.5596 265.052 44.5596V46.7921Z" fill="white"/>
<path d="M278.382 48.5094L278.469 50.6561C276.901 50.7849 275.071 50.8707 273.416 50.8707C270.584 50.8707 269.234 50.4414 269.234 48.166V40.9962C269.234 40.6528 269.19 40.1805 269.19 39.9229L271.499 40.0946C271.456 40.3093 271.412 40.9962 271.412 41.168V44.0444C273.503 43.5722 276.291 42.6706 277.25 41.9407L278.382 43.9586C278.077 44.0015 277.99 44.0444 277.598 44.1732C275.986 44.7743 273.765 45.4612 271.412 45.9335V47.6937C271.412 48.6812 271.804 48.8958 273.416 48.8958C274.854 48.8958 277.511 48.6812 278.382 48.5094ZM279.341 40.8245L278.295 41.4255C277.99 40.9104 277.38 40.1376 276.901 39.6653L277.859 39.1072C278.339 39.4936 279.036 40.3522 279.341 40.8245ZM280.865 39.9229L279.907 40.524C279.602 40.0088 279.036 39.2789 278.469 38.8067L279.428 38.2485C279.907 38.6779 280.604 39.4936 280.865 39.9229Z" fill="white"/>
<path d="M294.065 49.2392L292.453 50.9565C291.364 49.7115 290.101 48.5094 288.532 47.5219C287.182 48.9387 285.527 50.1837 283.523 51.1712C283.087 50.6989 282.521 49.9691 281.824 49.4539C285.004 48.2518 288.315 45.0747 289.36 42.7135H284.263C283.958 42.7135 283.436 42.7135 283.087 42.7564V40.5668C283.392 40.5668 283.915 40.6098 284.263 40.6098H290.493L290.667 40.481L292.366 41.726L292.148 41.9407C291.582 43.2716 290.798 44.6454 289.796 45.9763C291.407 46.8779 292.801 48.0371 294.065 49.2392Z" fill="white"/>
</svg>
