<svg width="110" height="130" viewBox="0 0 110 130" fill="none" xmlns="http://www.w3.org/2000/svg">
<path d="M110 0H88.3748H21.6252H0V21.4031V108.062V129.465H21.6252H88.3748H110V108.062V21.4031V0Z" fill="#007972"/>
<path d="M28.7374 106.279C28.4971 106.802 28.0646 107.682 27.7522 108.205C27.7042 108.276 27.6081 108.443 27.56 108.562L26.7671 107.848C26.8151 107.777 26.9353 107.658 27.0074 107.563C27.3678 107.016 27.8964 105.969 28.1367 105.47C28.3529 105.732 28.6653 106.183 28.7374 106.279ZM28.0165 105.232C27.6802 104.947 27.1275 104.59 26.8151 104.4C26.8872 104.281 27.1275 103.9 27.2957 103.591C27.584 103.734 28.1847 104.138 28.5211 104.376C28.377 104.661 28.1847 104.994 28.0165 105.232ZM28.3049 103.591C27.9445 103.306 27.4158 102.925 27.0554 102.735C27.1275 102.64 27.3678 102.26 27.56 101.95C27.8724 102.117 28.449 102.497 28.7854 102.759C28.6413 102.997 28.449 103.353 28.3049 103.591ZM32.7501 108.514C32.678 108.3 32.5578 108.086 32.4377 107.848C31.6207 107.967 29.8907 108.205 29.1699 108.276C29.0497 108.3 28.8575 108.324 28.7374 108.348L28.4971 107.325C28.6413 107.325 28.9056 107.301 29.0978 107.301C29.2179 107.301 29.3381 107.277 29.4823 107.277C29.6985 106.802 29.9388 106.16 30.083 105.636H29.1699C28.9296 105.636 28.7134 105.636 28.5692 105.66V104.709C28.7374 104.733 28.9296 104.733 29.1699 104.733H30.4914V103.829H29.4582C29.242 103.829 29.0738 103.829 28.9296 103.829V102.902C29.0738 102.925 29.242 102.925 29.4582 102.925H30.4914V102.188C30.4914 102.117 30.4914 101.974 30.4674 101.903C30.6837 101.903 31.2603 101.927 31.4766 101.95C31.4525 102.022 31.4525 102.117 31.4525 102.188V102.925H32.5578C32.7741 102.925 32.9423 102.925 33.0864 102.902V103.829C32.9423 103.829 32.7741 103.829 32.5578 103.829H31.4766V104.733H32.9183C33.1585 104.733 33.3508 104.733 33.519 104.709V105.66C33.3508 105.636 33.1585 105.636 32.9183 105.636H31.1162C30.972 106.065 30.7557 106.635 30.5635 107.135C31.0681 107.063 31.5727 106.992 31.9812 106.944C31.813 106.659 31.6448 106.421 31.5006 106.231C31.6928 106.16 32.1494 105.993 32.2695 105.969C32.6299 106.397 33.2306 107.325 33.6151 108.181C33.4709 108.229 33.0624 108.395 32.7501 108.514Z" fill="white"/>
<path d="M40.7513 107.562C40.5591 107.824 40.2707 108.276 40.1266 108.537C38.9252 107.872 37.8679 106.825 37.3153 105.113C36.9549 106.468 35.9697 107.705 34.5521 108.537C34.3839 108.252 34.0715 107.8 33.9033 107.562C35.9938 106.564 36.7386 104.923 36.7386 102.521C36.7386 102.354 36.7386 102.14 36.7146 101.998C37.051 101.998 37.5556 102.021 37.7959 102.045C37.7959 102.093 37.7718 102.235 37.7718 102.307C37.7718 102.449 37.7718 102.592 37.7718 102.735C37.8679 105.493 39.2856 106.944 40.7513 107.562Z" fill="white"/>
<path d="M43.7548 107.467H42.4093V108.014H41.6163C41.6163 107.919 41.6404 107.8 41.6404 107.681V105.826C41.5202 106.017 41.3761 106.159 41.2319 106.302C41.1838 106.064 41.0156 105.612 40.8955 105.351C41.28 104.946 41.7365 104.043 41.9287 103.068H41.4962C41.352 103.068 41.2079 103.068 41.0877 103.068V102.164C41.2079 102.164 41.352 102.164 41.4962 102.164H43.4905C43.6347 102.164 43.7548 102.164 43.899 102.164V103.068C43.7789 103.068 43.6347 103.068 43.4905 103.068H42.7457C42.6736 103.448 42.5534 103.829 42.4573 104.185H43.7548C43.7548 104.281 43.7548 104.376 43.7548 104.495V107.182V107.467ZM42.9619 106.659V104.946H42.4093V106.659H42.9619ZM47.7435 104.471V105.398C47.5993 105.398 47.4311 105.398 47.2629 105.398H47.1668V107.967C47.1668 108.133 47.1668 108.323 47.1908 108.466H46.2057C46.2057 108.323 46.2297 108.133 46.2297 107.967V105.398H45.605C45.605 106.754 45.0523 107.99 44.1873 108.561C43.9951 108.371 43.6107 108.086 43.3944 107.919C44.1633 107.467 44.6679 106.635 44.6679 105.422V105.398H44.4516C44.2594 105.398 44.0912 105.398 43.9471 105.398V104.471C44.0912 104.471 44.2594 104.471 44.4516 104.471H44.6679V103.044H44.6439C44.4757 103.044 44.3075 103.044 44.1873 103.044V102.164C44.3075 102.164 44.4757 102.164 44.6439 102.164H47.1668C47.335 102.164 47.5032 102.164 47.6233 102.164V103.044C47.5032 103.044 47.359 103.044 47.1908 103.044V104.471H47.2869C47.4311 104.471 47.5993 104.471 47.7435 104.471ZM46.2057 104.471V103.044H45.581V104.471H46.2057Z" fill="white"/>
<path d="M49.6416 107.992C49.6416 108.158 49.6416 108.325 49.6656 108.467H48.7045C48.7045 108.325 48.7286 108.158 48.7286 107.992C48.7286 107.255 48.7766 105.994 48.8247 104.9C48.6805 105.186 48.5123 105.423 48.3681 105.59C48.296 105.305 48.1279 104.853 48.0317 104.567C48.4883 104.02 49.0649 102.689 49.2091 101.856L50.0981 102.094L50.0501 102.189C49.954 102.57 49.8098 102.974 49.6416 103.355V107.992ZM49.9059 107.088V103.188C49.9059 103.093 49.9059 102.974 49.9059 102.903C50.0741 102.903 50.5306 102.926 50.6988 102.926C50.6748 102.998 50.6748 103.117 50.6748 103.188V103.378C51.0833 103.022 51.4918 102.451 51.66 101.833L52.525 102.047C52.5009 102.07 52.4769 102.118 52.4769 102.142C52.4289 102.261 52.3568 102.379 52.3087 102.498H54.3751C54.5433 102.498 54.6635 102.498 54.7836 102.498V103.259C54.6635 103.259 54.5193 103.259 54.3751 103.259H54.279C54.0868 103.592 53.8465 103.925 53.5582 104.187C53.9666 104.353 54.4712 104.448 54.9758 104.52C54.8557 104.781 54.6394 105.186 54.5914 105.352C53.9426 105.233 53.3659 104.995 52.8614 104.71C52.3808 104.995 51.8041 105.209 51.1554 105.328C51.0593 105.186 50.867 104.877 50.6988 104.662V107.088C50.6988 107.207 50.6988 107.35 50.7229 107.469H49.9299C49.9059 107.35 49.9059 107.207 49.9059 107.088ZM55.0239 106.517L54.9758 106.565C53.8946 107.588 52.8614 108.158 50.9151 108.467C50.867 108.325 50.6508 107.968 50.5066 107.73C52.3327 107.564 53.5822 106.898 54.4953 106.018L55.0239 106.517ZM50.6748 103.711V104.567C51.2034 104.52 51.708 104.401 52.1405 104.211C51.9483 104.044 51.7561 103.854 51.6119 103.64C51.4437 103.83 51.2755 104.02 51.0593 104.211C50.9632 104.092 50.819 103.878 50.6748 103.711ZM53.3419 105.376C52.7653 105.828 52.1645 106.161 51.0833 106.375C51.0112 106.232 50.819 105.923 50.6988 105.733C51.708 105.566 52.3808 105.281 52.9094 104.9L53.414 105.352C53.39 105.352 53.3659 105.376 53.3419 105.376ZM51.1313 107.374C51.0593 107.231 50.867 106.898 50.7229 106.684C52.0204 106.541 53.1257 105.947 53.7023 105.376L54.231 105.875C54.2069 105.899 54.1829 105.923 54.1589 105.923C53.2939 106.708 52.0925 107.255 51.1313 107.374ZM53.39 103.259H52.2126C52.3808 103.497 52.573 103.687 52.8373 103.83C53.0536 103.664 53.2458 103.473 53.39 103.259Z" fill="white"/>
<path d="M61.7037 103.615V104.661C61.6316 104.661 61.4154 104.637 61.2472 104.637H60.4542V104.804C60.4542 106.445 59.6613 107.61 58.0034 108.228C57.7871 107.991 57.4507 107.681 57.1624 107.467C58.7483 106.968 59.397 106.159 59.397 104.828V104.637H58.0034V105.589C58.0034 105.779 58.0274 106.017 58.0274 106.064H56.9462C56.9462 106.041 56.9702 105.803 56.9702 105.589V104.637H56.0571C55.913 104.637 55.6967 104.637 55.6006 104.661V103.615C55.6727 103.615 55.8889 103.639 56.0571 103.639H56.9702V103.02C56.9702 102.687 56.9702 102.497 56.9462 102.354L58.0755 102.45C58.0514 102.545 58.0274 102.783 58.0274 102.973V103.639H59.421V102.878C59.421 102.687 59.397 102.569 59.373 102.354L60.5023 102.426C60.4783 102.592 60.4542 102.901 60.4542 103.115V103.639H61.2472C61.4154 103.639 61.6076 103.615 61.7037 103.615Z" fill="white"/>
<path d="M68.5038 105.945C68.4798 105.945 68.1674 105.922 67.9031 105.922H63.3859C63.1456 105.922 62.8092 105.945 62.7852 105.945V104.828C62.8092 104.828 63.1215 104.851 63.3859 104.851H67.9031C68.1674 104.851 68.4798 104.828 68.5038 104.828V105.945Z" fill="white"/>
<path d="M75.1352 106.801L75.1833 107.872C74.3904 107.943 73.5013 107.991 72.6604 107.991C71.2427 107.991 70.5699 107.777 70.5699 106.635V103.044C70.5699 102.878 70.5459 102.64 70.5459 102.497L71.6992 102.592C71.6752 102.687 71.6512 103.044 71.6512 103.139V104.566C72.6844 104.328 74.102 103.876 74.5586 103.52L75.1112 104.542C74.967 104.566 74.919 104.59 74.7027 104.637C73.8858 104.923 72.8045 105.279 71.6272 105.517V106.397C71.6272 106.897 71.8194 107.015 72.6123 107.015C73.3812 107.015 74.7027 106.897 75.1352 106.801ZM75.6158 102.949L75.1112 103.258C74.967 102.996 74.6547 102.616 74.4144 102.378L74.8949 102.093C75.1112 102.283 75.4716 102.735 75.6158 102.949ZM76.3847 102.521L75.9041 102.83C75.76 102.568 75.4716 102.212 75.1833 101.974L75.6638 101.688C75.8801 101.879 76.2405 102.283 76.3847 102.521Z" fill="white"/>
<path d="M82.9444 107.182L82.1275 108.038C81.5988 107.42 80.9501 106.801 80.1812 106.326C79.5084 107.015 78.6915 107.658 77.6823 108.157C77.466 107.919 77.2017 107.562 76.8413 107.301C78.4272 106.706 80.0851 105.113 80.5897 103.924H78.0427C77.8745 103.924 77.6342 103.924 77.466 103.948V102.854C77.6342 102.854 77.8745 102.877 78.0427 102.877H81.1423L81.2384 102.806L82.0794 103.424L81.9833 103.543C81.695 104.209 81.3105 104.899 80.8059 105.565C81.5988 105.993 82.2957 106.564 82.9444 107.182Z" fill="white"/>
<path d="M22.3701 86.232H24.6528V95.8634H26.3828V86.232H28.6654V84.71H22.3701V86.232Z" fill="white"/>
<path d="M30.8281 95.8629H35.9221V94.2695H32.5341V90.7023H35.4895V89.2041H32.5341V86.2315H35.9221V84.7095H30.8281V95.8629Z" fill="white"/>
<path d="M40.9918 84.6138C39.3339 84.6138 38.2046 85.7315 38.2046 87.1821V93.3177C38.2046 95.3629 39.7183 95.9574 41.0159 95.9574C42.5536 95.9574 43.731 94.7446 43.731 93.3653V92.6756H42.025V93.2226C42.025 94.1025 41.4243 94.3403 40.9438 94.3403C40.1749 94.3403 39.9106 93.8409 39.9106 93.1988V87.4913C39.9106 86.7303 40.1028 86.1833 40.9678 86.1833C41.6166 86.1833 42.025 86.7065 42.025 87.3486V87.8718H43.731V87.2773C43.731 85.7315 42.5536 84.6138 40.9918 84.6138Z" fill="white"/>
<path d="M49.8102 89.2041H47.6957V84.7095H45.9897V95.8629H47.6957V90.6072H49.8102V95.8629H51.5402V84.7095H49.8102V89.2041Z" fill="white"/>
<path d="M58.9166 84.6138C57.2587 84.6138 56.1294 85.7315 56.1294 87.1821V93.3177C56.1294 95.3629 57.6432 95.9574 58.9407 95.9574C60.4784 95.9574 61.6558 94.7446 61.6558 93.3653V92.6756H59.9498V93.2226C59.9498 94.1025 59.3491 94.3403 58.8686 94.3403C58.0997 94.3403 57.8354 93.8409 57.8354 93.1988V87.4913C57.8354 86.7303 58.0276 86.1833 58.8926 86.1833C59.5414 86.1833 59.9498 86.7065 59.9498 87.3486V87.8718H61.6558V87.2773C61.6558 85.7315 60.4784 84.6138 58.9166 84.6138Z" fill="white"/>
<path d="M65.7164 84.7095L63.0493 95.8629H64.7553L65.332 93.2231H67.5185L68.0952 95.8629H69.8012L67.1341 84.7095H65.7164ZM65.6443 91.7487L66.4132 88.0626H66.4373L67.2062 91.7487H65.6443Z" fill="white"/>
<path d="M75.5439 90.6072L73.1171 84.7095H71.6514V95.8629H73.3333V89.7511L75.616 95.0543L77.7064 89.7511V95.8629H79.3884V84.7095H77.8986L75.5439 90.6072Z" fill="white"/>
<path d="M84.2183 84.7095H82.5363H81.6953V95.8629H83.4013V91.0353H84.2183C86.0924 91.0353 87.6062 89.6084 87.6062 87.8724C87.6302 86.1363 86.0924 84.7095 84.2183 84.7095ZM84.2183 89.5371H83.4013V86.2315H84.2183C85.2034 86.2315 85.9963 86.9687 85.9963 87.8724C85.9963 88.7998 85.2034 89.5371 84.2183 89.5371Z" fill="white"/>
<g opacity="0.8">
<path opacity="0.8" d="M22.3701 76.5992H87.6301L76.7934 58.3353C76.4811 57.8359 75.9044 57.5505 75.3037 57.6456C70.7144 58.3353 40.343 61.8549 22.3701 76.5992Z" fill="white"/>
</g>
<path d="M22.3701 76.5993C22.3701 76.5993 52.9097 58.6206 72.7568 53.7931C73.3094 53.6504 73.5737 53.0558 73.2854 52.5564L55.0001 21.5933L22.3701 76.5993Z" fill="white"/>
</svg>
