<svg width="110" height="131" viewBox="0 0 110 131" fill="none" xmlns="http://www.w3.org/2000/svg">
<path d="M110 0H88.3748H21.6252H0V21.5375V108.74V130.278H21.6252H88.3748H110V108.74V21.5375V0Z" fill="#007972"/>
<path d="M33.639 109.406C33.4468 109.672 33.1584 110.132 33.0143 110.398C31.8129 109.721 30.7556 108.656 30.203 106.915C29.8426 108.294 28.8574 109.551 27.4398 110.398C27.2716 110.108 26.9592 109.648 26.791 109.406C28.8814 108.39 29.6263 106.721 29.6263 104.278C29.6263 104.109 29.6263 103.891 29.6023 103.746C29.9387 103.746 30.4433 103.77 30.6835 103.794C30.6835 103.843 30.6595 103.988 30.6595 104.061C30.6595 104.206 30.6595 104.351 30.6595 104.496C30.7556 107.302 32.1973 108.753 33.639 109.406Z" fill="white"/>
<path d="M36.0656 109.938C36.0656 110.083 36.0656 110.252 36.0896 110.373H35.0804C35.0804 110.252 35.1044 110.083 35.1044 109.938C35.1044 109.648 35.1285 108.39 35.1525 107.301C34.9122 108.051 34.5998 108.68 34.2875 109.091C34.2154 108.825 33.9991 108.366 33.855 108.075C34.2394 107.664 34.72 106.818 34.9843 105.923H34.4317C34.2875 105.923 34.1433 105.923 34.0232 105.923V105.028C34.1433 105.028 34.2875 105.028 34.4317 105.028H35.1285V103.867C35.1285 103.818 35.1285 103.697 35.1044 103.649C35.3207 103.649 35.8974 103.673 36.1136 103.697C36.1136 103.746 36.0896 103.842 36.0896 103.891V105.052H36.5461C36.6903 105.052 36.8344 105.052 36.9546 105.052V105.947C36.8344 105.947 36.7143 105.947 36.5461 105.947H36.1617C36.4019 106.479 36.7864 106.987 37.0747 107.229C36.9546 107.495 36.7624 107.93 36.7143 108.148C36.474 107.906 36.2337 107.543 36.0175 107.084C36.0415 108.196 36.0656 109.624 36.0656 109.938ZM40.6309 105.028V105.923C40.5107 105.923 40.3425 105.923 40.1743 105.923H39.8379V108.849C39.8379 108.97 39.862 109.382 39.862 109.478C39.862 110.011 39.3814 110.349 38.18 110.349C38.0839 110.131 37.8676 109.672 37.7235 109.382C37.7235 109.382 38.0839 109.43 38.4203 109.43C38.7567 109.43 38.8768 109.357 38.8768 109.188V108.825C38.8768 108.753 38.9008 107.713 38.9249 107.011C38.4443 107.882 37.7956 108.704 37.0988 109.237C36.9786 109.043 36.6662 108.68 36.474 108.462C37.2189 107.979 38.0839 106.963 38.5645 105.923H37.6514C37.4832 105.923 37.315 105.923 37.1949 105.923V105.028C37.315 105.028 37.4592 105.028 37.6514 105.028H38.8768V103.939C38.8768 103.867 38.8768 103.746 38.8528 103.673C39.069 103.673 39.6457 103.697 39.862 103.721C39.862 103.794 39.8379 103.891 39.8379 103.939V105.028H40.1743C40.3666 105.028 40.5107 105.028 40.6309 105.028Z" fill="white"/>
<path d="M43.5627 105.947C43.7069 106.309 43.8991 106.938 44.0192 107.519C43.803 107.591 43.5387 107.664 43.3464 107.712C43.3224 107.591 43.2984 107.446 43.2744 107.325L42.9139 107.374V110.035C42.9139 110.155 42.9139 110.276 42.9139 110.349H42.097C42.121 110.252 42.121 110.131 42.121 110.035V107.471C41.8327 107.495 41.5684 107.519 41.4242 107.543C41.3521 107.567 41.1839 107.591 41.0878 107.591L40.9917 106.769C41.0878 106.769 41.28 106.793 41.4242 106.769C41.4723 106.769 41.5203 106.769 41.5684 106.769C41.6885 106.6 41.8327 106.43 41.9768 106.237C41.6645 105.874 41.3521 105.511 41.0398 105.221L41.4723 104.52L41.6645 104.737C41.9048 104.326 42.145 103.842 42.2171 103.576L42.938 103.987C42.9139 104.012 42.8659 104.06 42.8419 104.084C42.6737 104.423 42.4094 104.907 42.145 105.294L42.3613 105.56C42.6737 105.076 42.938 104.592 43.0581 104.278L43.7549 104.689C43.7309 104.713 43.6828 104.786 43.6588 104.81C43.3945 105.294 42.9139 106.019 42.4574 106.624C42.6977 106.6 42.9139 106.576 43.1062 106.576C43.0581 106.382 43.0101 106.213 42.938 106.068L43.5627 105.947ZM41.3041 107.833C41.5203 107.858 41.7846 107.906 41.9528 107.954C41.9528 107.979 41.9288 108.027 41.9288 108.099C41.9048 108.898 41.8327 109.478 41.6885 110.01C41.5924 109.962 41.256 109.841 41.0157 109.744C41.208 109.261 41.28 108.583 41.3041 107.833ZM43.6588 107.785C43.7549 108.124 43.8751 108.777 43.9471 109.406C43.851 109.43 43.5146 109.527 43.2503 109.599C43.2503 109.067 43.1542 108.341 43.0581 107.93L43.6588 107.785ZM47.5994 104.253C47.5994 105.535 47.5513 106.019 47.4072 106.358C47.2149 106.769 46.7104 107.011 45.7733 107.011C45.7492 106.842 45.6051 106.43 45.4849 106.116C45.1966 106.551 44.7881 106.89 44.2835 107.132C44.1634 106.938 43.9231 106.551 43.7789 106.334C44.5719 106.019 44.9563 105.511 45.0524 104.81H44.4758C44.3076 104.81 44.1874 104.81 44.0673 104.81V103.963C44.1874 103.963 44.3316 103.963 44.4758 103.963H47.6234C47.5994 104.036 47.5994 104.181 47.5994 104.253ZM47.4552 107.567V110.059V110.373H46.5422V110.035H45.1005V110.373H44.1874C44.1874 110.301 44.2114 110.18 44.2114 110.059V107.567C44.2114 107.471 44.2114 107.35 44.1874 107.253H47.4793C47.4552 107.35 47.4552 107.446 47.4552 107.567ZM46.5422 109.164V108.075H45.1005V109.164H46.5422ZM46.5662 105.85C46.6383 105.705 46.6623 105.439 46.6623 104.81H45.9174C45.8694 105.294 45.7252 105.705 45.533 106.068C45.6772 106.092 45.8213 106.116 45.9655 106.116C46.3019 106.092 46.4701 106.019 46.5662 105.85Z" fill="white"/>
<path d="M55.0238 106.116C54.8556 106.358 54.5913 106.769 54.4711 107.035C53.4379 106.503 52.3086 105.584 51.5157 104.592C50.7228 105.632 49.5694 106.576 48.4882 107.084C48.368 106.818 48.1278 106.407 47.9355 106.165C49.0168 105.681 50.4585 104.641 51.0111 103.552C51.3715 103.625 51.7079 103.673 52.0924 103.746C52.0683 103.77 52.0443 103.794 52.0443 103.818C52.645 104.737 53.9666 105.632 55.0238 106.116ZM49.9779 106.189C50.2903 106.189 50.7468 106.213 50.9871 106.237C50.9871 106.261 50.9631 106.382 50.9631 106.455C50.9631 108.85 50.2903 109.841 48.8967 110.446C48.7044 110.253 48.296 109.89 48.0557 109.672C49.4733 109.212 50.0019 108.414 50.0019 106.576C49.9779 106.431 49.9779 106.261 49.9779 106.189ZM53.0775 106.479V109.938C53.0775 110.083 53.0775 110.228 53.1015 110.349H52.0443C52.0683 110.228 52.0683 110.083 52.0683 109.938V106.479C52.0683 106.382 52.0683 106.237 52.0443 106.14C52.2606 106.14 52.8853 106.165 53.1015 106.189C53.0775 106.286 53.0775 106.407 53.0775 106.479Z" fill="white"/>
<path d="M61.7037 105.39V106.455C61.6316 106.455 61.4153 106.431 61.2472 106.431H60.4542V106.6C60.4542 108.269 59.6613 109.454 58.0034 110.083C57.7871 109.841 57.4507 109.527 57.1624 109.309C58.7483 108.801 59.397 107.979 59.397 106.624V106.431H58.0034V107.398C58.0034 107.592 58.0274 107.833 58.0274 107.882H56.9462C56.9462 107.858 56.9702 107.616 56.9702 107.398V106.431H56.0571C55.913 106.431 55.6967 106.431 55.6006 106.455V105.39C55.6727 105.39 55.8889 105.415 56.0571 105.415H56.9702V104.786C56.9702 104.447 56.9702 104.254 56.9462 104.108L58.0755 104.205C58.0514 104.302 58.0274 104.544 58.0274 104.737V105.415H59.421V104.641C59.421 104.447 59.397 104.326 59.373 104.108L60.5023 104.181C60.4783 104.35 60.4542 104.665 60.4542 104.882V105.415H61.2472C61.4153 105.415 61.6076 105.39 61.7037 105.39Z" fill="white"/>
<path d="M68.5038 107.761C68.4798 107.761 68.1674 107.737 67.9031 107.737H63.3859C63.1456 107.737 62.8092 107.761 62.7852 107.761V106.624C62.8092 106.624 63.1215 106.648 63.3859 106.648H67.9031C68.1674 106.648 68.4798 106.624 68.5038 106.624V107.761Z" fill="white"/>
<path d="M75.1352 108.632L75.1833 109.72C74.3904 109.793 73.5013 109.841 72.6604 109.841C71.2427 109.841 70.5699 109.624 70.5699 108.462V104.81C70.5699 104.641 70.5459 104.399 70.5459 104.254L71.6992 104.35C71.6752 104.447 71.6512 104.81 71.6512 104.907V106.358C72.6844 106.116 74.102 105.657 74.5586 105.294L75.1112 106.334C74.967 106.358 74.919 106.382 74.7027 106.431C73.8858 106.721 72.8045 107.084 71.6272 107.326V108.221C71.6272 108.729 71.8194 108.849 72.6123 108.849C73.3812 108.849 74.7027 108.729 75.1352 108.632ZM75.6158 104.713L75.1112 105.028C74.967 104.762 74.6547 104.375 74.4144 104.133L74.895 103.842C75.1112 104.036 75.4716 104.495 75.6158 104.713ZM76.3847 104.278L75.9041 104.592C75.76 104.326 75.4716 103.963 75.1833 103.721L75.6639 103.431C75.8801 103.625 76.2405 104.036 76.3847 104.278Z" fill="white"/>
<path d="M82.9444 109.019L82.1275 109.889C81.5989 109.26 80.9501 108.632 80.1812 108.148C79.5084 108.849 78.6915 109.502 77.6823 110.01C77.466 109.768 77.2017 109.406 76.8413 109.14C78.4272 108.535 80.0851 106.914 80.5897 105.705H78.0427C77.8745 105.705 77.6342 105.705 77.466 105.729V104.616C77.6342 104.616 77.8745 104.64 78.0427 104.64H81.1423L81.2384 104.568L82.0794 105.197L81.9833 105.318C81.695 105.995 81.3105 106.696 80.8059 107.374C81.5989 107.809 82.2957 108.39 82.9444 109.019Z" fill="white"/>
<path d="M22.3701 87.7082H24.6528V97.5047H26.3828V87.7082H28.6654V86.1602H22.3701V87.7082Z" fill="white"/>
<path d="M30.8281 97.5047H35.9221V95.884H32.5341V92.2557H35.4896V90.7318H32.5341V87.7082H35.9221V86.1602H30.8281V97.5047Z" fill="white"/>
<path d="M40.9918 86.0635C39.3339 86.0635 38.2046 87.2003 38.2046 88.6759V94.9166C38.2046 96.9968 39.7183 97.6015 41.0159 97.6015C42.5536 97.6015 43.731 96.3679 43.731 94.9649V94.2635H42.025V94.8198C42.025 95.7148 41.4243 95.9567 40.9438 95.9567C40.1749 95.9567 39.9106 95.4487 39.9106 94.7956V88.9903C39.9106 88.2163 40.1028 87.6599 40.9678 87.6599C41.6166 87.6599 42.025 88.1921 42.025 88.8452V89.3773H43.731V88.7726C43.731 87.2003 42.5536 86.0635 40.9918 86.0635Z" fill="white"/>
<path d="M49.8102 90.7318H47.6957V86.1602H45.9897V97.5047H47.6957V92.159H49.8102V97.5047H51.5402V86.1602H49.8102V90.7318Z" fill="white"/>
<path d="M58.9166 86.0635C57.2587 86.0635 56.1294 87.2003 56.1294 88.6759V94.9166C56.1294 96.9968 57.6432 97.6015 58.9407 97.6015C60.4785 97.6015 61.6558 96.3679 61.6558 94.9649V94.2635H59.9498V94.8198C59.9498 95.7148 59.3491 95.9567 58.8686 95.9567C58.0997 95.9567 57.8354 95.4487 57.8354 94.7956V88.9903C57.8354 88.2163 58.0276 87.6599 58.8926 87.6599C59.5414 87.6599 59.9498 88.1921 59.9498 88.8452V89.3773H61.6558V88.7726C61.6558 87.2003 60.4785 86.0635 58.9166 86.0635Z" fill="white"/>
<path d="M65.7164 86.1602L63.0493 97.5047H64.7553L65.332 94.8197H67.5185L68.0952 97.5047H69.8012L67.1341 86.1602H65.7164ZM65.6443 93.32L66.4132 89.5708H66.4373L67.2062 93.32H65.6443Z" fill="white"/>
<path d="M75.5439 92.159L73.1171 86.1602H71.6514V97.5047H73.3333V91.2882L75.616 96.6823L77.7064 91.2882V97.5047H79.3884V86.1602H77.8986L75.5439 92.159Z" fill="white"/>
<path d="M84.2182 86.1602H82.5363H81.6953V97.5047H83.4013V92.5944H84.2182C86.0924 92.5944 87.6062 91.143 87.6062 89.3773C87.6302 87.6115 86.0924 86.1602 84.2182 86.1602ZM84.2182 91.0705H83.4013V87.7082H84.2182C85.2034 87.7082 85.9963 88.4581 85.9963 89.3773C85.9963 90.3206 85.2034 91.0705 84.2182 91.0705Z" fill="white"/>
<g opacity="0.8">
<path opacity="0.8" d="M22.3701 77.9121H87.6301L76.7934 59.3352C76.4811 58.8272 75.9044 58.537 75.3037 58.6337C70.7144 59.3352 40.343 62.9151 22.3701 77.9121Z" fill="white"/>
</g>
<path d="M22.3701 77.9119C22.3701 77.9119 52.9097 59.6253 72.7568 54.7149C73.3094 54.5698 73.5737 53.9651 73.2854 53.4571L55.0001 21.9634L22.3701 77.9119Z" fill="white"/>
</svg>
