<svg width="321" height="91" viewBox="0 0 321 91" fill="none" xmlns="http://www.w3.org/2000/svg">
<rect x="0.0917969" width="320" height="90.2275" fill="#A93032"/>
<path d="M320.092 73.986V16.2417L0.0918274 16.2417V73.986L320.092 73.986Z" fill="#A93032"/>
<path d="M54.022 37.7712H58.0344V55.3306H61.0438V37.7712H65.0562V35.0664H54.022V37.7712Z" fill="white"/>
<path d="M68.8599 55.3306H77.8043V52.4112H71.8692V45.9713H77.052V43.2236H71.8692V37.7712H77.8043V35.0664H68.8599V55.3306Z" fill="white"/>
<path d="M86.6651 34.8945C83.7393 34.8945 81.7749 36.9124 81.7749 39.5742V50.7366C81.7749 54.4288 84.4081 55.5022 86.7069 55.5022C89.3818 55.5022 91.4717 53.3126 91.4717 50.8225V49.5345H88.4623V50.522C88.4623 52.1105 87.4174 52.5828 86.5815 52.5828C85.244 52.5828 84.7425 51.6812 84.7425 50.522V40.1752C84.7425 38.8014 85.0768 37.8139 86.5815 37.8139C87.71 37.8139 88.4205 38.8014 88.4205 39.9176V40.9051H91.4299V39.7459C91.4717 36.9124 89.4236 34.8945 86.6651 34.8945Z" fill="white"/>
<path d="M102.13 43.2236H98.4099V35.0664H95.4424V55.3306H98.4099V45.7996H102.13V55.3306H105.139V35.0664H102.13V43.2236Z" fill="white"/>
<path d="M118.054 34.8945C115.128 34.8945 113.164 36.9124 113.164 39.5742V50.7366C113.164 54.4288 115.797 55.5022 118.096 55.5022C120.771 55.5022 122.861 53.3126 122.861 50.8225V49.5345H119.852V50.522C119.852 52.1105 118.807 52.5828 117.971 52.5828C116.633 52.5828 116.132 51.6812 116.132 50.522V40.1752C116.132 38.8014 116.466 37.8139 117.971 37.8139C119.099 37.8139 119.81 38.8014 119.81 39.9176V40.9051H122.819V39.7459C122.903 36.9124 120.813 34.8945 118.054 34.8945Z" fill="white"/>
<path d="M130.008 35.0664L125.327 55.3306H128.336L129.339 50.5221H133.143L134.188 55.3306H137.197L132.516 35.0664H130.008ZM129.841 47.8603L131.178 41.1628H131.22L132.557 47.8603H129.841V47.8603Z" fill="white"/>
<path d="M147.186 45.7566L142.965 35.0664H140.415V55.3306H143.341V44.211L147.353 53.8709L150.99 44.211V55.3306H153.957V35.0664H151.366L147.186 45.7566Z" fill="white"/>
<path d="M162.442 35.0664H159.516H158.011V55.3306H161.021V46.5723H162.442C165.744 46.5723 168.377 43.9964 168.377 40.8194C168.377 37.6424 165.702 35.0664 162.442 35.0664ZM162.442 43.8247H161.021V37.8141H162.442C164.155 37.8141 165.535 39.145 165.535 40.8194C165.535 42.4508 164.155 43.8247 162.442 43.8247Z" fill="white"/>
<g opacity="0.8">
<path opacity="0.8" d="M21.7134 55.3307H50.0096L45.3284 47.1305C45.203 46.9159 44.9522 46.7871 44.7014 46.83C42.6952 47.1305 29.5293 48.719 21.7134 55.3307Z" fill="white"/>
</g>
<path d="M21.7139 55.3307C21.7139 55.3307 34.9633 47.2594 43.5734 45.0698C43.8242 45.0269 43.9078 44.7263 43.8242 44.5117L35.8829 30.5586L21.7139 55.3307Z" fill="white"/>
<path d="M183.883 40.7808L185.597 42.1117L185.43 42.3264C184.719 46.1045 182.337 49.8396 178.324 51.6428C177.865 51.1276 177.321 50.5265 176.611 50.0113C180.122 48.6375 182.295 46.1903 183.089 43.0133H176.569C176.276 43.0133 175.9 43.0133 175.649 43.0563V40.8238C175.858 40.8238 176.276 40.8667 176.569 40.8667H183.674L183.883 40.7808ZM187.185 40.008C187.185 40.8238 186.558 41.4678 185.764 41.4678C184.97 41.4678 184.343 40.8667 184.343 40.008C184.343 39.1923 184.928 38.5483 185.764 38.5483C186.6 38.5483 187.185 39.1923 187.185 40.008ZM186.558 40.008C186.558 39.5358 186.224 39.1923 185.806 39.1923C185.388 39.1923 185.054 39.5358 185.054 40.008C185.054 40.4803 185.388 40.8238 185.806 40.8238C186.224 40.8238 186.558 40.4803 186.558 40.008Z" fill="white"/>
<path d="M196.757 51.0371C196.757 50.9941 196.799 50.5219 196.799 50.0925H190.989C190.989 50.5219 191.031 50.9941 191.031 51.0371H188.815C188.815 50.9941 188.857 50.3931 188.857 49.9208V41.1196H198.972V49.9637C198.972 50.3931 198.972 51.0371 198.972 51.0371H196.757ZM190.989 43.2233V47.9888H196.799V43.2233H190.989Z" fill="white"/>
<path d="M210.842 41.3345L212.347 42.5366L212.138 42.7942C210.633 46.9587 208.126 50.0069 204.239 51.9388C203.821 51.4666 203.026 50.7367 202.483 50.4362C205.492 49.1912 208.376 46.4435 209.588 43.3523H206.287C205.283 44.812 204.155 46.0571 203.068 46.8728C202.65 46.4435 201.898 45.8853 201.271 45.5419C203.319 44.168 205.576 41.034 206.161 39.1449L208.335 39.7889C208.209 39.9606 208.084 40.1324 207.958 40.347C207.791 40.6905 207.624 41.0769 207.415 41.4204H210.508L210.842 41.3345ZM212.681 40.9481L211.678 41.5492C211.386 41.034 210.801 40.2612 210.341 39.7889L211.26 39.2308C211.72 39.6172 212.431 40.4758 212.681 40.9481ZM214.27 40.1324L213.35 40.7334C213.058 40.2182 212.514 39.4884 211.971 39.0161L212.89 38.458C213.35 38.8873 214.019 39.7031 214.27 40.1324Z" fill="white"/>
<path d="M225.596 44.2109L225.387 44.4256C224.259 48.1607 222.043 50.6079 218.616 51.7241C218.282 51.2519 217.697 50.6508 216.944 50.0498C220.372 49.2341 222.252 47.0445 222.921 45.1984H216.401C216.108 45.1984 215.649 45.1984 215.356 45.2413V43.1376C215.607 43.1376 216.066 43.1806 216.401 43.1806H223.966L224.217 43.0518L225.596 44.2109ZM217.279 41.5491C216.986 41.5491 216.568 41.5921 216.401 41.5921V39.5742C216.568 39.5742 216.986 39.6172 217.279 39.6172H223.506C223.673 39.6172 224.05 39.6172 224.217 39.5742V41.5921C224.091 41.5921 223.841 41.5491 223.506 41.5491H217.279V41.5491Z" fill="white"/>
<path d="M227.686 49.2772L228.271 47.2165C230.57 47.6458 233.788 48.4615 236.547 49.7924L235.836 51.8961C232.994 50.5652 229.818 49.7066 227.686 49.2772ZM228.815 45.4133L229.358 43.5243C231.448 43.8248 233.663 44.4688 235.335 45.1557L234.75 47.1306C233.161 46.4008 230.612 45.7138 228.815 45.4133ZM228.815 41.807L229.358 39.875C231.657 40.1755 234.499 40.8624 235.962 41.4635L235.377 43.4813C233.788 42.7086 230.988 42.1075 228.815 41.807Z" fill="white"/>
<path d="M238.971 42.4507L240.225 40.7334C241.145 41.2486 242.44 42.1502 243.527 43.0947L242.273 44.812C241.354 43.9533 239.974 43.0088 238.971 42.4507ZM250.507 43.6528C248.543 47.2592 244.99 49.6634 241.688 51.209C241.395 51.3378 241.228 51.4665 241.061 51.5524L239.64 49.5346C243.861 48.2895 247.581 45.1555 249.169 41.5921L250.507 43.6528Z" fill="white"/>
<path d="M261.081 41.3345L262.586 42.5366L262.377 42.7942C260.872 46.9587 258.364 50.0069 254.477 51.9388C254.059 51.4666 253.265 50.7367 252.722 50.4362C255.731 49.1912 258.615 46.4435 259.827 43.3523H256.525C255.522 44.812 254.394 46.0571 253.307 46.8728C252.889 46.4435 252.137 45.8853 251.51 45.5419C253.558 44.168 255.815 41.034 256.4 39.1449L258.573 39.7889C258.448 39.9606 258.323 40.1324 258.197 40.347C258.03 40.6905 257.863 41.0769 257.654 41.4204H260.747L261.081 41.3345ZM262.878 40.9481L261.875 41.5492C261.583 41.034 260.998 40.2612 260.538 39.7889L261.457 39.2308C261.959 39.6172 262.628 40.4758 262.878 40.9481ZM264.467 40.1324L263.547 40.7334C263.255 40.2182 262.711 39.4884 262.168 39.0161L263.087 38.458C263.547 38.8873 264.216 39.7031 264.467 40.1324Z" fill="white"/>
<path d="M278.761 50.2644C278.51 50.8226 278.134 51.7671 278.009 52.1535C277.131 51.6383 276.17 50.6508 275.501 49.7493C274.79 50.6508 273.704 51.6383 272.492 52.1535C272.366 51.7242 271.823 50.9514 271.447 50.4791C272.492 50.0927 273.746 49.2341 274.54 48.2466C274.08 47.3021 273.704 46.2717 273.453 44.8979C273.244 45.1984 273.035 45.4989 272.826 45.7136C272.575 45.2843 272.157 44.6832 271.906 44.3398C271.948 44.2968 271.99 44.211 272.032 44.168H271.697H270.82C270.569 44.4685 270.318 44.7261 270.026 44.9837H271.196L271.28 44.8549C271.53 45.0267 272.032 45.456 272.45 45.8853C272.366 45.9283 272.241 46.0141 272.115 46.0571C271.572 46.5722 270.778 47.1304 270.067 47.5597L270.151 47.6885C271.447 47.4738 272.659 47.2592 272.993 47.1304C272.91 47.7314 272.826 48.4613 272.784 48.8047C272.492 48.8477 271.739 49.0194 270.82 49.1482C270.862 49.4487 270.903 49.7493 270.903 50.0069C270.903 51.5095 270.235 52.1964 268.479 52.1964C268.228 52.1964 267.894 52.1535 267.685 52.1535C267.643 51.9388 267.351 51.0802 267.183 50.4791C267.434 50.522 267.894 50.565 268.187 50.565C269.023 50.565 269.148 50.3932 269.148 49.7922C269.148 49.6634 269.148 49.5346 269.106 49.4058C268.312 49.5346 267.518 49.6634 267.058 49.7493C266.807 49.7922 266.473 49.8351 266.264 49.8781L265.971 48.1608C266.264 48.1178 266.598 48.1178 266.975 48.0749C267.351 48.032 267.852 47.989 268.479 47.9032C268.228 47.6026 267.936 47.3021 267.56 47.0874L269.19 46.701V46.744C269.399 46.6152 269.608 46.4864 269.817 46.3147H268.145C267.56 46.6581 266.975 46.9157 266.306 47.1733C266.222 46.8298 265.846 46.1429 265.595 45.6707C266.598 45.3701 267.601 44.8549 268.563 44.1251H266.766C266.431 44.1251 266.18 44.1251 265.93 44.1251V42.5795C266.18 42.5795 266.473 42.5795 266.766 42.5795H268.27V41.635H267.1C266.849 41.635 266.64 41.635 266.389 41.635V40.0894C266.598 40.0894 266.849 40.0894 267.1 40.0894H268.27V39.4884C268.27 39.4025 268.27 39.1878 268.27 39.0161C268.646 39.0161 269.649 39.059 269.984 39.102C269.984 39.2308 269.942 39.3596 269.942 39.4884V40.1324H270.527C270.778 40.1324 271.029 40.1324 271.238 40.1324V40.991C271.53 40.4758 271.739 39.8748 271.948 39.2737L273.369 40.0465C273.328 40.0894 273.286 40.1324 273.286 40.1753C272.91 41.0769 272.492 41.8926 272.032 42.6224C272.241 42.6224 272.408 42.6224 272.575 42.6224V43.3952C273.244 42.1073 273.746 40.347 273.954 39.0161L275.668 39.3596C275.668 39.4025 275.626 39.4884 275.585 39.5742C275.459 40.1753 275.334 40.7763 275.167 41.3345H277.925C278.176 41.3345 278.385 41.3345 278.594 41.3345V43.0088C278.385 43.0088 278.176 43.0088 277.925 43.0088H277.883C277.716 45.4131 277.256 46.8728 276.546 48.3325C277.089 49.1053 277.967 49.8351 278.761 50.2644ZM269.9 42.6224H270.109C270.36 42.3219 270.569 41.9785 270.82 41.635H270.527H269.942V42.6224H269.9ZM276.211 42.923H274.707C274.832 44.4256 275.041 45.5848 275.501 46.6152C275.877 45.5848 276.17 44.4256 276.211 42.923Z" fill="white"/>
<path d="M290.84 50.5649C291.593 50.6937 292.387 50.7796 293.223 50.7796C292.972 51.2089 292.554 51.8529 292.429 52.1963C289.837 51.9817 288.04 51.2948 286.786 50.1785C286.744 50.6078 286.744 51.123 286.744 51.3806C286.117 51.4665 282.774 51.8529 281.52 51.9817C281.269 51.9817 280.976 52.0246 280.809 52.0675C280.684 51.6382 280.517 50.9513 280.391 50.3932C280.684 50.3932 281.06 50.3932 281.394 50.3932C281.771 50.3932 282.356 50.3502 283.024 50.2644V46.7439C282.356 47.2591 281.645 47.6884 280.935 48.0319C280.767 47.6455 280.308 46.9586 280.015 46.5292C281.018 46.2287 282.23 45.5847 283.066 44.8978H281.687C281.144 44.8978 280.767 44.8978 280.391 44.9407V43.524C280.767 43.5669 281.144 43.5669 281.687 43.5669H285.699V43.0088H282.523C282.105 43.0088 281.771 43.0088 281.478 43.0517V41.8496C281.771 41.8925 282.105 41.8925 282.523 41.8925H285.699V41.4203H282.23C281.771 41.4203 281.394 41.4203 281.06 41.4632V40.0894C281.394 40.1323 281.771 40.1323 282.23 40.1323H283.693C283.568 39.8318 283.401 39.5742 283.275 39.3595L285.031 38.9302C285.198 39.1878 285.449 39.66 285.658 40.1323H287.831C288.082 39.703 288.333 39.2307 288.416 38.9302L290.255 39.3595C290.213 39.4454 290.172 39.4883 290.088 39.5742C290.004 39.7459 289.879 39.9606 289.712 40.1752H291.175C291.635 40.1752 292.011 40.1752 292.345 40.1323V41.4632C292.011 41.4203 291.635 41.4203 291.175 41.4203H287.58V41.8925H290.799C291.217 41.8925 291.551 41.8925 291.844 41.8496V43.0517C291.551 43.0088 291.217 43.0088 290.799 43.0088H287.58V43.524H291.635C292.178 43.524 292.554 43.524 292.93 43.481V44.8549C292.596 44.8119 292.178 44.8119 291.635 44.8119H290.255C291.049 45.4559 292.345 45.9711 293.39 46.2287C293.139 46.658 292.763 47.4308 292.638 47.8172C291.802 47.5167 291.008 47.0444 290.297 46.4863V49.1052C290.548 48.8476 290.757 48.6329 290.84 48.5041C291.258 48.8047 291.635 49.1052 292.094 49.4916C292.053 49.5345 291.969 49.5775 291.927 49.6204C291.635 49.9209 291.258 50.2214 290.84 50.5649ZM284.822 44.8549C284.655 45.0695 284.487 45.2842 284.278 45.4989H285.783V45.3271C285.783 45.2842 285.783 45.1125 285.741 44.9837C286.117 44.9837 287.162 45.0266 287.539 45.0695C287.539 45.1554 287.539 45.2842 287.539 45.3271V45.5418H289.127C288.918 45.3271 288.751 45.1125 288.625 44.8978H284.822V44.8549ZM284.696 46.5722V46.9586H288.5V46.5722H284.696ZM284.696 48.3753H288.5V47.946H284.696V48.3753ZM286.452 49.9209C286.285 49.7492 286.159 49.5775 285.992 49.4057H284.655V50.0927C285.407 50.0497 286.076 50.0068 286.452 49.9209ZM290.005 49.4487H287.622C288.04 49.7063 288.542 49.9639 289.127 50.1356C289.419 49.9209 289.712 49.6633 290.005 49.4487Z" fill="white"/>
</svg>
