<svg width="110" height="131" viewBox="0 0 110 131" fill="none" xmlns="http://www.w3.org/2000/svg">
<path d="M110 0H88.3748H21.6252H0V21.4967V108.534V130.031H21.6252H88.3748H110V108.534V21.4967V0Z" fill="#A93032"/>
<path d="M22.3701 87.5417H24.6528V97.3196H26.3828V87.5417H28.6654V85.9966H22.3701V87.5417Z" fill="white"/>
<path d="M30.8276 97.3201H35.9216V95.7025H32.5336V92.0811H35.4891V90.5601H32.5336V87.5422H35.9216V85.9971H30.8276V97.3201Z" fill="white"/>
<path d="M40.9918 85.9004C39.3339 85.9004 38.2046 87.0351 38.2046 88.5078V94.7367C38.2046 96.813 39.7183 97.4166 41.0159 97.4166C42.5536 97.4166 43.731 96.1853 43.731 94.785V94.0848H42.025V94.6401C42.025 95.5334 41.4243 95.7748 40.9438 95.7748C40.1749 95.7748 39.9106 95.2678 39.9106 94.616V88.8217C39.9106 88.0491 40.1028 87.4938 40.9678 87.4938C41.6166 87.4938 42.025 88.025 42.025 88.6768V89.208H43.731V88.6044C43.731 87.0351 42.5536 85.9004 40.9918 85.9004Z" fill="white"/>
<path d="M49.8097 90.5601H47.6952V85.9971H45.9893V97.3201H47.6952V91.9845H49.8097V97.3201H51.5397V85.9971H49.8097V90.5601Z" fill="white"/>
<path d="M58.9166 85.9004C57.2587 85.9004 56.1294 87.0351 56.1294 88.5078V94.7367C56.1294 96.813 57.6432 97.4166 58.9407 97.4166C60.4785 97.4166 61.6558 96.1853 61.6558 94.785V94.0848H59.9498V94.6401C59.9498 95.5334 59.3491 95.7748 58.8686 95.7748C58.0997 95.7748 57.8354 95.2678 57.8354 94.616V88.8217C57.8354 88.0491 58.0276 87.4938 58.8926 87.4938C59.5414 87.4938 59.9498 88.025 59.9498 88.6768V89.208H61.6558V88.6044C61.6558 87.0351 60.4785 85.9004 58.9166 85.9004Z" fill="white"/>
<path d="M65.7164 85.9971L63.0493 97.3201H64.7553L65.332 94.6402H67.5185L68.0952 97.3201H69.8012L67.1341 85.9971H65.7164ZM65.6443 93.1434L66.4132 89.4012H66.4373L67.2062 93.1434H65.6443Z" fill="white"/>
<path d="M75.5439 91.9845L73.1171 85.9971H71.6514V97.3201H73.3333V91.1154L75.616 96.4992L77.7064 91.1154V97.3201H79.3884V85.9971H77.8986L75.5439 91.9845Z" fill="white"/>
<path d="M84.2182 85.9971H82.5363H81.6953V97.3201H83.4013V92.4191H84.2182C86.0924 92.4191 87.6062 90.9705 87.6062 89.2081C87.6302 87.4457 86.0924 85.9971 84.2182 85.9971ZM84.2182 90.8981H83.4013V87.5422H84.2182C85.2034 87.5422 85.9963 88.2907 85.9963 89.2081C85.9963 90.1497 85.2034 90.8981 84.2182 90.8981Z" fill="white"/>
<g opacity="0.8">
<path opacity="0.8" d="M22.3701 77.7642H87.6301L76.7934 59.2225C76.4811 58.7155 75.9044 58.4258 75.3037 58.5224C70.7144 59.2225 40.343 62.7956 22.3701 77.7642Z" fill="white"/>
</g>
<path d="M22.3701 77.7644C22.3701 77.7644 52.9097 59.5124 72.7568 54.6114C73.3094 54.4665 73.5737 53.8629 73.2854 53.3559L55.0001 21.9219L22.3701 77.7644Z" fill="white"/>
<path d="M28.5936 104.369L29.4826 105.045L29.3865 105.142C29.0261 107.049 27.7766 108.98 25.6862 109.898C25.4459 109.632 25.1576 109.343 24.7972 109.077C26.6233 108.377 27.7766 107.121 28.1611 105.504H24.7491C24.6049 105.504 24.3887 105.504 24.2686 105.528V104.417C24.3887 104.417 24.6049 104.442 24.7491 104.442H28.4494L28.5936 104.369ZM30.3236 103.983C30.3236 104.393 30.0112 104.707 29.6028 104.707C29.1703 104.707 28.8819 104.393 28.8819 103.983C28.8819 103.548 29.1943 103.259 29.6028 103.259C30.0112 103.234 30.3236 103.548 30.3236 103.983ZM29.9872 103.983C29.9872 103.741 29.819 103.572 29.5787 103.572C29.3385 103.572 29.1703 103.741 29.1703 103.983C29.1703 104.224 29.3385 104.393 29.5787 104.393C29.819 104.393 29.9872 104.2 29.9872 103.983Z" fill="white"/>
<path d="M35.2974 109.609C35.2974 109.585 35.3214 109.368 35.3214 109.126H32.2939C32.2939 109.344 32.3179 109.585 32.3179 109.609H31.1646C31.1646 109.585 31.1886 109.295 31.1886 109.054V104.539H36.4507V109.054C36.4507 109.271 36.4507 109.585 36.4507 109.609H35.2974V109.609ZM32.3179 105.626V108.064H35.3454V105.626H32.3179Z" fill="white"/>
<path d="M42.6739 104.66L43.4668 105.263L43.3467 105.408C42.5537 107.533 41.2562 109.102 39.2379 110.068C39.0216 109.826 38.6132 109.464 38.3248 109.295C39.9107 108.643 41.4004 107.267 42.0251 105.674H40.3191C39.8146 106.422 39.2139 107.05 38.6612 107.46C38.445 107.243 38.0605 106.953 37.7241 106.784C38.7814 106.084 39.9827 104.491 40.2711 103.525L41.4004 103.863C41.3283 103.959 41.2562 104.056 41.2082 104.153C41.1121 104.346 41.04 104.515 40.9439 104.684H42.5537L42.6739 104.66ZM43.635 104.442L43.1304 104.756C42.9862 104.491 42.6739 104.104 42.4336 103.863L42.9142 103.573C43.1304 103.766 43.4908 104.225 43.635 104.442ZM44.4519 104.056L43.9714 104.37C43.8272 104.104 43.5389 103.742 43.2506 103.501L43.7311 103.211C43.9714 103.404 44.3078 103.815 44.4519 104.056Z" fill="white"/>
<path d="M50.363 106.108L50.2429 106.229C49.6662 108.136 48.4888 109.367 46.7108 109.971C46.5426 109.729 46.2302 109.44 45.8458 109.102C47.6479 108.691 48.609 107.581 48.9694 106.615H45.5574C45.4133 106.615 45.173 106.615 45.0288 106.639V105.577C45.173 105.577 45.4133 105.601 45.5574 105.601H49.522L49.6422 105.529L50.363 106.108ZM46.014 104.78C45.8698 104.78 45.6295 104.804 45.5574 104.804V103.766C45.6295 103.766 45.8458 103.79 46.014 103.79H49.2577C49.3298 103.79 49.5461 103.79 49.6181 103.766V104.804C49.5701 104.804 49.4259 104.78 49.2577 104.78H46.014Z" fill="white"/>
<path d="M51.4438 108.715L51.7322 107.653C52.9336 107.87 54.6155 108.305 56.0332 108.957L55.6968 110.019C54.2311 109.367 52.5491 108.933 51.4438 108.715ZM52.0445 106.736L52.3329 105.77C53.4141 105.915 54.5915 106.253 55.4565 106.615L55.1442 107.605C54.3272 107.243 52.9816 106.88 52.0445 106.736ZM52.0445 104.877L52.3089 103.887C53.5103 104.032 55 104.37 55.7689 104.683L55.4565 105.722C54.6396 105.359 53.1739 105.046 52.0445 104.877Z" fill="white"/>
<path d="M57.355 105.239L58.0037 104.346C58.4843 104.611 59.1571 105.07 59.7337 105.553L59.085 106.446C58.5804 105.987 57.8596 105.529 57.355 105.239ZM63.362 105.843C62.3288 107.677 60.4786 108.909 58.7486 109.705C58.6044 109.778 58.5083 109.826 58.4122 109.874L57.6914 108.836C59.9019 108.184 61.8242 106.615 62.6652 104.78L63.362 105.843Z" fill="white"/>
<path d="M68.8643 104.66L69.6572 105.263L69.5371 105.408C68.7442 107.533 67.4467 109.102 65.4283 110.068C65.2121 109.826 64.8036 109.464 64.5153 109.295C66.1011 108.643 67.5908 107.267 68.2156 105.674H66.5096C66.005 106.422 65.4043 107.05 64.8516 107.46C64.6354 107.243 64.2509 106.953 63.9146 106.784C64.9718 106.084 66.1732 104.491 66.4615 103.525L67.5908 103.863C67.5187 103.959 67.4467 104.056 67.3986 104.153C67.3025 104.346 67.2304 104.515 67.1343 104.684H68.7442L68.8643 104.66ZM69.8254 104.442L69.3208 104.756C69.1767 104.491 68.8643 104.104 68.624 103.863L69.1046 103.573C69.3208 103.766 69.6813 104.225 69.8254 104.442ZM70.6424 104.056L70.1618 104.37C70.0177 104.104 69.7293 103.742 69.441 103.501L69.9215 103.211C70.1618 103.404 70.4982 103.815 70.6424 104.056Z" fill="white"/>
<path d="M78.1153 109.222C77.9951 109.512 77.7789 109.971 77.7308 110.188C77.2743 109.923 76.7697 109.44 76.4333 108.957C76.0729 109.416 75.4962 109.923 74.8475 110.164C74.7754 109.947 74.487 109.56 74.2948 109.319C74.8234 109.126 75.4962 108.691 75.9047 108.184C75.6644 107.701 75.4722 107.17 75.328 106.494C75.2079 106.663 75.1118 106.784 75.0157 106.905C74.8955 106.687 74.6793 106.374 74.5351 106.205C74.5591 106.18 74.5832 106.156 74.6072 106.108H74.415H73.9584C73.8383 106.253 73.6941 106.398 73.5259 106.518H74.1507L74.1987 106.446C74.3188 106.543 74.5832 106.76 74.7994 106.977C74.7513 107.001 74.6793 107.025 74.6312 107.05C74.3429 107.315 73.9344 107.581 73.55 107.798L73.598 107.846C74.2708 107.726 74.8955 107.629 75.0877 107.557C75.0397 107.846 74.9916 108.233 74.9676 108.426C74.8234 108.45 74.415 108.522 73.9344 108.619C73.9584 108.764 73.9825 108.933 73.9825 109.053C73.9825 109.826 73.6461 110.188 72.733 110.188C72.6129 110.188 72.4206 110.164 72.3245 110.164C72.3005 110.043 72.1563 109.609 72.0602 109.319C72.1804 109.343 72.4206 109.367 72.5648 109.367C72.9973 109.367 73.0694 109.295 73.0694 108.981C73.0694 108.909 73.0694 108.86 73.0454 108.788C72.6129 108.86 72.2284 108.909 71.9641 108.957C71.8199 108.981 71.6517 109.005 71.5556 109.029L71.3874 108.136C71.5316 108.112 71.7238 108.112 71.9161 108.088C72.1083 108.064 72.3726 108.039 72.6849 107.991C72.5648 107.822 72.3966 107.701 72.2044 107.581L73.0454 107.388L73.0694 107.412C73.1895 107.339 73.2856 107.267 73.3818 107.194H72.5648C72.2765 107.363 71.9401 107.508 71.6037 107.629C71.5556 107.46 71.3634 107.098 71.2192 106.856C71.7238 106.712 72.2524 106.446 72.757 106.06H71.8199C71.6517 106.06 71.5076 106.06 71.3874 106.06V105.239C71.5076 105.239 71.6517 105.239 71.8199 105.239H72.5888V104.732H71.9641C71.844 104.732 71.7238 104.732 71.6037 104.732V103.935C71.7238 103.935 71.844 103.935 71.9641 103.935H72.5888V103.621C72.5888 103.573 72.5888 103.452 72.5888 103.38C72.7811 103.38 73.3097 103.404 73.4779 103.428C73.4779 103.476 73.4538 103.573 73.4538 103.621V103.935H73.7662C73.9104 103.935 74.0305 103.935 74.1266 103.935V104.37C74.2708 104.104 74.3909 103.814 74.487 103.501L75.2319 103.911C75.2079 103.935 75.1839 103.959 75.1839 103.983C74.9916 104.442 74.7754 104.853 74.5351 105.239C74.6312 105.239 74.7273 105.239 74.8234 105.239V105.625C75.1598 104.973 75.4482 104.056 75.5443 103.38L76.4333 103.549C76.4333 103.573 76.4093 103.621 76.3853 103.645C76.3372 103.959 76.2651 104.249 76.169 104.539H77.6107C77.7308 104.539 77.851 104.539 77.9711 104.539V105.408C77.875 105.408 77.7548 105.408 77.6107 105.408C77.5146 106.639 77.2743 107.388 76.9139 108.136C77.2503 108.619 77.7068 109.005 78.1153 109.222ZM73.4779 105.311H73.598C73.7181 105.166 73.8383 104.997 73.9584 104.804H73.7902H73.4779V105.311ZM76.7697 105.48H75.9768C76.0248 106.253 76.169 106.856 76.3853 107.363C76.6015 106.808 76.7457 106.229 76.7697 105.48Z" fill="white"/>
<path d="M84.4104 109.367C84.7948 109.44 85.2273 109.488 85.6598 109.488C85.5397 109.705 85.3234 110.043 85.2513 110.212C83.9058 110.092 82.9687 109.754 82.2959 109.198C82.2719 109.416 82.2719 109.681 82.2719 109.802C81.9595 109.85 80.2054 110.043 79.5327 110.116C79.4125 110.116 79.2684 110.14 79.1482 110.164C79.1002 109.947 79.004 109.585 78.932 109.295C79.0761 109.295 79.2684 109.295 79.4606 109.295C79.6528 109.295 79.9652 109.271 80.3016 109.223V107.412C79.9652 107.677 79.5807 107.895 79.2203 108.064C79.1482 107.871 78.8839 107.508 78.7397 107.291C79.2684 107.122 79.8931 106.808 80.3256 106.446H79.6048C79.3404 106.446 79.1242 106.446 78.932 106.47V105.77C79.1242 105.794 79.3164 105.794 79.6048 105.794H81.6952V105.529H80.0373C79.821 105.529 79.6528 105.529 79.4846 105.553V104.949C79.6528 104.973 79.821 104.973 80.0373 104.973H81.6952V104.732H79.8691C79.6288 104.732 79.4366 104.732 79.2684 104.756V104.08C79.4366 104.104 79.6288 104.104 79.8691 104.104H80.638C80.5659 103.959 80.4938 103.815 80.4217 103.718L81.3348 103.501C81.4069 103.646 81.551 103.887 81.6712 104.104H82.8005C82.9446 103.887 83.0648 103.646 83.1128 103.477L84.074 103.694C84.0499 103.742 84.0259 103.766 84.0019 103.79C83.9538 103.863 83.8817 103.984 83.8097 104.08H84.5786C84.8188 104.08 85.0111 104.08 85.1793 104.056V104.732C85.0111 104.708 84.8188 104.708 84.5786 104.708H82.7044V104.949H84.3863C84.6026 104.949 84.7708 104.949 84.939 104.925V105.529C84.7708 105.505 84.6026 105.505 84.3863 105.505H82.7044V105.77H84.8188C85.0831 105.77 85.2994 105.77 85.4916 105.746V106.446C85.2994 106.422 85.1072 106.422 84.8188 106.422H84.098C84.5305 106.76 85.1793 107.026 85.7319 107.146C85.6118 107.364 85.3955 107.75 85.3474 107.967C84.9149 107.822 84.4824 107.581 84.122 107.291V108.619C84.2422 108.498 84.3623 108.378 84.4104 108.305C84.6266 108.474 84.8188 108.619 85.0591 108.812C85.0351 108.836 84.987 108.86 84.963 108.885C84.8188 109.029 84.6266 109.198 84.4104 109.367ZM81.2627 106.47C81.1666 106.591 81.0705 106.688 80.9744 106.808H81.7673V106.688C81.7673 106.663 81.7673 106.567 81.7432 106.519C81.9355 106.519 82.4881 106.543 82.6803 106.567C82.6803 106.615 82.6803 106.663 82.6803 106.712V106.832H83.5213C83.4252 106.712 83.3291 106.615 83.257 106.494H81.2627V106.47ZM81.1906 107.339V107.533H83.1609V107.339H81.1906ZM81.1906 108.257H83.1609V108.04H81.1906V108.257ZM82.1277 109.029C82.0316 108.957 81.9595 108.86 81.8874 108.764H81.1906V109.126C81.5751 109.102 81.9114 109.078 82.1277 109.029ZM83.9538 108.788H82.7284C82.9446 108.909 83.209 109.054 83.5213 109.15C83.6655 109.029 83.8337 108.909 83.9538 108.788Z" fill="white"/>
</svg>
