<svg xmlns="http://www.w3.org/2000/svg" viewBox="0 0 687.99 113.81"><defs><style>.cls-1{fill:#040000;}.cls-2{fill:#c3c3c3;}.cls-3{fill:#11376b;}</style></defs><g id="レイヤー_2" data-name="レイヤー 2"><g id="engineer-"><g id="logo-blue"><polyline class="cls-1" points="151.54 32.89 170.38 32.89 170.38 113.03 184.45 113.03 184.45 32.89 203.29 32.89 203.29 20.4 151.54 20.4 151.54 32.89"/><polyline class="cls-1" points="221.11 113.03 263.06 113.03 263.06 99.76 235.19 99.76 235.19 70.16 259.47 70.16 259.47 57.67 235.19 57.67 235.19 32.89 263.06 32.89 263.06 20.4 221.11 20.4 221.11 113.03"/><path class="cls-1" d="M304.61,19.62C291,19.62,281.7,28.86,281.7,41V92c0,16.91,12.42,21.86,23.18,21.86,12.56,0,22.36-10,22.36-21.47V86.62H313.16v4.55c0,7.29-5,9.37-8.83,9.37-6.35,0-8.55-4.17-8.55-9.5V43.69c0-6.25,1.65-10.8,8.69-10.8,5.38,0,8.69,4.42,8.69,9.63v4.42h14.08v-5.2c0-12.88-9.66-22.12-22.63-22.12"/><polyline class="cls-1" points="377.19 57.67 359.8 57.67 359.8 20.4 345.73 20.4 345.73 113.03 359.8 113.03 359.8 69.38 377.19 69.38 377.19 113.03 391.26 113.03 391.26 20.4 377.19 20.4 377.19 57.67"/><path class="cls-1" d="M451.93,19.62C438.26,19.62,429,28.86,429,41V92c0,16.91,12.42,21.86,23.18,21.86,12.56,0,22.35-10,22.35-21.47V86.62H460.48v4.55c0,7.29-5,9.37-8.83,9.37-6.35,0-8.56-4.17-8.56-9.5V43.69c0-6.25,1.66-10.8,8.7-10.8,5.38,0,8.69,4.42,8.69,9.63v4.42h14.07v-5.2c0-12.88-9.65-22.12-22.62-22.12"/><path class="cls-1" d="M507.87,20.4,485.93,113H500l4.76-21.94h17.92L527.46,113h14.08L519.6,20.4H507.87m-.63,58.44,6.29-30.56h.27l6.25,30.56Z"/><polyline class="cls-1" points="588.63 69.28 568.74 20.4 556.75 20.4 556.75 113.03 570.57 113.03 570.57 62.24 589.34 106.28 606.41 62.24 606.41 113.03 620.23 113.03 620.23 20.4 608.1 20.4 588.63 69.28"/><path class="cls-1" d="M660.07,20.37h-13.8v0h-7V113h14.07V73h6.76C675.46,73,688,61.2,688,46.69s-12.53-26.32-27.92-26.32m0,40.05h-6.76V33h6.76c8,0,14.55,6.15,14.55,13.72S668.09,60.42,660.07,60.42Z"/><path class="cls-2" d="M0,113H132.7l-22-37.54a3,3,0,0,0-3-1.43C98.31,75.51,36.58,82.73,0,113Z"/><path class="cls-3" d="M0,113S62.09,76.1,102.48,66.17a1.71,1.71,0,0,0,1.08-2.53L66.35,0Z"/></g></g></g></svg>