<svg width="231" height="40" viewBox="0 0 231 40" fill="none" xmlns="http://www.w3.org/2000/svg">
<path d="M51.1777 11.8839H57.4723V38.8348H62.1932V11.8839H68.4878V7.65625H51.1777V11.8839Z" fill="#040000"/>
<path d="M74.4551 38.8387H88.4867V34.413H79.176V24.4385H87.3065V20.2109H79.176V11.8878H88.4867V7.66016H74.4551V38.8387Z" fill="#040000"/>
<path d="M102.384 7.39453C97.7946 7.39453 94.7129 10.4992 94.7129 14.5947V31.7693C94.7129 37.4502 98.8437 39.1016 102.45 39.1016C106.646 39.1016 109.925 35.7327 109.925 31.9015V29.9858H105.204V31.5051C105.204 33.9492 103.565 34.6758 102.253 34.6758C100.155 34.6758 99.3682 33.2886 99.3682 31.5051V15.5195C99.3682 13.4057 99.8928 11.8864 102.253 11.8864C104.024 11.8864 105.138 13.4057 105.138 15.1231V16.6424H109.859V14.8589C109.925 10.4992 106.712 7.39453 102.384 7.39453V7.39453Z" fill="#040000"/>
<path d="M126.645 20.2109H120.81V7.66016H116.154V38.8387H120.81V24.1742H126.645V38.8387H131.366V7.66016H126.645V20.2109Z" fill="#040000"/>
<path d="M151.627 7.39453C147.037 7.39453 143.956 10.4992 143.956 14.5947V31.7693C143.956 37.4502 148.086 39.1016 151.693 39.1016C155.889 39.1016 159.167 35.7327 159.167 31.9015V29.9858H154.447V31.5051C154.447 33.9492 152.807 34.6758 151.496 34.6758C149.398 34.6758 148.611 33.2886 148.611 31.5051V15.5195C148.611 13.4057 149.135 11.8864 151.496 11.8864C153.266 11.8864 154.381 13.4057 154.381 15.1231V16.6424H159.102V14.8589C159.233 10.4992 155.955 7.39453 151.627 7.39453V7.39453Z" fill="#040000"/>
<path d="M170.381 7.66016L163.037 38.8387H167.758L169.332 31.4404H175.298L176.938 38.8387H181.658L174.315 7.66016H170.381ZM170.118 27.3449L172.217 17.0402H172.282L174.38 27.3449H170.118Z" fill="#040000"/>
<path d="M197.327 24.1082L190.705 7.66016H186.705V38.8387H191.295V21.7302L197.589 36.5928L203.294 21.7302V38.8387H207.949V7.66016H203.884L197.327 24.1082Z" fill="#040000"/>
<path d="M221.261 7.66016H216.671H214.311V38.8387H219.031V25.3633H221.261C226.441 25.3633 230.571 21.3999 230.571 16.5117C230.571 11.6235 226.375 7.66016 221.261 7.66016V7.66016ZM221.261 21.1357H219.031V11.8878H221.261C223.949 11.8878 226.113 13.9355 226.113 16.5117C226.113 19.0879 223.949 21.1357 221.261 21.1357Z" fill="#040000"/>
<path d="M0.494141 38.8379H44.8838L37.5402 26.2212C37.3435 25.8909 36.9501 25.6927 36.5566 25.7588C33.4094 26.2212 12.7554 28.6653 0.494141 38.8379V38.8379Z" fill="#C3C3C3"/>
<path d="M0.494141 38.8372C0.494141 38.8372 21.2793 26.4186 34.7863 23.0497C35.1797 22.9837 35.3108 22.5213 35.1797 22.191L22.7218 0.722656L0.494141 38.8372Z" fill="#11376B"/>
</svg>
